<?xml version="1.0" encoding="UTF-8"?>
<svg width="80px" height="80px" viewBox="0 0 80 80" version="1.1" xmlns="http://www.w3.org/2000/svg" xmlns:xlink="http://www.w3.org/1999/xlink">
    <!-- Generator: Sketch 60 (88103) - https://sketch.com -->
    <title>Icon/Dental Emergency</title>
    <desc>Created with Sketch.</desc>
    <defs>
        <polygon id="path-1" points="0 7.01754386e-05 79.9998596 7.01754386e-05 79.9998596 80 0 80"></polygon>
    </defs>
    <g id="Page-1" stroke="none" stroke-width="1" fill="none" fill-rule="evenodd">
        <g id="My-Policies---Desktop" transform="translate(-710.000000, -1025.000000)">
            <g id="Group-13-Copy-7" transform="translate(682.000000, 1004.000000)">
                <g id="Icon/Dental-Emergency" transform="translate(28.000000, 21.000000)">
                    <g id="Group-20">
                        <g id="Group-3">
                            <mask id="mask-2" fill="white">
                                <use xlink:href="#path-1"></use>
                            </mask>
                            <g id="Clip-2"></g>
                            <path d="M79.9998596,40.0000702 C79.9998596,62.0912982 62.0910877,80.0000702 39.9998596,80.0000702 C17.9086316,80.0000702 -0.000140350877,62.0912982 -0.000140350877,40.0000702 C-0.000140350877,17.9088421 17.9086316,7.01754386e-05 39.9998596,7.01754386e-05 C62.0910877,7.01754386e-05 79.9998596,17.9088421 79.9998596,40.0000702" id="Fill-1" fill="#BFF3E8" mask="url(#mask-2)"></path>
                        </g>
                        <g id="Group-7" transform="translate(19.649123, 21.052632)">
                            <path d="M31.4815439,40.9307368 C29.2948772,40.9307368 27.3047018,39.473193 26.6169825,37.2942456 C25.3966316,33.4275789 22.8541754,30.2809123 20.9369825,28.321614 C20.3875088,27.7630175 19.4099649,27.7609123 18.8590877,28.321614 C16.941193,30.2795088 14.3987368,33.4254737 13.1776842,37.2956491 C12.4317193,39.6605614 10.1425965,41.1749474 7.74610526,40.8970526 C5.77978947,40.6682807 3.57136842,39.113193 3.27031579,35.4282807 C3.16154386,34.1005614 3.20715789,32.7068772 3.25698246,31.2338947 C3.36505263,27.9868772 3.48645614,24.3061754 2.04294737,19.7623158 L1.86610526,19.2086316 C1.03031579,16.5840702 0.462596491,12.8395088 0.462596491,12.8395088 C0.462596491,12.8395088 5.79522807,13.9875789 9.43803509,11.7110877 C12.3145263,9.91319298 11.6099649,1.37915789 11.6099649,1.37915789 C11.6099649,1.37915789 13.3531228,1.89214035 14.0099649,2.31670175 C14.1327719,2.39740351 14.2415439,2.46687719 14.3306667,2.52301754 C14.4766316,2.6114386 14.6394386,2.71389474 14.8155789,2.82617544 C16.0064561,3.5805614 17.8015439,4.71810526 19.8962807,4.79319298 C21.9945263,4.71810526 23.789614,3.57915789 24.9804912,2.82547368 C25.1559298,2.71389474 25.3194386,2.6114386 25.4632982,2.52301754 C25.5552281,2.46687719 25.6625965,2.39670175 25.7875088,2.316 C27.4569825,1.23670175 31.8913684,-1.63277193 36.6317193,1.33003509 C42.461193,4.97284211 40.1552281,12.2114386 37.9264561,19.2128421 L37.7510175,19.7623158 C36.3089123,24.3054737 36.4310175,27.9854737 36.538386,31.2324912 C36.5882105,32.7061754 36.6352281,34.0998596 36.5257544,35.4282807 C36.2261053,39.1124912 34.0176842,40.6682807 32.0506667,40.8970526 C31.8604912,40.918807 31.6710175,40.9307368 31.4815439,40.9307368" id="Fill-4" fill="#FFFFFF"></path>
                            <path d="M31.4815439,40.9307368 C29.2948772,40.9307368 27.3047018,39.473193 26.6169825,37.2942456 C25.3966316,33.4275789 22.8541754,30.2809123 20.9369825,28.321614 C20.3875088,27.7630175 19.4099649,27.7609123 18.8590877,28.321614 C16.941193,30.2795088 14.3987368,33.4254737 13.1776842,37.2956491 C12.4317193,39.6605614 10.1425965,41.1749474 7.74610526,40.8970526 C5.77978947,40.6682807 3.57136842,39.113193 3.27031579,35.4282807 C3.16154386,34.1005614 3.20715789,32.7068772 3.25698246,31.2338947 C3.36505263,27.9868772 3.48645614,24.3061754 2.04294737,19.7623158 L1.86610526,19.2086316 C1.03031579,16.5840702 0.462596491,12.8395088 0.462596491,12.8395088 C0.462596491,12.8395088 5.79522807,13.9875789 9.43803509,11.7110877 C12.3145263,9.91319298 11.6099649,1.37915789 11.6099649,1.37915789 C11.6099649,1.37915789 13.3531228,1.89214035 14.0099649,2.31670175 C14.1327719,2.39740351 14.2415439,2.46687719 14.3306667,2.52301754 C14.4766316,2.6114386 14.6394386,2.71389474 14.8155789,2.82617544 C16.0064561,3.5805614 17.8015439,4.71810526 19.8962807,4.79319298 C21.9945263,4.71810526 23.789614,3.57915789 24.9804912,2.82547368 C25.1559298,2.71389474 25.3194386,2.6114386 25.4632982,2.52301754 C25.5552281,2.46687719 25.6625965,2.39670175 25.7875088,2.316 C27.4569825,1.23670175 31.8913684,-1.63277193 36.6317193,1.33003509 C42.461193,4.97284211 40.1552281,12.2114386 37.9264561,19.2128421 L37.7510175,19.7623158 C36.3089123,24.3054737 36.4310175,27.9854737 36.538386,31.2324912 C36.5882105,32.7061754 36.6352281,34.0998596 36.5257544,35.4282807 C36.2261053,39.1124912 34.0176842,40.6682807 32.0506667,40.8970526 C31.8604912,40.918807 31.6710175,40.9307368 31.4815439,40.9307368" id="Stroke-6" stroke="#000000" stroke-width="2.10526316" stroke-linecap="round" stroke-linejoin="round"></path>
                        </g>
                        <g id="Group-11" transform="translate(28.771930, 28.771930)">
                            <path d="M5.36449123,0.136421053 C5.36449123,3.85712281 3.80238596,7.44098246 0.369403509,7.57782456" id="Fill-8" fill="#FFFFFF"></path>
                            <path d="M5.36449123,0.136421053 C5.36449123,3.85712281 3.80238596,7.44098246 0.369403509,7.57782456" id="Stroke-10" stroke="#000000" stroke-width="1.75438596" stroke-linecap="round"></path>
                        </g>
                        <path d="M50.2232982,38.1874386 C49.5257544,38.1874386 48.9601404,37.6211228 48.9601404,36.9235789 L48.9601404,28.334807 C48.9601404,27.6372632 49.5257544,27.0709474 50.2232982,27.0709474 C50.9208421,27.0709474 51.4864561,27.6372632 51.4864561,28.334807 L51.4864561,36.9235789 C51.4864561,37.6211228 50.9208421,38.1874386 50.2232982,38.1874386" id="Fill-12" fill="#00CEA4"></path>
                        <path d="M54.5181053,33.8926316 L45.9286316,33.8926316 C45.2310877,33.8926316 44.6654737,33.3263158 44.6654737,32.6287719 C44.6654737,31.9312281 45.2310877,31.365614 45.9286316,31.365614 L54.5181053,31.365614 C55.2156491,31.365614 55.7812632,31.9312281 55.7812632,32.6287719 C55.7812632,33.3263158 55.2156491,33.8926316 54.5181053,33.8926316" id="Fill-14" fill="#00CEA4"></path>
                        <g id="Group-19" transform="translate(46.315789, 65.263158)">
                            <line x1="0.350105263" y1="0.845754386" x2="10.1669474" y2="0.845754386" id="Fill-16" fill="#FFFFFF"></line>
                            <line x1="0.350105263" y1="0.845754386" x2="10.1669474" y2="0.845754386" id="Stroke-18" stroke="#231F20" stroke-width="1.8245614" stroke-linecap="round"></line>
                        </g>
                    </g>
                </g>
            </g>
        </g>
    </g>
</svg>