<?xml version="1.0" encoding="UTF-8"?>
<svg width="80px" height="80px" viewBox="0 0 80 80" version="1.1" xmlns="http://www.w3.org/2000/svg" xmlns:xlink="http://www.w3.org/1999/xlink">
    <!-- Generator: Sketch 60 (88103) - https://sketch.com -->
    <title>Icon/Diagnostics</title>
    <desc>Created with Sketch.</desc>
    <defs>
        <polygon id="path-1" points="0 0.000140350877 80 0.000140350877 80 80 0 80"></polygon>
    </defs>
    <g id="Page-1" stroke="none" stroke-width="1" fill="none" fill-rule="evenodd">
        <g id="My-Policies---Desktop" transform="translate(-286.000000, -1197.000000)">
            <g id="Group-13-Copy-8" transform="translate(258.000000, 1176.000000)">
                <g id="Icon/Diagnostics" transform="translate(28.000000, 21.000000)">
                    <g id="Group-40">
                        <g id="Group-3">
                            <mask id="mask-2" fill="white">
                                <use xlink:href="#path-1"></use>
                            </mask>
                            <g id="Clip-2"></g>
                            <path d="M80,40.0001404 C80,62.0913684 62.0912281,80.0001404 40,80.0001404 C17.9087719,80.0001404 0,62.0913684 0,40.0001404 C0,17.9089123 17.9087719,0.000140350877 40,0.000140350877 C62.0912281,0.000140350877 80,17.9089123 80,40.0001404" id="Fill-1" fill="#BFF3E8" mask="url(#mask-2)"></path>
                        </g>
                        <path d="M39.1515789,65.8115088 C38.6477193,65.8115088 38.2392982,65.4030877 38.2392982,64.8992281 L38.2392982,60.8248421 C38.2392982,60.5757193 38.3410526,60.3378246 38.52,60.1658947 C38.6905263,60.0030877 38.9164912,59.9125614 39.1515789,59.9125614 C39.1642105,59.9125614 39.1768421,59.9125614 39.1894737,59.9132632 C39.4582456,59.9237895 39.7277193,59.9322105 39.9992982,59.9322105 C40.2722807,59.9322105 40.5410526,59.9244912 40.8105263,59.9139649 C40.8231579,59.9132632 40.8357895,59.9132632 40.8484211,59.9132632 C41.0835088,59.9132632 41.3094737,60.0037895 41.48,60.1665965 C41.6589474,60.3385263 41.7607018,60.5764211 41.7607018,60.8255439 L41.7607018,64.8992281 C41.7607018,65.4030877 41.3522807,65.8115088 40.8484211,65.8115088 L39.1515789,65.8115088 Z" id="Fill-4" fill="#FFFFFF"></path>
                        <path d="M39.1509474,59.0002807 C38.6814737,59.0002807 38.2288421,59.1820351 37.8877895,59.5083509 C37.529193,59.8522105 37.326386,60.328 37.326386,60.8248421 L37.326386,64.8992281 C37.326386,65.9076491 38.1432281,66.7244912 39.1509474,66.7244912 L40.849193,66.7244912 C41.3327018,66.7244912 41.7972632,66.5315088 42.1390175,66.1897544 C42.4814737,65.8472982 42.6737544,65.3834386 42.6737544,64.8992281 L42.6737544,60.8255439 C42.6737544,60.3287018 42.4702456,59.8529123 42.1116491,59.5090526 C41.7712982,59.1820351 41.3179649,59.0009825 40.8484912,59.0009825 C40.8232281,59.0009825 40.7986667,59.0016842 40.7734035,59.002386 C40.5158596,59.013614 40.2583158,59.0199298 39.9993684,59.0199298 C39.7411228,59.0199298 39.4835789,59.0129123 39.2260351,59.0016842 C39.2014737,59.0009825 39.1762105,59.0002807 39.1509474,59.0002807 M39.1509474,60.8248421 C39.4330526,60.8360702 39.7158596,60.8444912 39.9993684,60.8444912 C40.2842807,60.8444912 40.5670877,60.8367719 40.8484912,60.8255439 L40.849193,64.8992281 L39.1509474,64.8992281 L39.1509474,60.8248421" id="Fill-6" fill="#000000"></path>
                        <path d="M28.6725614,68.1381053 C28.1687018,68.1381053 27.7602807,67.7296842 27.7602807,67.2258246 L27.7602807,67.0384561 C27.7602807,66.2089825 28.0978246,64.2812632 31.2185263,64.2812632 L37.9406316,64.2812632 L37.9406316,59.1465263 C37.9406316,58.6433684 38.3490526,58.2349474 38.8529123,58.2349474 L41.1539649,58.2349474 C41.6578246,58.2349474 42.0662456,58.6433684 42.0662456,59.1465263 L42.0662456,64.2812632 L48.7806316,64.2812632 C51.9020351,64.2812632 52.2388772,66.2089825 52.2388772,67.0384561 L52.2388772,67.2258246 C52.2388772,67.7296842 51.8304561,68.1381053 51.3265965,68.1381053 L28.6725614,68.1381053 Z" id="Fill-8" fill="#FFFFFF"></path>
                        <path d="M41.1540351,57.3225965 L38.8529825,57.3225965 C37.8445614,57.3225965 37.0277193,58.1394386 37.0277193,59.1471579 L37.0277193,63.3689123 L36.8691228,63.3689123 L31.2185965,63.3689123 C27.9954386,63.3689123 26.8473684,65.2643509 26.8473684,67.038386 L26.8473684,67.2257544 C26.8473684,68.2341754 27.6642105,69.0510175 28.6726316,69.0510175 L51.3266667,69.0510175 C52.3350877,69.0510175 53.1519298,68.2341754 53.1519298,67.2257544 L53.1519298,67.038386 C53.1519298,65.2643509 52.0031579,63.3689123 48.7821053,63.3689123 L42.9792982,63.3689123 L42.9792982,59.1471579 C42.9792982,58.1394386 42.1624561,57.3225965 41.1540351,57.3225965 M41.1540351,59.1471579 L41.1540351,65.1934737 L48.7807018,65.1934737 L48.7821053,65.1934737 C50.185614,65.1934737 51.3266667,65.6348772 51.3266667,67.038386 L51.3266667,67.2257544 L28.6726316,67.2257544 L28.6726316,67.038386 C28.6726316,65.6341754 29.8150877,65.1934737 31.2185965,65.1934737 C31.2185965,65.1934737 34.6066667,65.1941754 36.8691228,65.1941754 C37.9996491,65.1941754 38.8494737,65.1941754 38.8529825,65.1934737 L38.8529825,59.1471579 L41.1540351,59.1471579" id="Fill-10" fill="#000000"></path>
                        <path d="M24.3578947,51.5913684 L28.0968421,51.3324211 C28.0968421,51.3324211 34.3108772,57.2250526 42.5964912,55.246807 C50.882807,53.2685614 57.0877193,47.2131228 54.5936842,33.6229474 L51.9649123,29.6945263 L53.7712281,27.8889123 C53.7712281,27.8889123 60.9712281,35.1247018 57.9838596,44.4117193 C57.9838596,44.4117193 55.0449123,58.4776842 41.5824561,59.0790877 C29.325614,59.6264561 24.3578947,51.5913684 24.3578947,51.5913684" id="Fill-12" fill="#FFFFFF"></path>
                        <path d="M58.4230877,43.5184561 C57.0539649,51.8370526 50.1655439,58.3212632 41.6560702,59.0721404 C41.630807,59.0735439 41.6069474,59.0756491 41.582386,59.0791579 C41.0602807,59.1226667 40.5332632,59.1472281 39.9992281,59.1472281 C39.4602807,59.1472281 38.9234386,59.1205614 38.3915088,59.0756491 C38.3894035,59.0749474 38.385193,59.0749474 38.382386,59.0749474 C32.6574737,58.5802105 27.4827368,55.4784561 24.3578246,50.6602105 L28.2153684,50.6602105 C30.2750175,53.1844211 32.2757193,54.2847719 35.2967719,55.2033684" id="Stroke-14" stroke="#000000" stroke-width="1.75438596" stroke-linecap="round" stroke-linejoin="round"></path>
                        <path d="M58.6718596,38.7939649 C58.4234386,34.4016842 55.4437895,29.7694035 53.0697544,27.1869474 L50.5609825,29.6943158 C53.2501053,32.6578246 55.4234386,36.453614 55.4234386,40.4753684 C55.4234386,49.3665965 48.8915088,55.8992281 39.9995789,55.8992281" id="Stroke-16" stroke="#000000" stroke-width="1.75438596" stroke-linecap="round" stroke-linejoin="round"></path>
                        <path d="M19.6305965,50.5757895 C18.8979649,50.5757895 18.2902456,50.2508772 17.9625263,49.6838596 C17.6565614,49.1540351 17.6579649,48.4922807 17.9674386,47.9582456 C18.2937544,47.3926316 18.9155088,47.054386 19.6305965,47.054386 L36.6046316,47.054386 C37.6495439,47.054386 38.4362105,47.8059649 38.4362105,48.8031579 C38.4362105,49.8136842 37.6495439,50.5757895 36.6053333,50.5757895 C36.6053333,50.5757895 27.9512982,50.5764912 27.9442807,50.5764912 C27.9358596,50.5764912 19.6305965,50.5757895 19.6305965,50.5757895" id="Fill-18" fill="#FFFFFF"></path>
                        <path d="M36.6042807,46.1418246 L19.6309474,46.1418246 C18.0555088,46.1418246 16.8225263,47.3221754 16.8225263,48.8274386 C16.8225263,50.3439298 18.0288421,51.4884912 19.6309474,51.4884912 L22.8604211,51.4884912 L27.9242807,51.4884912 L27.9432281,51.4884912 L27.9635789,51.4884912 L36.6042807,51.4884912 C37.6127018,51.4884912 38.5039298,50.9881404 38.9874386,50.1502456 C39.4674386,49.3207719 39.4688421,48.2934035 38.9930526,47.4702456 C38.5137544,46.6386667 37.6204211,46.1418246 36.6042807,46.1418246 M36.6042807,47.9670877 C37.8541053,47.9670877 37.8049825,49.6646316 36.6042807,49.6646316 L27.9488421,49.6646316 L27.9432281,49.6646316 L27.9411228,49.6646316 L22.8667368,49.6646316 L22.8604211,49.6646316 L19.6309474,49.6646316 C18.2941053,49.6646316 18.3439298,47.9670877 19.6309474,47.9670877 L36.6042807,47.9670877" id="Fill-20" fill="#000000"></path>
                        <path d="M56.4110877,22.2664561 C56.4047719,22.2601404 56.3970526,22.2545263 56.3914386,22.2482105 C56.3844211,22.241193 56.378807,22.2341754 56.3717895,22.2271579 L53.0475789,18.9029474 C53.0412632,18.8966316 53.0342456,18.8910175 53.0279298,18.8847018 C53.021614,18.878386 53.0152982,18.8706667 53.0089825,18.8636491 L51.7086316,17.564 L34.9500351,34.3218947 L40.1233684,39.4959298 L56.8896842,22.7450526 L56.4110877,22.2664561 Z" id="Fill-22" fill="#FFFFFF"></path>
                        <path d="M56.4110877,22.2664561 C56.4047719,22.2601404 56.3970526,22.2545263 56.3914386,22.2482105 C56.3844211,22.241193 56.378807,22.2341754 56.3717895,22.2271579 L53.0475789,18.9029474 C53.0412632,18.8966316 53.0342456,18.8910175 53.0279298,18.8847018 C53.021614,18.878386 53.0152982,18.8706667 53.0089825,18.8636491 L51.7086316,17.564 L34.9500351,34.3218947 L40.1233684,39.4959298 L56.8896842,22.7450526 L56.4110877,22.2664561 Z" id="Stroke-24" stroke="#000000" stroke-width="2.10807018" stroke-linecap="round" stroke-linejoin="round"></path>
                        <path d="M56.5077193,20.9842105 C56.2284211,20.9842105 55.9603509,20.8733333 55.7624561,20.6761404 L53.785614,18.6978947 C53.3736842,18.2866667 53.3736842,17.6207018 53.7842105,17.2087719 L55.5077193,15.4803509 C55.7049123,15.2824561 55.9736842,15.1708772 56.2536842,15.1708772 L56.254386,15.1708772 C56.5336842,15.1708772 56.8017544,15.2817544 56.9996491,15.4796491 L58.9757895,17.4564912 C59.3870175,17.8670175 59.3877193,18.5336842 58.977193,18.945614 L57.2536842,20.6747368 C57.0564912,20.8726316 56.7884211,20.9842105 56.5084211,20.9842105 L56.5077193,20.9842105 Z" id="Fill-26" fill="#FFFFFF"></path>
                        <path d="M56.2541053,14.1167719 L56.2527018,14.1167719 C55.6927018,14.1174737 55.1565614,14.3399298 54.7607719,14.7364211 L53.0379649,16.4655439 C52.2169123,17.2894035 52.2183158,18.6213333 53.0407719,19.4437895 L55.0169123,21.4206316 C55.4127018,21.8164211 55.9488421,22.0381754 56.5074386,22.0381754 L56.5095439,22.0381754 C57.0688421,22.0374737 57.606386,21.8150175 58.0007719,21.4178246 L59.7235789,19.6887018 C60.5439298,18.8662456 60.5425263,17.5329123 59.7207719,16.7111579 L57.7446316,14.7343158 C57.3502456,14.3385263 56.8134035,14.1167719 56.2541053,14.1167719 M56.2541053,16.2248421 L58.2295439,18.2009825 L56.5074386,19.9301053 L54.5305965,17.9532632 L56.2541053,16.2248421" id="Fill-28" fill="#000000"></path>
                        <line x1="39.1515789" y1="31.3392281" x2="43.5810526" y2="35.7687018" id="Stroke-30" stroke="#000000" stroke-width="1.8245614" stroke-linecap="round" stroke-linejoin="round"></line>
                        <path d="M20.7182456,35.725193 C20.0417544,35.725193 19.4936842,35.1771228 19.4936842,34.5006316 L19.4936842,26.1743158 C19.4936842,25.4985263 20.0417544,24.9504561 20.7182456,24.9504561 C21.3947368,24.9504561 21.942807,25.4985263 21.942807,26.1743158 L21.942807,34.5006316 C21.942807,35.1771228 21.3947368,35.725193 20.7182456,35.725193" id="Fill-32" fill="#00CEA4"></path>
                        <path d="M24.8814737,31.5619649 L16.5551579,31.5619649 C15.8786667,31.5619649 15.3305965,31.0138947 15.3305965,30.3374035 C15.3305965,29.661614 15.8786667,29.1135439 16.5551579,29.1135439 L24.8814737,29.1135439 C25.5579649,29.1135439 26.1060351,29.661614 26.1060351,30.3374035 C26.1060351,31.0138947 25.5579649,31.5619649 24.8814737,31.5619649" id="Fill-34" fill="#00CEA4"></path>
                        <path d="M31.8208421,19.6204912 C31.3064561,19.6204912 30.889614,19.2036491 30.889614,18.6892632 L30.889614,12.3559298 C30.889614,11.8422456 31.3064561,11.4247018 31.8208421,11.4247018 C32.3352281,11.4247018 32.7520702,11.8422456 32.7520702,12.3559298 L32.7520702,18.6892632 C32.7520702,19.2036491 32.3352281,19.6204912 31.8208421,19.6204912" id="Fill-36" fill="#FFFFFF"></path>
                        <path d="M34.9870175,16.4543158 L28.6550877,16.4543158 C28.14,16.4543158 27.7231579,16.0367719 27.7231579,15.5230877 C27.7231579,15.008 28.14,14.5918596 28.6550877,14.5918596 L34.9870175,14.5918596 C35.5014035,14.5918596 35.9182456,15.008 35.9182456,15.5230877 C35.9182456,16.0367719 35.5014035,16.4543158 34.9870175,16.4543158" id="Fill-38" fill="#FFFFFF"></path>
                    </g>
                </g>
            </g>
        </g>
    </g>
</svg>