<?xml version="1.0" encoding="UTF-8"?>
<svg width="80px" height="80px" viewBox="0 0 80 80" version="1.1" xmlns="http://www.w3.org/2000/svg" xmlns:xlink="http://www.w3.org/1999/xlink">
    <!-- Generator: Sketch 60 (88103) - https://sketch.com -->
    <title>Icon/Gears</title>
    <desc>Created with Sketch.</desc>
    <g id="Page-1" stroke="none" stroke-width="1" fill="none" fill-rule="evenodd">
        <g id="Desktop" transform="translate(-750.000000, -407.000000)">
            <g id="My-account-settings" transform="translate(722.000000, 386.000000)">
                <g id="Icon/Gears" transform="translate(28.000000, 21.000000)">
                    <g id="Group-19">
                        <path d="M80,40 C80,62.0912281 62.0912281,80 40,80 C17.9094737,80 0,62.0912281 0,40 C0,17.9087719 17.9094737,0 40,0 C62.0912281,0 80,17.9087719 80,40" id="Fill-1" fill="#BFF3E8"></path>
                        <path d="M38.8567018,36.2204211 C36.381614,38.9579649 32.1640702,39.1881404 29.4138947,36.7123509 C26.6749474,34.2379649 26.4567018,30.0204211 28.9205614,27.2702456 C31.3956491,24.5312982 35.613193,24.3018246 38.3633684,26.7769123 C41.1023158,29.2527018 41.3310877,33.4695439 38.8567018,36.2204211 M52.458807,32.4379649 L52.2868772,29.1151579 C52.2524912,28.4386667 51.6791579,27.9235789 51.0033684,27.9579649 L48.2419649,28.1060351 C47.7717895,26.2498947 46.9465263,24.4744561 45.7549474,22.8807719 L47.6110877,20.8295439 C48.0581053,20.3256842 48.0237193,19.5579649 47.5198596,19.1109474 L45.0440702,16.8877895 C44.5409123,16.4400702 43.7724912,16.4751579 43.3254737,16.9797193 L41.4693333,19.0309474 C39.7619649,18.0105965 37.9163509,17.369193 36.0145965,17.0941053 L35.8651228,14.3327018 C35.8307368,13.6674386 35.2581053,13.1516491 34.581614,13.1867368 L31.258807,13.3579649 C30.5823158,13.3930526 30.0665263,13.9656842 30.1009123,14.6414737 L30.2496842,17.4035789 C28.3935439,17.8730526 26.6181053,18.6983158 25.0244211,19.8898947 L22.9851228,18.0337544 C22.4805614,17.5867368 21.7128421,17.6211228 21.2665263,18.1256842 L19.0314386,20.6000702 C18.5844211,21.1053333 18.618807,21.8730526 19.1226667,22.3186667 L21.1745965,24.1762105 C20.1542456,25.8842807 19.5128421,27.7277895 19.2377544,29.6309474 L16.4756491,29.7684912 C15.7998596,29.8021754 15.2833684,30.3755088 15.3184561,31.052 L15.501614,34.374807 C15.5367018,35.0512982 16.1093333,35.566386 16.7851228,35.5327018 L19.5465263,35.3839298 C20.0167018,37.2393684 20.8419649,39.0155088 22.0335439,40.609193 L20.1774035,42.6604211 C19.730386,43.1649825 19.7647719,43.932 20.2693333,44.3790175 L22.7444211,46.6028772 C23.2482807,47.049193 24.0167018,47.014807 24.4630175,46.5109474 L26.3198596,44.4590175 C28.0265263,45.4793684 29.8714386,46.1207719 31.7738947,46.3958596 L31.9233684,49.1579649 C31.9577544,49.8337544 32.530386,50.3502456 33.2068772,50.3151579 L36.530386,50.1432281 C37.2061754,50.1088421 37.7219649,49.5362105 37.6875789,48.8597193 L37.5381053,46.097614 C39.3949474,45.6281404 41.1710877,44.8028772 42.7633684,43.6112982 L44.8152982,45.4681404 C45.3191579,45.9144561 46.0875789,45.8800702 46.5338947,45.3762105 L48.7570526,42.9011228 C49.2040702,42.3965614 49.1696842,41.6288421 48.6665263,41.1818246 L46.6026667,39.3256842 C47.6230175,37.617614 48.2644211,35.7727018 48.5395088,33.8702456 L51.3009123,33.7214737 C51.9774035,33.6877895 52.493193,33.1144561 52.458807,32.4379649" id="Fill-5" fill="#FFFFFF"></path>
                        <g id="Group-10" transform="translate(22.456140, 65.964912)">
                            <line x1="0.635789474" y1="0.495368421" x2="8.34736842" y2="0.495368421" id="Fill-7" fill="#FFFFFF"></line>
                            <line x1="0.635789474" y1="0.495368421" x2="8.34736842" y2="0.495368421" id="Stroke-9" stroke="#000000" stroke-width="2.10526316" stroke-linecap="round"></line>
                        </g>
                        <path d="M50.204,60.9209123 C49.3331228,63.0521404 46.9036491,64.0605614 44.7724211,63.1896842 C42.641193,62.318807 41.6320702,59.8886316 42.5029474,57.7574035 C43.3738246,55.6261754 45.8032982,54.6184561 47.9352281,55.4886316 C50.0545263,56.3595088 51.0748772,58.7889825 50.204,60.9209123 M56.9997895,61.7686316 L55.4061053,61.1152982 C55.6475088,59.9012632 55.6355789,58.6858246 55.3948772,57.5167018 L56.9878596,56.8521404 C57.3780351,56.6921404 57.561193,56.2451228 57.4004912,55.8549474 L56.5976842,53.9419649 C56.438386,53.5524912 55.9906667,53.3686316 55.601193,53.5293333 L54.0089123,54.1938947 C53.3443509,53.2086316 52.484,52.3377544 51.4531228,51.6500351 L52.1064561,50.0570526 C52.2664561,49.6675789 52.0832982,49.2198596 51.6938246,49.0605614 L49.7801404,48.2696842 C49.3899649,48.1089825 48.9436491,48.2928421 48.7829474,48.6823158 L48.1303158,50.2745965 C46.9148772,50.0338947 45.7001404,50.0458246 44.5317193,50.2865263 L43.8671579,48.6928421 C43.7057544,48.3040702 43.2594386,48.1202105 42.8699649,48.2802105 L40.9555789,49.0830175 C40.566807,49.2430175 40.3829474,49.6900351 40.5436491,50.0802105 L41.2089123,51.6724912 C40.2222456,52.3377544 39.3513684,53.1967018 38.6643509,54.2282807 L37.0706667,53.5749474 C36.681193,53.4149474 36.2348772,53.5981053 36.0741754,53.9875789 L35.2832982,55.9012632 C35.1232982,56.2907368 35.3064561,56.7377544 35.6959298,56.8984561 L37.289614,57.5510877 C37.0489123,58.7665263 37.0601404,59.9805614 37.3001404,61.1496842 L35.7078596,61.8142456 C35.3176842,61.9749474 35.1338246,62.4219649 35.2952281,62.8114386 L36.0973333,64.7251228 C36.2573333,65.1152982 36.7050526,65.2977544 37.0938246,65.1377544 L38.686807,64.473193 C39.3513684,65.4591579 40.2117193,66.3293333 41.2418947,67.0177544 L40.5892632,68.6100351 C40.4285614,69.0002105 40.6124211,69.4465263 41.0018947,69.6065263 L42.9155789,70.3974035 C43.3057544,70.5581053 43.7520702,70.3749474 43.9127719,69.9847719 L44.5654035,68.3917895 C45.7801404,68.633193 46.9955789,68.6219649 48.164,68.3805614 L48.8285614,69.9735439 C48.9899649,70.3630175 49.4355789,70.5468772 49.8257544,70.3861754 L51.7394386,69.5840702 C52.1289123,69.4240702 52.3127719,68.9763509 52.1513684,68.5875789 L51.486807,66.9938947 C52.484,66.3293333 53.3555789,65.4591579 54.0313684,64.438807 L55.6250526,65.0914386 C56.0138246,65.2528421 56.4608421,65.0689825 56.6215439,64.678807 L57.4117193,62.7658246 C57.5724211,62.3756491 57.3892632,61.9293333 56.9997895,61.7686316" id="Fill-11" fill="#00CEA4"></path>
                        <path d="M63.1303158,47.1695439 C61.8587368,48.4411228 59.7836491,48.4411228 58.5120702,47.1695439 C57.2397895,45.8972632 57.2397895,43.8221754 58.5120702,42.5512982 C59.7836491,41.2790175 61.8587368,41.2790175 63.1303158,42.5512982 C64.4018947,43.8221754 64.4018947,45.8972632 63.1303158,47.1695439 M69.2727719,43.4565614 L67.9204912,43.4565614 C67.7366316,42.5393684 67.3822456,41.6460351 66.8432982,40.8432281 L67.7941754,39.8923509 C68.0236491,39.6635789 68.0236491,39.2853333 67.7941754,39.0446316 L66.6482105,37.8979649 C66.4194386,37.669193 66.0404912,37.669193 65.8004912,37.8979649 L64.8489123,38.8495439 C64.046807,38.3105965 63.1534737,37.9442807 62.2369825,37.7723509 L62.2369825,36.4200702 C62.2369825,36.0874386 61.9731228,35.8242807 61.641193,35.8242807 L60.0131228,35.8242807 C59.681193,35.8242807 59.4173333,36.0874386 59.4173333,36.4200702 L59.4173333,37.7723509 C58.5001404,37.9562105 57.606807,38.3105965 56.8047018,38.8495439 L55.8538246,37.8979649 C55.6250526,37.669193 55.246807,37.669193 55.0061053,37.8979649 L53.8594386,39.0446316 C53.6306667,39.2734035 53.6306667,39.6516491 53.8594386,39.8923509 L54.8110175,40.8432281 C54.2720702,41.6460351 53.9050526,42.5393684 53.7331228,43.4565614 L52.3815439,43.4565614 C52.0489123,43.4565614 51.7857544,43.7197193 51.7857544,44.0523509 L51.7857544,45.6797193 C51.7857544,46.0123509 52.0489123,46.2755088 52.3815439,46.2755088 L53.7331228,46.2755088 C53.9169825,47.192 54.2720702,48.0860351 54.8110175,48.8881404 L53.8594386,49.8390175 C53.6306667,50.0684912 53.6306667,50.4467368 53.8594386,50.6874386 L55.0061053,51.8334035 C55.2341754,52.0621754 55.6124211,52.0621754 55.8538246,51.8334035 L56.8047018,50.8818246 C57.606807,51.4214737 58.5001404,51.7870877 59.4173333,51.9590175 L59.4173333,53.3112982 C59.4173333,53.6446316 59.681193,53.9077895 60.0131228,53.9077895 L61.641193,53.9077895 C61.9731228,53.9077895 62.2369825,53.6446316 62.2369825,53.3112982 L62.2369825,51.9590175 C63.1534737,51.7751579 64.046807,51.4214737 64.8489123,50.8818246 L65.8004912,51.8334035 C66.0292632,52.0621754 66.4075088,52.0621754 66.6482105,51.8334035 L67.7941754,50.6874386 C68.0236491,50.4579649 68.0236491,50.0797193 67.7941754,49.8390175 L66.8432982,48.8881404 C67.3822456,48.0860351 67.7485614,47.192 67.9204912,46.2755088 L69.2727719,46.2755088 C69.6054035,46.2755088 69.8685614,46.0123509 69.8685614,45.6797193 L69.8685614,44.0523509 C69.8685614,43.7197193 69.6054035,43.4565614 69.2727719,43.4565614" id="Fill-13" fill="#231F20"></path>
                        <path d="M52.4586667,32.4381754 L52.2867368,29.1153684 C52.2523509,28.4388772 51.6797193,27.9230877 51.0032281,27.9574737 L48.2418246,28.1062456 C47.7716491,26.2501053 46.9470877,24.4739649 45.754807,22.8809825 L47.6109474,20.8297544 C48.0579649,20.325193 48.0242807,19.5581754 47.5197193,19.1111579 L45.0446316,16.888 C44.5407719,16.4402807 43.7723509,16.4753684 43.3253333,16.9799298 L41.469193,19.0311579 C39.7618246,18.0101053 37.9162105,17.3687018 36.0144561,17.0943158 L35.8649825,14.3322105 C35.8312982,13.6676491 35.2579649,13.1518596 34.5814737,13.1862456 L31.2586667,13.3581754 C30.5821754,13.3925614 30.066386,13.9658947 30.1014737,14.6416842 L30.2502456,17.4030877 C28.3934035,17.8732632 26.6179649,18.6985263 25.0242807,19.8901053 L22.9849825,18.0339649 C22.4804211,17.5869474 21.7127018,17.6213333 21.266386,18.125193 L19.0312982,20.6002807 C18.5842807,21.1055439 18.6186667,21.8725614 19.1225263,22.3188772 L21.1744561,24.1764211 C20.1541053,25.8837895 19.5127018,27.728 19.237614,29.6311579 L16.4762105,29.768 C15.7997193,29.802386 15.2832281,30.3757193 15.3183158,31.0515088 L15.5014737,34.3750175 C15.5365614,35.0515088 16.109193,35.5665965 16.7849825,35.5322105 L19.5470877,35.3834386 C20.0172632,37.2395789 20.8418246,39.0157193 22.0341053,40.6094035 L20.1772632,42.6599298 C19.7302456,43.1644912 19.7646316,43.9322105 20.269193,44.3792281 L22.7442807,46.6030877 C23.2481404,47.0487018 24.0165614,47.0143158 24.4628772,46.5111579 L26.3197193,44.4592281 C28.0270877,45.4795789 29.8712982,46.1209825 31.7737544,46.3960702 L31.9232281,49.1574737 C31.957614,49.8339649 32.5309474,50.3497544 33.2067368,50.3153684 L36.5302456,50.1427368 C37.2067368,50.1090526 37.7218246,49.5357193 37.6874386,48.8592281 L37.5379649,46.0978246 C39.394807,45.6283509 41.1709474,44.8030877 42.7639298,43.6115088 L44.8151579,45.4676491 C45.3190175,45.9146667 46.0874386,45.8795789 46.5344561,45.3764211 L48.757614,42.9006316 C49.2039298,42.3960702 49.1695439,41.6290526 48.666386,41.1820351 L46.6025263,39.325193 C47.6228772,37.6178246 48.2642807,35.7729123 48.5393684,33.8704561 L51.3014737,33.7216842 C51.9772632,33.6872982 52.4930526,33.1146667 52.4586667,32.4381754 Z" id="Stroke-15" stroke="#231F20" stroke-width="2.10526316" stroke-linecap="round"></path>
                        <path d="M38.3632982,26.7768421 C41.1022456,29.2526316 41.3310175,33.4694737 38.8566316,36.2203509 C36.3815439,38.9578947 32.164,39.1880702 29.4138246,36.7122807 C26.6748772,34.2378947 26.4566316,30.0203509 28.9204912,27.2701754 C30.158386,25.9003509 31.8313684,25.1578947 33.5387368,25.0680702" id="Stroke-17" stroke="#231F20" stroke-width="2.10526316" stroke-linecap="round"></path>
                    </g>
                </g>
            </g>
        </g>
    </g>
</svg>