<?xml version="1.0" encoding="UTF-8"?>
<svg width="80px" height="80px" viewBox="0 0 80 80" version="1.1" xmlns="http://www.w3.org/2000/svg" xmlns:xlink="http://www.w3.org/1999/xlink">
    <!-- Generator: Sketch 60 (88103) - https://sketch.com -->
    <title>Icon/GP</title>
    <desc>Created with Sketch.</desc>
    <defs>
        <polygon id="path-1" points="7.01754386e-05 0 80 0 80 79.9999298 7.01754386e-05 79.9999298"></polygon>
    </defs>
    <g id="Page-1" stroke="none" stroke-width="1" fill="none" fill-rule="evenodd">
        <g id="My-Policies---Desktop" transform="translate(-710.000000, -1197.000000)">
            <g id="Group-13-Copy-9" transform="translate(682.000000, 1176.000000)">
                <g id="Icon/GP" transform="translate(28.000000, 21.000000)">
                    <g id="Group-26">
                        <g id="Group-3">
                            <mask id="mask-2" fill="white">
                                <use xlink:href="#path-1"></use>
                            </mask>
                            <g id="Clip-2"></g>
                            <path d="M80.0000702,39.9999298 C80.0000702,62.0911579 62.0912982,79.9999298 40.0000702,79.9999298 C17.9088421,79.9999298 7.01754386e-05,62.0911579 7.01754386e-05,39.9999298 C7.01754386e-05,17.9087018 17.9088421,-7.01754386e-05 40.0000702,-7.01754386e-05 C62.0912982,-7.01754386e-05 80.0000702,17.9087018 80.0000702,39.9999298" id="Fill-1" fill="#BFF3E8" mask="url(#mask-2)"></path>
                        </g>
                        <path d="M54.8725614,31.4664561 C53.6290526,29.1247018 53.4957193,26.6552281 53.1939649,24.0594386 C52.9806316,22.2187368 52.6718596,20.364 51.9153684,18.6720702 C50.1953684,14.8285614 45.8922105,12.5436491 41.7848421,12.5436491 L41.7848421,40.1864561 L47.4985263,40.1864561 C47.5090526,39.5141754 47.6571228,38.8510175 47.9392281,38.2461053 L48.3911579,38.2461053 C54.2402807,39.2503158 59.3701053,34.6397895 59.3701053,34.6397895 C57.1694035,34.3759298 55.7799298,33.1745263 54.8725614,31.4664561" id="Fill-4" fill="#FFFFFF"></path>
                        <path d="M28.6972632,31.4664561 C29.9400702,29.1247018 30.0734035,26.6552281 30.3758596,24.0594386 C30.589193,22.2187368 30.8972632,20.364 31.6544561,18.6720702 C33.3737544,14.8285614 37.677614,12.5436491 41.7842807,12.5436491 L41.7842807,40.1864561 L36.0712982,40.1864561 C36.0607719,39.5141754 35.9127018,38.8510175 35.6305965,38.2461053 L35.1786667,38.2461053 C29.3295439,39.2503158 24.1990175,34.6397895 24.1990175,34.6397895 C26.4004211,34.3759298 27.7898947,33.1745263 28.6972632,31.4664561" id="Fill-6" fill="#00CEA4"></path>
                        <path d="M36.7832281,41.8722105 L36.7102456,42.5206316 C36.6800702,42.7915088 36.6056842,43.0483509 36.5109474,43.2960702 L41.6646316,47.2960702 L46.817614,43.2953684 C46.7228772,43.0476491 46.649193,42.790807 46.6190175,42.5199298 L46.5460351,41.8729123 C46.3453333,40.0813333 46.8351579,38.2813333 47.8898947,36.9318596 C48.929193,35.6034386 49.3888421,34.2588772 49.4772632,32.2904561 C49.4856842,31.068 49.3137544,29.2244912 48.977614,26.9458947 C46.9298947,26.9178246 44.9053333,26.0385263 43.4716491,24.5002807 C42.8709474,23.8546667 42.4105965,23.148 41.966386,22.4658947 C41.6779649,22.022386 41.4049825,21.6034386 41.1088421,21.2230877 C41.0983158,21.2104561 41.0646316,21.1655439 41.0541053,21.1522105 C40.3312982,20.2350175 39.0112982,19.9262456 37.8800702,20.4462456 C36.2309474,21.2020351 35.0527018,22.7543158 34.732,24.5957193 C34.1432281,27.9746667 33.8393684,30.6532632 33.8534035,32.3409825 C33.9404211,34.2588772 34.4000702,35.6034386 35.4393684,36.9318596 C36.4934035,38.2813333 36.9832281,40.0813333 36.7832281,41.8722105" id="Fill-8" fill="#FFFFFF"></path>
                        <g id="Group-13" transform="translate(18.245614, 65.263158)">
                            <line x1="0.350245614" y1="0.846315789" x2="29.1355088" y2="0.846315789" id="Fill-10" fill="#FFFFFF"></line>
                            <line x1="0.350245614" y1="0.846315789" x2="29.1355088" y2="0.846315789" id="Stroke-12" stroke="#000000" stroke-width="2.10526316" stroke-linecap="round"></line>
                        </g>
                        <path d="M58.4882807,47.0757193 C57.7338947,46.4560702 56.9689825,46.0476491 56.2784561,45.8960702 L48.4342456,43.8553684 L42.5156491,48.2743158 C42.298807,48.4357193 42.0412632,48.5171228 41.7844211,48.5171228 C41.5282807,48.5171228 41.2714386,48.4357193 41.0538947,48.2743158 L35.136,43.8560702 L27.3381053,45.8848421 C26.6005614,46.0476491 25.8363509,46.4560702 25.0791579,47.0785263 C23.8777544,48.070807 23.0419649,49.4588772 22.7268772,50.9887018 L20.4552982,62.8567719 L63.1149474,62.8567719 L60.8426667,50.9887018 C60.5275789,49.4588772 59.6924912,48.0701053 58.4882807,47.0757193" id="Fill-14" fill="#FFFFFF"></path>
                        <path d="M35.1789474,38.2133333 C29.3298246,39.2168421 24.1992982,34.6070175 24.1992982,34.6070175 C26.4,34.3424561 27.7901754,33.1403509 28.6975439,31.4329825 C29.9410526,29.0919298 30.074386,26.6217544 30.3754386,24.0266667 C30.5894737,22.1852632 30.8968421,20.3305263 31.6547368,18.6385965 C33.3747368,14.7950877 37.6778947,12.5101754 41.7845614,12.5101754 C45.8926316,12.5101754 50.1950877,14.7950877 51.9157895,18.6385965 C52.6729825,20.3305263 52.9803509,22.1852632 53.194386,24.0266667 C53.4961404,26.6217544 53.6287719,29.0919298 54.8722807,31.4329825 C55.7796491,33.1403509 57.1698246,34.3424561 59.3705263,34.6070175 C59.3705263,34.6070175 54.24,39.2168421 48.3908772,38.2133333" id="Stroke-16" stroke="#000000" stroke-width="2.10526316" stroke-linecap="round" stroke-linejoin="round"></path>
                        <polyline id="Stroke-18" stroke="#000000" stroke-width="2.10526316" stroke-linecap="round" stroke-linejoin="round" points="35.3077895 42.4602105 41.7842807 47.296 48.2621754 42.4602105"></polyline>
                        <path d="M43.7884211,62.4498947 L64.5070175,62.4498947 L62.0487719,50.7867368 C61.6845614,48.9705965 60.6978947,47.3179649 59.265614,46.1341053 C58.3512281,45.3825263 57.425614,44.897614 56.5392982,44.7032281 L48.6908772,42.6611228 C48.5385965,42.6162105 48.3933333,42.5488421 48.2621053,42.4604211 C47.8915789,42.2098947 47.6480702,41.8112982 47.5968421,41.3670877 L47.5287719,40.7888421 C47.3835088,39.5390175 47.7168421,38.2660351 48.5105263,37.289193 C49.7077193,35.817614 50.1666667,34.3453333 50.2557895,32.4309474 C50.2698246,30.7656842 49.9561404,28.4260351 49.6129825,26.3832281 L49.6157895,26.3046316 C47.7168421,26.6225263 45.6789474,25.9530526 44.3392982,24.5698947 C43.5147368,23.7200702 42.9624561,22.6456842 42.2178947,21.726386 C42.2101754,21.7165614 42.2024561,21.7074386 42.1947368,21.6983158 C41.1329825,20.4014737 39.3140351,20.0070877 37.78,20.6828772 C35.8796491,21.5207719 34.5189474,23.2449825 34.1491228,25.2877895 C33.7414035,27.537614 33.297193,30.457614 33.3140351,32.4309474 C33.4031579,34.3453333 33.8621053,35.817614 35.0592982,37.289193 C35.8522807,38.2660351 36.1863158,39.5390175 36.0410526,40.7888421 L35.9729825,41.3670877 C35.9217544,41.8112982 35.6782456,42.2098947 35.3077193,42.4604211 C35.1764912,42.5488421 35.0312281,42.6162105 34.8789474,42.6611228 L27.0305263,44.7032281 C26.1442105,44.897614 25.2185965,45.3825263 24.3035088,46.1341053 C22.8719298,47.3179649 21.8852632,48.9705965 21.5217544,50.7867368 L19.062807,62.4498947 L26.3645614,62.4498947" id="Stroke-20" stroke="#000000" stroke-width="2.10526316" stroke-linecap="round" stroke-linejoin="round"></path>
                        <path d="M35.1001404,58.8164211 C34.5864561,59.0367719 34.0734737,59.2087018 33.564,59.3301053 C33.0531228,59.4529123 32.5289123,59.5139649 31.9899649,59.5139649 C31.3373333,59.5139649 30.7387368,59.410807 30.1962807,59.202386 C29.6531228,58.9939649 29.1878596,58.6999298 28.7997895,58.3202807 C28.4131228,57.9406316 28.1106667,57.4922105 27.8938246,56.973614 C27.678386,56.4557193 27.5703158,55.8816842 27.5703158,55.253614 C27.5703158,54.6332632 27.6755789,54.0620351 27.8882105,53.5385263 C28.1001404,53.0164211 28.3962807,52.5658947 28.7759298,52.1862456 C29.1555789,51.8065965 29.6103158,51.5125614 30.1415439,51.3048421 C30.6713684,51.0964211 31.2552281,50.9925614 31.8924211,50.9925614 C32.3976842,50.9925614 32.9043509,51.0634386 33.4103158,51.2065965 C33.9162807,51.3490526 34.4264561,51.5595789 34.9408421,51.8374737 L34.3408421,52.9265965 C33.9324211,52.7146667 33.5450526,52.5469474 33.1780351,52.4248421 C32.8103158,52.3027368 32.4432982,52.2409825 32.0755789,52.2409825 C31.6425965,52.2409825 31.249614,52.3146667 30.8945263,52.4613333 C30.5394386,52.608 30.2327719,52.8164211 29.9759298,53.0858947 C29.718386,53.3553684 29.518386,53.6739649 29.3759298,54.0409825 C29.2334737,54.4087018 29.1618947,54.8122105 29.1618947,55.253614 C29.1618947,55.7020351 29.2334737,56.1104561 29.3759298,56.4774737 C29.518386,56.8444912 29.7204912,57.1616842 29.9822456,57.4269474 C30.2432982,57.6915088 30.5548772,57.8978246 30.918386,58.0444912 C31.2818947,58.1918596 31.6797895,58.2655439 32.1120702,58.2655439 C32.6271579,58.2655439 33.1204912,58.1630877 33.5941754,57.9588772 L33.5941754,56.0241404 L31.7450526,56.0241404 L31.7450526,54.8248421 L35.1001404,54.8248421 L35.1001404,58.8164211 Z" id="Fill-22" fill="#00CEA4"></path>
                        <path d="M37.9283509,55.3021754 L39.4834386,55.3021754 C39.9487018,55.3021754 40.3262456,55.1681404 40.6160702,54.8986667 C40.905193,54.6284912 41.0504561,54.277614 41.0504561,53.8453333 C41.0504561,53.4207719 40.905193,53.072 40.6160702,52.7983158 C40.3262456,52.5246316 39.9487018,52.3884912 39.4834386,52.3884912 L37.9283509,52.3884912 L37.9283509,55.3021754 Z M36.3613333,51.1386667 L39.7276491,51.1386667 C40.1522105,51.1386667 40.5444912,51.2067368 40.9030877,51.3407719 C41.262386,51.4762105 41.5725614,51.6621754 41.833614,51.8979649 C42.0946667,52.1351579 42.2974737,52.4214737 42.4406316,52.7555088 C42.5830877,53.0902456 42.6539649,53.4530526 42.6539649,53.8453333 C42.6539649,54.2453333 42.5830877,54.6109474 42.4406316,54.9407719 C42.2974737,55.2712982 42.0946667,55.557614 41.833614,55.7983158 C41.5725614,56.0390175 41.262386,56.226386 40.9030877,56.3618246 C40.5444912,56.4958596 40.1522105,56.5632281 39.7276491,56.5632281 L37.9283509,56.5632281 L37.9283509,59.3674386 L36.3613333,59.3674386 L36.3613333,51.1386667 Z" id="Fill-24" fill="#00CEA4"></path>
                    </g>
                </g>
            </g>
        </g>
    </g>
</svg>