<?xml version="1.0" encoding="UTF-8"?>
<svg width="80px" height="80px" viewBox="0 0 80 80" version="1.1" xmlns="http://www.w3.org/2000/svg" xmlns:xlink="http://www.w3.org/1999/xlink">
    <!-- Generator: Sketch 60 (88103) - https://sketch.com -->
    <title>Icon/Healthcare</title>
    <desc>Created with Sketch.</desc>
    <defs>
        <polygon id="path-1" points="0 0 79.9997895 0 79.9997895 79.9998596 0 79.9998596"></polygon>
    </defs>
    <g id="Page-1" stroke="none" stroke-width="1" fill="none" fill-rule="evenodd">
        <g id="Desktop" transform="translate(-366.000000, -255.000000)">
            <g id="My-polocies" transform="translate(338.000000, 234.000000)">
                <g id="Icon/Healthcare" transform="translate(28.000000, 21.000000)">
                    <g id="Group-36">
                        <g id="Group-3">
                            <mask id="mask-2" fill="white">
                                <use xlink:href="#path-1"></use>
                            </mask>
                            <g id="Clip-2"></g>
                            <path d="M79.9997895,39.9998596 C79.9997895,62.0910877 62.0910175,79.9998596 39.9997895,79.9998596 C17.9092632,79.9998596 -0.000210526316,62.0910877 -0.000210526316,39.9998596 C-0.000210526316,17.9086316 17.9092632,-0.000140350877 39.9997895,-0.000140350877 C62.0910175,-0.000140350877 79.9997895,17.9086316 79.9997895,39.9998596" id="Fill-1" fill="#BFF3E8" mask="url(#mask-2)"></path>
                        </g>
                        <path d="M47.6779649,16.2848421 L34.7979649,16.2848421 C31.5151579,16.2848421 28.8302456,18.9697544 28.8302456,22.2525614 L28.8302456,26.4420351 L33.0407719,26.4118596 L33.0407719,23.3241404 C33.0407719,21.7746667 34.3081404,20.5072982 35.857614,20.5072982 L37.1755088,20.5072982 L40.7600702,20.5072982 L46.2884912,20.5072982 C47.8379649,20.5072982 49.1053333,21.7746667 49.1053333,23.3241404 L49.1053333,26.2960702 L53.6456842,26.2637895 L53.6456842,22.2525614 C53.6456842,18.9697544 50.9600702,16.2848421 47.6779649,16.2848421" id="Fill-4" fill="#FFFFFF"></path>
                        <path d="M53.645614,26.2635789 L53.645614,22.2523509 C53.645614,18.9695439 50.96,16.2846316 47.6778947,16.2846316 L34.7978947,16.2846316 C31.5150877,16.2846316 28.8301754,18.9695439 28.8301754,22.2523509 L28.8301754,26.4418246" id="Stroke-6" stroke="#000000" stroke-width="2.10526316" stroke-linecap="round" stroke-linejoin="round"></path>
                        <path d="M33.0404912,26.4417544 L33.0404912,23.3245614 C33.0404912,21.7750877 34.3085614,20.5070175 35.8580351,20.5070175 L39.281193,20.5070175 L42.8650526,20.5070175 L46.2882105,20.5070175 C47.8376842,20.5070175 49.1057544,21.7750877 49.1057544,23.3245614 L49.1057544,26.4417544" id="Stroke-8" stroke="#000000" stroke-width="2.10526316" stroke-linecap="round" stroke-linejoin="round"></path>
                        <path d="M23.5010526,61.7830175 L58.4119298,61.7830175 C61.6940351,61.7830175 64.3796491,59.0974035 64.3796491,55.8152982 L64.3796491,33.1100351 C64.3796491,29.8279298 61.6940351,27.1423158 58.4119298,27.1423158 L23.5010526,27.1423158 C20.2182456,27.1423158 17.5333333,29.8279298 17.5333333,33.1100351 L17.5333333,55.8152982 C17.5333333,59.0974035 20.2182456,61.7830175 23.5010526,61.7830175" id="Fill-10" fill="#FFFFFF"></path>
                        <path d="M23.5010526,61.7830175 L58.4119298,61.7830175 C61.6940351,61.7830175 64.3796491,59.0974035 64.3796491,55.8152982 L64.3796491,33.1100351 C64.3796491,29.8279298 61.6940351,27.1423158 58.4119298,27.1423158 L23.5010526,27.1423158 C20.2182456,27.1423158 17.5333333,29.8279298 17.5333333,33.1100351 L17.5333333,55.8152982 C17.5333333,59.0974035 20.2182456,61.7830175 23.5010526,61.7830175 Z" id="Stroke-12" stroke="#FFFFFF" stroke-width="2.10526316"></path>
                        <path d="M32.6574035,61.7830175 L58.6447719,61.7830175 C61.9268772,61.7830175 64.6124912,59.0974035 64.6124912,55.8152982 L64.6124912,33.1100351 C64.6124912,29.8279298 61.9268772,27.1423158 58.6447719,27.1423158 L52.7556491,27.1423158" id="Stroke-14" stroke="#000000" stroke-width="2.10526316" stroke-linecap="round"></path>
                        <path d="M53.7100351,27.1421053 L23.7338947,27.1421053 C20.4517895,27.1421053 17.7661754,29.8277193 17.7661754,33.1098246 L17.7661754,55.8150877 C17.7661754,59.097193 20.4517895,61.782807 23.7338947,61.782807 L27.9233684,61.782807" id="Stroke-16" stroke="#000000" stroke-width="2.10526316" stroke-linecap="round"></path>
                        <line x1="13.3139649" y1="27.1421053" x2="31.3560702" y2="27.1421053" id="Stroke-18" stroke="#000000" stroke-width="2.10526316" stroke-linecap="round" stroke-linejoin="round"></line>
                        <line x1="7.30035088" y1="36.7645614" x2="27.7473684" y2="36.7645614" id="Stroke-20" stroke="#000000" stroke-width="2.10526316" stroke-linecap="round" stroke-linejoin="round"></line>
                        <g id="Group-25" transform="translate(18.245614, 65.263158)">
                            <line x1="0.284912281" y1="0.846245614" x2="23.4350877" y2="0.846245614" id="Fill-22" fill="#FFFFFF"></line>
                            <line x1="0.284912281" y1="0.846245614" x2="23.4350877" y2="0.846245614" id="Stroke-24" stroke="#231F20" stroke-width="2.10526316" stroke-linecap="round"></line>
                        </g>
                        <g id="Group-29" transform="translate(28.771930, 11.929825)">
                            <line x1="0.171157895" y1="0.846245614" x2="7.88203509" y2="0.846245614" id="Fill-26" fill="#FFFFFF"></line>
                            <line x1="0.171157895" y1="0.846245614" x2="7.88203509" y2="0.846245614" id="Stroke-28" stroke="#000000" stroke-width="2.10526316" stroke-linecap="round" stroke-linejoin="round"></line>
                        </g>
                        <path d="M55.0758596,31.3526316 L57.929193,31.3526316 C59.3404211,31.3526316 60.4955088,32.5077193 60.4955088,33.9182456 L60.4955088,37.3645614" id="Stroke-30" stroke="#000000" stroke-width="2.10526316" stroke-linecap="round"></path>
                        <line x1="33.7360702" y1="44.4324211" x2="48.4090526" y2="44.4324211" id="Stroke-32" stroke="#00CEA4" stroke-width="4.21052632" stroke-linecap="round"></line>
                        <line x1="41.0729825" y1="51.7686316" x2="41.0729825" y2="37.0956491" id="Stroke-34" stroke="#00CEA4" stroke-width="4.21052632" stroke-linecap="round"></line>
                    </g>
                </g>
            </g>
        </g>
    </g>
</svg>