<?xml version="1.0" encoding="UTF-8"?>
<svg width="80px" height="80px" viewBox="0 0 80 80" version="1.1" xmlns="http://www.w3.org/2000/svg" xmlns:xlink="http://www.w3.org/1999/xlink">
    <!-- Generator: Sketch 60 (88103) - https://sketch.com -->
    <title>Icon/Information book</title>
    <desc>Created with Sketch.</desc>
    <defs>
        <polygon id="path-1" points="0 0.000140350877 79.9999298 0.000140350877 79.9999298 80 0 80"></polygon>
    </defs>
    <g id="Page-1" stroke="none" stroke-width="1" fill="none" fill-rule="evenodd">
        <g id="Desktop" transform="translate(-750.000000, -559.000000)">
            <g id="My-entitlements-Copy-2" transform="translate(722.000000, 538.000000)">
                <g id="Icon/Information-book" transform="translate(28.000000, 21.000000)">
                    <g id="Group-30">
                        <g id="Group-3">
                            <mask id="mask-2" fill="white">
                                <use xlink:href="#path-1"></use>
                            </mask>
                            <g id="Clip-2"></g>
                            <path d="M79.9999298,40.0001404 C79.9999298,62.0913684 62.0911579,80.0001404 39.9999298,80.0001404 C17.9087018,80.0001404 -7.01754386e-05,62.0913684 -7.01754386e-05,40.0001404 C-7.01754386e-05,17.9089123 17.9087018,0.000140350877 39.9999298,0.000140350877 C62.0911579,0.000140350877 79.9999298,17.9089123 79.9999298,40.0001404" id="Fill-1" fill="#BFF3E8" mask="url(#mask-2)"></path>
                        </g>
                        <path d="M23.2743158,67.2736842 L47.3227368,67.2736842 L23.2743158,67.2736842 Z" id="Fill-4" fill="#FFFFFF"></path>
                        <line x1="23.2743158" y1="67.2739649" x2="47.3234386" y2="67.2739649" id="Stroke-5" stroke="#231F20" stroke-width="1.94175439" stroke-linecap="round"></line>
                        <path d="M51.0821053,13.3545263 L59.0933333,13.3545263 L51.0821053,13.3545263 Z" id="Fill-6" fill="#FFFFFF"></path>
                        <line x1="51.0820351" y1="13.3546667" x2="59.0932632" y2="13.3546667" id="Stroke-7" stroke="#000000" stroke-width="1.94175439" stroke-linecap="round" stroke-linejoin="round"></line>
                        <polygon id="Fill-8" fill="#FFFFFF" points="22.5424561 63.2336842 59.2063158 63.2336842 59.2063158 16.3677193 22.5424561 16.3677193"></polygon>
                        <g id="Group-29" transform="translate(21.052632, 15.438596)">
                            <path d="M37.3388772,41.0794386 L6.13326316,41.0794386 L6.13326316,7.05978947 L4.59922807,7.05978947 L4.59922807,41.0794386 L4.34238596,41.0794386 C3.47992982,41.0794386 2.68273684,41.3657544 2.04063158,41.8485614 L2.04063158,3.13838596 C2.04063158,2.33768421 2.68975439,1.6885614 3.49045614,1.6885614 L36.9606316,1.6885614 C37.1697544,1.6885614 37.3388772,1.85768421 37.3388772,2.06680702 L37.3388772,41.0794386 Z M37.3388772,45.6836491 L37.3388772,45.7425965 C37.3388772,46.5573333 36.6785263,47.2176842 35.8630877,47.2176842 L3.88694737,47.2176842 C3.45466667,47.2176842 3.028,47.0464561 2.75150877,46.7138246 C1.15361404,44.7952281 2.49817544,42.6141754 4.34238596,42.6141754 L35.9009825,42.6141754 C36.6953684,42.6141754 37.3388772,43.2576842 37.3388772,44.0513684 L37.3388772,44.1489123 L37.3388772,45.6836491 Z M3.49045614,0.154526316 C1.84203509,0.154526316 0.506596491,1.48996491 0.506596491,3.13838596 L0.506596491,45.7692632 C0.506596491,47.4162807 1.84203509,48.7531228 3.49045614,48.7531228 L37.2658947,48.7531228 C38.153614,48.7531228 38.873614,48.0331228 38.873614,47.1454035 L38.873614,41.0794386 L38.873614,1.89207018 C38.873614,0.932070175 38.0953684,0.154526316 37.1353684,0.154526316 L3.49045614,0.154526316 Z" id="Fill-9" fill="#231F20"></path>
                            <path d="M37.3388772,41.0794386 L6.13326316,41.0794386 L6.13326316,7.05978947 L4.59922807,7.05978947 L4.59922807,41.0794386 L4.34238596,41.0794386 C3.47992982,41.0794386 2.68273684,41.3657544 2.04063158,41.8485614 L2.04063158,3.13838596 C2.04063158,2.33768421 2.68975439,1.6885614 3.49045614,1.6885614 L36.9606316,1.6885614 C37.1697544,1.6885614 37.3388772,1.85768421 37.3388772,2.06680702 L37.3388772,41.0794386 Z M37.3388772,45.6836491 L37.3388772,45.7425965 C37.3388772,46.5573333 36.6785263,47.2176842 35.8630877,47.2176842 L3.88694737,47.2176842 C3.45466667,47.2176842 3.028,47.0464561 2.75150877,46.7138246 C1.15361404,44.7952281 2.49817544,42.6141754 4.34238596,42.6141754 L35.9009825,42.6141754 C36.6953684,42.6141754 37.3388772,43.2576842 37.3388772,44.0513684 L37.3388772,44.1489123 L37.3388772,45.6836491 Z M3.49045614,0.154526316 C1.84203509,0.154526316 0.506596491,1.48996491 0.506596491,3.13838596 L0.506596491,45.7692632 C0.506596491,47.4162807 1.84203509,48.7531228 3.49045614,48.7531228 L37.2658947,48.7531228 C38.153614,48.7531228 38.873614,48.0331228 38.873614,47.1454035 L38.873614,41.0794386 L38.873614,1.89207018 C38.873614,0.932070175 38.0953684,0.154526316 37.1353684,0.154526316 L3.49045614,0.154526316 Z" id="Stroke-11" stroke="#231F20" stroke-width="0.5"></path>
                            <path d="M21.2245614,5.60729825 C16.5466667,5.60729825 12.6954386,9.67607018 12.3045614,14.0557193 L15.9080702,14.0557193 C16.2814035,11.5687018 18.522807,9.65221053 21.2245614,9.65221053 C24.1866667,9.65221053 26.5957895,11.9567719 26.5957895,14.7897544 C26.5957895,17.6227368 24.1866667,19.3083509 21.2245614,19.3083509 L19.4336842,19.3083509 L19.4336842,27.2669474 L23.0154386,27.2669474 L23.0154386,23.1995789 L23.5803509,23.0522105 C27.4645614,22.0416842 30.1768421,18.6437895 30.1768421,14.7897544 C30.1768421,10.0676491 26.1607018,5.60729825 21.2245614,5.60729825" id="Fill-13" fill="#00CEA4"></path>
                            <path d="M21.2245614,5.60729825 C16.5466667,5.60729825 12.6954386,9.67607018 12.3045614,14.0557193 L15.9080702,14.0557193 C16.2814035,11.5687018 18.522807,9.65221053 21.2245614,9.65221053 C24.1866667,9.65221053 26.5957895,11.9567719 26.5957895,14.7897544 C26.5957895,17.6227368 24.1866667,19.3083509 21.2245614,19.3083509 L19.4336842,19.3083509 L19.4336842,27.2669474 L23.0154386,27.2669474 L23.0154386,23.1995789 L23.5803509,23.0522105 C27.4645614,22.0416842 30.1768421,18.6437895 30.1768421,14.7897544 C30.1768421,10.0676491 26.1607018,5.60729825 21.2245614,5.60729825 Z" id="Stroke-15" stroke="#00CEA4" stroke-width="0.5"></path>
                            <path d="M21.4075088,31.2384561 C19.7548772,31.2384561 18.4103158,32.5423158 18.4103158,34.1465263 C18.4103158,35.7493333 19.7548772,37.053193 21.4075088,37.053193 C23.0594386,37.053193 24.404,35.7493333 24.404,34.1465263 C24.404,32.5423158 23.0594386,31.2384561 21.4075088,31.2384561" id="Fill-17" fill="#00CEA4"></path>
                            <path d="M21.4075088,31.2384561 C19.7548772,31.2384561 18.4103158,32.5423158 18.4103158,34.1465263 C18.4103158,35.7493333 19.7548772,37.053193 21.4075088,37.053193 C23.0594386,37.053193 24.404,35.7493333 24.404,34.1465263 C24.404,32.5423158 23.0594386,31.2384561 21.4075088,31.2384561 Z" id="Stroke-19" stroke="#00CEA4" stroke-width="0.5"></path>
                            <path d="M23.8499649,22.9825965 L23.0148772,23.2001404 L23.0148772,27.266807 L19.4338246,27.266807 L19.4338246,19.9271579 L21.6682105,19.9271579 C23.3341754,19.9271579 24.8990877,19.0990877 25.7320702,17.7194386 C28.1334737,13.7397895 25.1692632,9.65136842 21.2247018,9.65136842 C18.5229474,9.65136842 16.2815439,11.5685614 15.9082105,14.0555789 L12.3047018,14.0555789 C12.6948772,9.67592982 16.546807,6.22610526 21.2247018,6.22610526 C27.3924211,6.22610526 32.1229474,12.2232982 29.3790877,18.4415439 C28.386807,20.6899649 26.3131228,22.3418947 23.8499649,22.9825965 M16.544,5.73838596 C12.9847018,7.24575439 10.7369825,10.6759298 10.7369825,14.4001404 L10.7369825,15.5236491 L17.3875088,15.5236491 L17.3875088,14.3629474 C17.3875088,13.3804912 17.8752281,12.4408421 18.7271579,11.8934737 C22.6345263,9.38961404 26.869614,13.4408421 24.2513684,17.1776842 C23.6808421,17.9931228 22.6969825,18.4597895 21.6710175,18.4597895 L17.8997895,18.4597895 L17.8997895,28.7348772 L24.549614,28.7348772 L24.549614,24.3054035 C28.7952281,22.9489123 31.7117193,19.1145263 31.7117193,14.789614 C31.7117193,7.81557895 24.2331228,2.48084211 16.544,5.73838596" id="Fill-21" fill="#231F20"></path>
                            <path d="M23.8499649,22.9825965 L23.0148772,23.2001404 L23.0148772,27.266807 L19.4338246,27.266807 L19.4338246,19.9271579 L21.6682105,19.9271579 C23.3341754,19.9271579 24.8990877,19.0990877 25.7320702,17.7194386 C28.1334737,13.7397895 25.1692632,9.65136842 21.2247018,9.65136842 C18.5229474,9.65136842 16.2815439,11.5685614 15.9082105,14.0555789 L12.3047018,14.0555789 C12.6948772,9.67592982 16.546807,6.22610526 21.2247018,6.22610526 C27.3924211,6.22610526 32.1229474,12.2232982 29.3790877,18.4415439 C28.386807,20.6899649 26.3131228,22.3418947 23.8499649,22.9825965 Z M16.544,5.73838596 C12.9847018,7.24575439 10.7369825,10.6759298 10.7369825,14.4001404 L10.7369825,15.5236491 L17.3875088,15.5236491 L17.3875088,14.3629474 C17.3875088,13.3804912 17.8752281,12.4408421 18.7271579,11.8934737 C22.6345263,9.38961404 26.869614,13.4408421 24.2513684,17.1776842 C23.6808421,17.9931228 22.6969825,18.4597895 21.6710175,18.4597895 L17.8997895,18.4597895 L17.8997895,28.7348772 L24.549614,28.7348772 L24.549614,24.3054035 C28.7952281,22.9489123 31.7117193,19.1145263 31.7117193,14.789614 C31.7117193,7.81557895 24.2331228,2.48084211 16.544,5.73838596 Z" id="Stroke-23" stroke="#231F20" stroke-width="0.5"></path>
                            <path d="M22.9658947,36.5413333 C20.1560702,38.2416842 17.168,35.3834386 18.9455439,32.6964211 C19.082386,32.490807 19.2669474,32.3139649 19.4830877,32.1827368 C22.2922105,30.482386 25.2809825,33.3406316 23.5027368,36.0283509 C23.3658947,36.2346667 23.1813333,36.410807 22.9658947,36.5413333 M23.6529123,30.8444912 C19.4788772,28.5911579 15.1911579,32.6922105 17.5462456,36.685193 C17.8395789,37.1820351 18.2753684,37.5995789 18.7953684,37.8795789 C22.9694035,40.133614 27.2585263,36.0311579 24.9020351,32.0381754 C24.6094035,31.5413333 24.1729123,31.1244912 23.6529123,30.8444912" id="Fill-25" fill="#231F20"></path>
                            <path d="M22.9658947,36.5413333 C20.1560702,38.2416842 17.168,35.3834386 18.9455439,32.6964211 C19.082386,32.490807 19.2669474,32.3139649 19.4830877,32.1827368 C22.2922105,30.482386 25.2809825,33.3406316 23.5027368,36.0283509 C23.3658947,36.2346667 23.1813333,36.410807 22.9658947,36.5413333 Z M23.6529123,30.8444912 C19.4788772,28.5911579 15.1911579,32.6922105 17.5462456,36.685193 C17.8395789,37.1820351 18.2753684,37.5995789 18.7953684,37.8795789 C22.9694035,40.133614 27.2585263,36.0311579 24.9020351,32.0381754 C24.6094035,31.5413333 24.1729123,31.1244912 23.6529123,30.8444912 Z" id="Stroke-27" stroke="#231F20" stroke-width="0.5"></path>
                        </g>
                    </g>
                </g>
            </g>
        </g>
    </g>
</svg>