<?xml version="1.0" encoding="UTF-8"?>
<svg width="24px" height="24px" viewBox="0 0 24 24" version="1.1" xmlns="http://www.w3.org/2000/svg" xmlns:xlink="http://www.w3.org/1999/xlink">
    <!-- Generator: Sketch 60 (88103) - https://sketch.com -->
    <title>icon/social/instagram</title>
    <desc>Created with Sketch.</desc>
    <defs>
        <path d="M12.0053333,5.89333333 C8.61333333,5.89333333 5.87733333,8.62933333 5.87733333,12.0213333 C5.87733333,15.4133333 8.61333333,18.1493333 12.0053333,18.1493333 C15.3973333,18.1493333 18.1333333,15.4133333 18.1333333,12.0213333 C18.1333333,8.62933333 15.3973333,5.89333333 12.0053333,5.89333333 Z M12.0053333,16.0053333 C9.81333333,16.0053333 8.02133333,14.2186667 8.02133333,12.0213333 C8.02133333,9.824 9.808,8.03733333 12.0053333,8.03733333 C14.2026667,8.03733333 15.9893333,9.824 15.9893333,12.0213333 C15.9893333,14.2186667 14.1973333,16.0053333 12.0053333,16.0053333 L12.0053333,16.0053333 Z M19.8133333,5.64266667 C19.8133333,6.43733333 19.1733333,7.072 18.384,7.072 C17.5893333,7.072 16.9546667,6.432 16.9546667,5.64266667 C16.9546667,4.85333333 17.5946667,4.21333333 18.384,4.21333333 C19.1733333,4.21333333 19.8133333,4.85333333 19.8133333,5.64266667 Z M23.872,7.09333333 C23.7813333,5.17866667 23.344,3.48266667 21.9413333,2.08533333 C20.544,0.688 18.848,0.250666667 16.9333333,0.154666667 C14.96,0.0426666667 9.04533333,0.0426666667 7.072,0.154666667 C5.16266667,0.245333333 3.46666667,0.682666667 2.064,2.08 C0.661333333,3.47733333 0.229333333,5.17333333 0.133333333,7.088 C0.0213333333,9.06133333 0.0213333333,14.976 0.133333333,16.9493333 C0.224,18.864 0.661333333,20.56 2.064,21.9573333 C3.46666667,23.3546667 5.15733333,23.792 7.072,23.888 C9.04533333,24 14.96,24 16.9333333,23.888 C18.848,23.7973333 20.544,23.36 21.9413333,21.9573333 C23.3386667,20.56 23.776,18.864 23.872,16.9493333 C23.984,14.976 23.984,9.06666667 23.872,7.09333333 Z M21.3226667,19.0666667 C20.9066667,20.112 20.1013333,20.9173333 19.0506667,21.3386667 C17.4773333,21.9626667 13.744,21.8186667 12.0053333,21.8186667 C10.2666667,21.8186667 6.528,21.9573333 4.96,21.3386667 C3.91466667,20.9226667 3.10933333,20.1173333 2.688,19.0666667 C2.064,17.4933333 2.208,13.76 2.208,12.0213333 C2.208,10.2826667 2.06933333,6.544 2.688,4.976 C3.104,3.93066667 3.90933333,3.12533333 4.96,2.704 C6.53333333,2.08 10.2666667,2.224 12.0053333,2.224 C13.744,2.224 17.4826667,2.08533333 19.0506667,2.704 C20.096,3.12 20.9013333,3.92533333 21.3226667,4.976 C21.9466667,6.54933333 21.8026667,10.2826667 21.8026667,12.0213333 C21.8026667,13.76 21.9466667,17.4986667 21.3226667,19.0666667 Z" id="path-1"></path>
    </defs>
    <g id="icon/social/instagram" stroke="none" stroke-width="1" fill="none" fill-rule="evenodd">
        <g id="Brands/instagram-Copy-2">
            <mask id="mask-2" fill="white">
                <use xlink:href="#path-1"></use>
            </mask>
            <g id="Mask"></g>
            <g id="🎨-color" mask="url(#mask-2)" fill="#FFFFFF">
                <rect id="Black" x="0" y="0" width="24" height="24"></rect>
            </g>
        </g>
    </g>
</svg>