<?xml version="1.0" encoding="UTF-8"?>
<svg width="80px" height="80px" viewBox="0 0 80 80" version="1.1" xmlns="http://www.w3.org/2000/svg" xmlns:xlink="http://www.w3.org/1999/xlink">
    <!-- Generator: Sketch 60 (88103) - https://sketch.com -->
    <title>Icon/Medical</title>
    <desc>Created with Sketch.</desc>
    <defs>
        <polygon id="path-1" points="0.000210526316 0 80 0 80 79.9998596 0.000210526316 79.9998596"></polygon>
    </defs>
    <g id="Page-1" stroke="none" stroke-width="1" fill="none" fill-rule="evenodd">
        <g id="My-Policies---Desktop" transform="translate(-286.000000, -1025.000000)">
            <g id="Group-13-Copy-6" transform="translate(258.000000, 1004.000000)">
                <g id="Icon/Medical" transform="translate(28.000000, 21.000000)">
                    <g id="Group-30">
                        <g id="Group-3">
                            <mask id="mask-2" fill="white">
                                <use xlink:href="#path-1"></use>
                            </mask>
                            <g id="Clip-2"></g>
                            <path d="M80.0002105,39.9998596 C80.0002105,62.0910877 62.0907368,79.9998596 40.0002105,79.9998596 C17.9089825,79.9998596 0.000210526316,62.0910877 0.000210526316,39.9998596 C0.000210526316,17.9086316 17.9089825,-0.000140350877 40.0002105,-0.000140350877 C62.0907368,-0.000140350877 80.0002105,17.9086316 80.0002105,39.9998596" id="Fill-1" fill="#BFF3E8" mask="url(#mask-2)"></path>
                        </g>
                        <g id="Group-7" transform="translate(40.701754, 65.263158)">
                            <line x1="0.284631579" y1="0.846175439" x2="13.6102456" y2="0.846175439" id="Fill-4" fill="#FFFFFF"></line>
                            <line x1="0.284631579" y1="0.846175439" x2="13.6102456" y2="0.846175439" id="Stroke-6" stroke="#000000" stroke-width="1.8245614" stroke-linecap="round"></line>
                        </g>
                        <path d="M37.9004211,44.2597193 L47.5179649,34.7418246 C51.2127018,31.0856842 51.2442807,25.1046316 47.5874386,21.4098947 C43.9312982,17.7158596 37.9502456,17.6842807 34.2562105,21.3411228 L24.5684912,30.9277895 L37.9004211,44.2597193 Z" id="Fill-8" fill="#00CEA4"></path>
                        <path d="M43.6802807,24.3392281 L43.3644912,24.0234386 C41.9048421,22.5644912 39.5167719,22.5644912 38.0578246,24.0234386 L35.6402807,26.4409825" id="Stroke-10" stroke="#FFFFFF" stroke-width="2.10526316" stroke-linecap="round"></path>
                        <path d="M37.9004211,44.2597193 L47.5179649,34.7418246 C51.2127018,31.0856842 51.2442807,25.1046316 47.5874386,21.4098947 C43.9312982,17.7158596 37.9502456,17.6842807 34.2562105,21.3411228 L24.5684912,30.9277895 L37.9004211,44.2597193 Z" id="Stroke-12" stroke="#000000" stroke-width="1.8245614"></path>
                        <path d="M24.8000702,30.6967719 L15.2134035,40.3837895 C11.5565614,44.0778246 11.5874386,50.0588772 15.2821754,53.7157193 C18.9769123,57.3718596 24.9572632,57.3409825 28.6141053,53.6455439 L38.132,44.0287018 L24.8000702,30.6967719 Z" id="Fill-14" fill="#FFFFFF"></path>
                        <path d="M24.8000702,30.6967719 L15.2134035,40.3837895 C11.5565614,44.0778246 11.5874386,50.0588772 15.2821754,53.7157193 C18.9769123,57.3718596 24.9572632,57.3409825 28.6141053,53.6455439 L38.132,44.0287018 L24.8000702,30.6967719 Z" id="Stroke-16" stroke="#000000" stroke-width="1.8245614"></path>
                        <path d="M53.1670175,45.9414737 C49.7508772,43.4214737 44.9192982,43.7098947 41.8414035,46.8130526 C38.7635088,49.9162105 38.5136842,54.7498947 41.0610526,58.1456842 L53.1670175,45.9414737 Z" id="Fill-18" fill="#FFFFFF"></path>
                        <path d="M53.1670175,45.9414737 C49.7508772,43.4214737 44.9192982,43.7098947 41.8414035,46.8130526 C38.7635088,49.9162105 38.5136842,54.7498947 41.0610526,58.1456842 L53.1670175,45.9414737 Z" id="Stroke-20" stroke="#000000" stroke-width="1.8245614" stroke-linecap="round" stroke-linejoin="round"></path>
                        <path d="M55.4689825,48.2289825 L43.3630175,60.433193 C46.7791579,62.9517895 51.6107368,62.6633684 54.6886316,59.5609123 C57.7665263,56.4584561 58.0163509,51.6240702 55.4689825,48.2289825" id="Fill-22" fill="#FFFFFF"></path>
                        <path d="M55.4689825,48.2289825 L43.3630175,60.433193 C46.7791579,62.9517895 51.6107368,62.6633684 54.6886316,59.5609123 C57.7665263,56.4584561 58.0163509,51.6240702 55.4689825,48.2289825 Z" id="Stroke-24" stroke="#000000" stroke-width="1.8245614" stroke-linecap="round" stroke-linejoin="round"></path>
                        <g id="Group-29" transform="translate(37.192982, 11.929825)">
                            <line x1="0.170877193" y1="0.846175439" x2="7.88245614" y2="0.846175439" id="Fill-26" fill="#FFFFFF"></line>
                            <line x1="0.170877193" y1="0.846175439" x2="7.88245614" y2="0.846175439" id="Stroke-28" stroke="#000000" stroke-width="1.8245614" stroke-linecap="round" stroke-linejoin="round"></line>
                        </g>
                    </g>
                </g>
            </g>
        </g>
    </g>
</svg>