<?xml version="1.0" encoding="UTF-8"?>
<svg width="80px" height="80px" viewBox="0 0 80 80" version="1.1" xmlns="http://www.w3.org/2000/svg" xmlns:xlink="http://www.w3.org/1999/xlink">
    <!-- Generator: Sketch 60 (88103) - https://sketch.com -->
    <title>Icon/New Child</title>
    <desc>Created with Sketch.</desc>
    <defs>
        <polygon id="path-1" points="0 0.000140350877 79.9997193 0.000140350877 79.9997193 80 0 80"></polygon>
    </defs>
    <g id="Page-1" stroke="none" stroke-width="1" fill="none" fill-rule="evenodd">
        <g id="My-Policies---Desktop" transform="translate(-710.000000, -1529.000000)">
            <g id="Group-13-Copy-13" transform="translate(682.000000, 1508.000000)">
                <g id="Icon/Baby-grow" transform="translate(28.000000, 21.000000)">
                    <g id="Group-26">
                        <g id="Group-3">
                            <mask id="mask-2" fill="white">
                                <use xlink:href="#path-1"></use>
                            </mask>
                            <g id="Clip-2"></g>
                            <path d="M79.9997193,40.0001404 C79.9997193,62.0913684 62.0909474,80.0001404 39.9997193,80.0001404 C17.909193,80.0001404 -0.000280701754,62.0913684 -0.000280701754,40.0001404 C-0.000280701754,17.9089123 17.909193,0.000140350877 39.9997193,0.000140350877 C62.0909474,0.000140350877 79.9997193,17.9089123 79.9997193,40.0001404" id="Fill-1" fill="#BFF3E8" mask="url(#mask-2)"></path>
                        </g>
                        <path d="M39.9997193,22.9147368 C34.1716491,22.8929825 30.3112982,19.6719298 29.8390175,19.257193 C29.8060351,19.2291228 29.7639298,19.2185965 29.7218246,19.2270175 L18.1183158,21.505614 C17.3912982,21.6480702 16.7969123,22.3715789 16.7969123,23.1119298 L16.7969123,32.4459649 C16.7969123,32.9463158 17.2439298,33.3287719 17.7379649,33.2508772 C18.9527018,33.2115789 19.2972632,33.217193 20.2088421,33.6789474 C21.7562105,34.462807 22.6769123,36.0031579 22.6769123,37.6691228 L22.6769123,52.9568421 C22.6769123,59.7589474 27.9583158,65.3505263 34.6341053,65.8494737 L34.6474386,65.8494737 L45.3512982,65.8494737 L45.3639298,65.8494737 C51.7211228,65.3750877 56.8130526,60.2824561 57.2867368,53.9238596 L57.2867368,53.9147368 L57.3225263,52.0564912 L57.3225263,37.8242105 C57.3225263,36.7624561 57.6390175,35.7084211 58.3021754,34.8796491 C59.3435789,33.5757895 60.5877895,33.0817544 62.1737544,33.2326316 C62.712,33.3224561 63.2032281,32.9063158 63.2032281,32.3603509 L63.2032281,32.2242105 L63.2032281,22.8887719 C63.2032281,22.2361404 62.7414737,21.6747368 62.1007719,21.5491228 L50.2797193,19.2277193 C50.2362105,19.2185965 50.1934035,19.2298246 50.1604211,19.2592982 C49.6902456,19.6838596 45.8937544,22.9357895 39.9997193,22.9147368" id="Fill-4" fill="#FFFFFF"></path>
                        <path d="M39.9997193,22.9147368 C34.1716491,22.8929825 30.3112982,19.6719298 29.8390175,19.257193 C29.8060351,19.2291228 29.7639298,19.2185965 29.7218246,19.2270175 L18.1183158,21.505614 C17.3912982,21.6480702 16.7969123,22.3715789 16.7969123,23.1119298 L16.7969123,32.4459649 C16.7969123,32.9463158 17.2439298,33.3287719 17.7379649,33.2508772 C18.9527018,33.2115789 19.2972632,33.217193 20.2088421,33.6789474 C21.7562105,34.462807 22.6769123,36.0031579 22.6769123,37.6691228 L22.6769123,52.9568421 C22.6769123,59.7589474 27.9583158,65.3505263 34.6341053,65.8494737 L34.6474386,65.8494737 L45.3512982,65.8494737 L45.3639298,65.8494737 C51.7211228,65.3750877 56.8130526,60.2824561 57.2867368,53.9238596 L57.2867368,53.9147368 L57.3225263,52.0564912 L57.3225263,37.8242105 C57.3225263,36.7624561 57.6390175,35.7084211 58.3021754,34.8796491 C59.3435789,33.5757895 60.5877895,33.0817544 62.1737544,33.2326316 C62.712,33.3224561 63.2032281,32.9063158 63.2032281,32.3603509 L63.2032281,32.2242105 L63.2032281,22.8887719 C63.2032281,22.2361404 62.7414737,21.6747368 62.1007719,21.5491228 L50.2797193,19.2277193 C50.2362105,19.2185965 50.1934035,19.2298246 50.1604211,19.2592982 C49.6902456,19.6838596 45.8937544,22.9357895 39.9997193,22.9147368 Z" id="Stroke-6" stroke="#231F20" stroke-width="2.10526316"></path>
                        <g id="Group-11" transform="translate(43.508772, 53.333333)">
                            <path d="M13.7367018,0.586807018 C7.37459649,1.05838596 1.06512281,6.15382456 0.59354386,12.5159298" id="Fill-8" fill="#FFFFFF"></path>
                            <path d="M13.7367018,0.586807018 C7.37459649,1.05838596 1.06512281,6.15382456 0.59354386,12.5159298" id="Stroke-10" stroke="#231F20" stroke-width="2.10526316"></path>
                        </g>
                        <g id="Group-15" transform="translate(26.666667, 54.736842)">
                            <path d="M0.192982456,0.396912281 C7.82666667,1.77375439 9.74596491,7.30007018 10.0196491,11.1127018" id="Fill-12" fill="#FFFFFF"></path>
                            <path d="M0.192982456,0.396912281 C7.82666667,1.77375439 9.74596491,7.30007018 10.0196491,11.1127018" id="Stroke-14" stroke="#231F20" stroke-width="2.10526316" stroke-linecap="round"></path>
                        </g>
                        <path d="M43.6407719,66.5510175 C43.7018246,65.5706667 43.8590175,63.9131228 44.1025263,62.9938246 C42.8856842,62.3678596 41.5312982,62.0394386 40.1467368,62.0394386 C38.7649825,62.0394386 37.4112982,62.3678596 36.1937544,62.9931228 C36.4358596,63.9152281 36.5895439,65.5727719 36.6498947,66.5510175" id="Stroke-16" stroke="#231F20" stroke-width="2.10526316"></path>
                        <g id="Group-21" transform="translate(49.122807, 20.350877)">
                            <path d="M1.01263158,0.0124912281 C1.01263158,1.22442105 0.732631579,2.37038596 0.33122807,3.39073684" id="Fill-18" fill="#FFFFFF"></path>
                            <path d="M1.01263158,0.0124912281 C1.01263158,1.22442105 0.732631579,2.37038596 0.33122807,3.39073684" id="Stroke-20" stroke="#231F20" stroke-width="2.10526316" stroke-linecap="round" stroke-linejoin="round"></path>
                        </g>
                        <path d="M47.8122105,26.6990175 C47.1848421,27.5649825 46.6760702,28.0737544 46.6760702,28.0737544 C44.7834386,29.7593684 42.3490526,30.6856842 39.8122105,30.6856842 L39.7350175,30.6856842 C34.0865965,30.6435789 29.4915088,25.9488421 29.4915088,20.2197193" id="Stroke-22" stroke="#231F20" stroke-width="2.10526316" stroke-linecap="round" stroke-linejoin="round"></path>
                        <path d="M41.0907368,37.4809825 L42.0963509,39.5546667 C42.2423158,39.8564211 42.5279298,40.0676491 42.8598596,40.1181754 L45.1384561,40.4648421 C45.9735439,40.5932632 46.3005614,41.6234386 45.6907368,42.2101053 L44.0289825,43.8065965 C43.7868772,44.0388772 43.6752982,44.3757193 43.7300351,44.7069474 L44.1026667,46.9806316 C44.238807,47.8157193 43.3602105,48.4437895 42.6149474,48.045193 L40.5833684,46.9588772 C40.2865263,46.8009825 39.9321404,46.7981754 39.633193,46.9525614 L37.5861754,48.0094035 C36.8352982,48.3974737 35.9651228,47.7560702 36.1138947,46.9237895 L36.5195088,44.6557193 C36.5791579,44.325193 36.4717895,43.9869474 36.2324912,43.7511579 L34.5945965,42.130807 C33.9938947,41.5357193 34.3349474,40.5097544 35.1721404,40.3939649 L37.4549474,40.0788772 C37.7875789,40.0339649 38.076,39.8269474 38.2268772,39.5272982 L39.2612632,37.4676491 C39.641614,36.7118596 40.7223158,36.7195789 41.0907368,37.4809825" id="Fill-24" fill="#00CEA4"></path>
                    </g>
                </g>
            </g>
        </g>
    </g>
</svg>