<?xml version="1.0" encoding="UTF-8"?>
<svg width="80px" height="80px" viewBox="0 0 80 80" version="1.1" xmlns="http://www.w3.org/2000/svg" xmlns:xlink="http://www.w3.org/1999/xlink">
    <!-- Generator: Sketch 60 (88103) - https://sketch.com -->
    <title>Icon/Optical</title>
    <desc>Created with Sketch.</desc>
    <defs>
        <polygon id="path-1" points="0.000217288942 0.683508772 80.0182456 0.683508772 80.0182456 80.701652 0.000217288942 80.701652"></polygon>
    </defs>
    <g id="Page-1" stroke="none" stroke-width="1" fill="none" fill-rule="evenodd">
        <g id="My-Policies---Desktop" transform="translate(-710.000000, -693.000000)">
            <g id="Group-13-Copy-4" transform="translate(682.000000, 672.000000)">
                <g id="Icon/Optical" transform="translate(28.000000, 21.000000)">
                    <g id="Group-24" transform="translate(0.000000, -0.701754)">
                        <g id="Group-3" transform="translate(0.000000, 0.018246)">
                            <mask id="mask-2" fill="white">
                                <use xlink:href="#path-1"></use>
                            </mask>
                            <g id="Clip-2"></g>
                            <path d="M57.4466667,76.6912982 C37.5652632,86.3221754 13.6410526,78.012 4.01087719,58.1305965 C-5.62070175,38.249193 2.69017544,14.3242807 22.5715789,4.69340351 C42.4529825,-4.93677193 66.3778947,3.37270175 76.0080702,23.254807 C85.6389474,43.1369123 77.3287719,67.0604211 57.4466667,76.6912982" id="Fill-1" fill="#BFF3E8" mask="url(#mask-2)"></path>
                        </g>
                        <g id="Group-7" transform="translate(11.929825, 27.386667)">
                            <path d="M52.9846316,19.4270175 L55.2927018,17.1961404 C56.0709474,16.6192982 56.0709474,15.4550877 55.2927018,14.8782456 L46.5790175,7.90070175 C46.5488421,7.87824561 46.5179649,7.85719298 46.486386,7.83684211 C40.8625263,4.28526316 34.4702456,0.62 28.0793684,0.62 C21.6877895,0.62 15.2969123,4.28526316 9.67235088,7.83754386 C9.64007018,7.85789474 9.60919298,7.87894737 9.57901754,7.90070175 L0.866035088,14.8796491 C0.0877894737,15.4557895 0.0877894737,16.6207018 0.866035088,17.1975439 L9.57901754,24.1750877 C9.60919298,24.1975439 9.64007018,24.2185965 9.67164912,24.2382456 C15.2969123,27.7905263 21.6877895,31.4557895 28.0793684,31.4557895 C34.4702456,31.4557895 40.8618246,27.7905263 46.4856842,24.2375439 C46.5179649,24.2178947 46.5488421,24.1968421 46.5790175,24.174386 L49.5593684,21.9652632" id="Fill-4" fill="#FFFFFF"></path>
                            <path d="M52.9846316,19.4270175 L55.2927018,17.1961404 C56.0709474,16.6192982 56.0709474,15.4550877 55.2927018,14.8782456 L46.5790175,7.90070175 C46.5488421,7.87824561 46.5179649,7.85719298 46.486386,7.83684211 C40.8625263,4.28526316 34.4702456,0.62 28.0793684,0.62 C21.6877895,0.62 15.2969123,4.28526316 9.67235088,7.83754386 C9.64007018,7.85789474 9.60919298,7.87894737 9.57901754,7.90070175 L0.866035088,14.8796491 C0.0877894737,15.4557895 0.0877894737,16.6207018 0.866035088,17.1975439 L9.57901754,24.1750877 C9.60919298,24.1975439 9.64007018,24.2185965 9.67164912,24.2382456 C15.2969123,27.7905263 21.6877895,31.4557895 28.0793684,31.4557895 C34.4702456,31.4557895 40.8618246,27.7905263 46.4856842,24.2375439 C46.5179649,24.2178947 46.5488421,24.1968421 46.5790175,24.174386 L49.5593684,21.9652632" id="Stroke-6" stroke="#231F20" stroke-width="2.10526316" stroke-linecap="round" stroke-linejoin="round"></path>
                        </g>
                        <path d="M61.3159298,32.4009825 C61.2857544,32.3785263 61.2548772,32.3574737 61.2232982,32.3371228 C56.6927719,29.4760702 51.6654035,26.5420351 46.5404912,25.5090526" id="Stroke-8" stroke="#231F20" stroke-width="1.8245614" stroke-linecap="round" stroke-linejoin="round"></path>
                        <path d="M40.7594386,53.8648421 C34.9755789,53.8648421 30.2703158,49.1595789 30.2703158,43.3764211 C30.2703158,37.5925614 34.9755789,32.8865965 40.7594386,32.8865965 C46.5425965,32.8865965 51.2478596,37.5925614 51.2478596,43.3764211 C51.2478596,49.1595789 46.5425965,53.8648421 40.7594386,53.8648421" id="Fill-10" fill="#00CEA4"></path>
                        <path d="M40.7594386,31.9747368 C34.4724211,31.9747368 29.3580351,37.0891228 29.3580351,43.3761404 C29.3580351,49.6624561 34.4724211,54.7775439 40.7594386,54.7775439 C47.0457544,54.7775439 52.1608421,49.6624561 52.1608421,43.3761404 C52.1608421,37.0891228 47.0457544,31.9747368 40.7594386,31.9747368 M40.7594386,33.7992982 C46.0478596,33.7992982 50.3362807,38.0870175 50.3362807,43.3761404 C50.3362807,48.6652632 46.0478596,52.9529825 40.7594386,52.9529825 C35.4703158,52.9529825 31.1825965,48.6652632 31.1825965,43.3761404 C31.1825965,38.0870175 35.4703158,33.7992982 40.7594386,33.7992982" id="Fill-12" fill="#231F20"></path>
                        <path d="M45.9732632,44.4706667 C43.6343158,44.4706667 41.7311579,42.5675088 41.7311579,40.2285614 C41.7311579,37.889614 43.6343158,35.9871579 45.9732632,35.9871579 C48.3122105,35.9871579 50.2153684,37.889614 50.2153684,40.2285614 C50.2153684,42.5675088 48.3122105,44.4706667 45.9732632,44.4706667" id="Fill-14" fill="#FFFFFF"></path>
                        <path d="M45.9732632,35.074386 C43.1311579,35.074386 40.8188772,37.3866667 40.8188772,40.2287719 C40.8188772,43.0715789 43.1311579,45.3824561 45.9732632,45.3824561 C48.8153684,45.3824561 51.1276491,43.0715789 51.1276491,40.2287719 C51.1276491,37.3866667 48.8153684,35.074386 45.9732632,35.074386 M45.9732632,36.8996491 C47.8118596,36.8996491 49.3030877,38.3901754 49.3030877,40.2287719 C49.3030877,42.0680702 47.8118596,43.5585965 45.9732632,43.5585965 C44.1346667,43.5585965 42.6434386,42.0680702 42.6434386,40.2287719 C42.6434386,38.3901754 44.1346667,36.8996491 45.9732632,36.8996491" id="Fill-16" fill="#231F20"></path>
                        <path d="M53.1936842,55.6349474 L50.3361404,56.4833684 L53.9424561,53.0679298 C57.9894737,47.3338947 57.9894737,40.0412632 53.9424561,34.3072281 L50.3361404,30.1900351 L53.1936842,31.0384561 L56.0961404,34.3023158 C60.1438596,40.0356491 60.1452632,47.3275789 56.1010526,53.0630175 L53.1936842,55.6349474 Z" id="Fill-18" fill="#231F20"></path>
                        <path d="M21.6955789,40.442386 C21.0289123,44.5181754 21.9727719,48.7546667 24.5257544,52.3715088 L27.4282105,55.6346667 L30.2857544,56.4830877 L26.6794386,52.3658947 C24.1903158,48.8395789 23.2317193,44.7244912 23.8050526,40.7441404 C23.8955789,40.1111579 23.4162807,39.5434386 22.778386,39.5287018 C22.2387368,39.5167719 21.7825965,39.9104561 21.6955789,40.442386" id="Fill-20" fill="#231F20"></path>
                        <path d="M23.256,35.7055439 C23.621614,34.9890526 24.0426667,34.2887018 24.5212632,33.610807 L27.4279298,31.0388772 L30.2861754,30.1904561 L26.6791579,33.6058947 C26.0209123,34.5378246 25.4700351,35.5111579 25.0265263,36.5111579 C24.8545965,36.8985263 24.4672281,37.1413333 24.0447719,37.1034386 C23.3654737,37.042386 22.9465263,36.3139649 23.256,35.7055439" id="Fill-22" fill="#231F20"></path>
                    </g>
                </g>
            </g>
        </g>
    </g>
</svg>