<?xml version="1.0" encoding="UTF-8"?>
<svg width="80px" height="80px" viewBox="0 0 80 80" version="1.1" xmlns="http://www.w3.org/2000/svg" xmlns:xlink="http://www.w3.org/1999/xlink">
    <!-- Generator: Sketch 60 (88103) - https://sketch.com -->
    <title>Icon/Physiotherapy</title>
    <desc>Created with Sketch.</desc>
    <defs>
        <polygon id="path-1" points="0 0.683508772 80.0182456 0.683508772 80.0182456 80.701652 0 80.701652"></polygon>
    </defs>
    <g id="Page-1" stroke="none" stroke-width="1" fill="none" fill-rule="evenodd">
        <g id="My-Policies---Desktop" transform="translate(-286.000000, -859.000000)">
            <g id="Group-13-Copy-2" transform="translate(258.000000, 838.000000)">
                <g id="Icon/Physiotherapy" transform="translate(28.000000, 21.000000)">
                    <g id="Group-48" transform="translate(0.000000, -0.701754)">
                        <g id="Group-3" transform="translate(0.000000, 0.018246)">
                            <mask id="mask-2" fill="white">
                                <use xlink:href="#path-1"></use>
                            </mask>
                            <g id="Clip-2"></g>
                            <path d="M57.4467368,76.6912982 C37.5653333,86.3221754 13.6404211,78.012 4.01024561,58.1305965 C-5.62063158,38.249193 2.68954386,14.3242807 22.5716491,4.69340351 C42.4530526,-4.93677193 66.3779649,3.37270175 76.0081404,23.254807 C85.6390175,43.1369123 77.3288421,67.0604211 57.4467368,76.6912982" id="Fill-1" fill="#BFF3E8" mask="url(#mask-2)"></path>
                        </g>
                        <path d="M64.3135439,56.7746667 L59.9935439,59.3915088 C59.9935439,59.3915088 54.8784561,51.5669474 52.6826667,46.6069474 C50.4868772,41.6469474 51.3984561,40.3255439 51.3984561,40.3255439 C51.3984561,40.3255439 49.5212632,47.9318596 49.5212632,53.2665965 C49.5212632,58.6020351 50.2230175,64.1339649 50.2230175,64.1339649 L30.058807,63.6399298 C30.058807,63.6399298 30.9479298,58.105193 30.058807,51.388 C29.1696842,44.6722105 28.0833684,39.8272982 28.0833684,39.8272982 C28.0833684,39.8272982 28.2581053,44.3655439 26.4040702,47.0427368 C24.5493333,49.7199298 23.4398596,56.3290526 19.6854737,59.2932632 L14.8447719,56.8230877 L19.7844211,42.1030877 C19.7844211,42.1030877 21.661614,34.590807 22.4524912,33.8027368 C23.2426667,33.0146667 24.4181053,29.8287018 26.7991579,29.6546667 C29.1795088,29.4820351 34.3072281,24.7781754 34.3072281,24.7781754 L35.8875789,19.8644912 L43.8896842,19.8644912 C43.8896842,19.8644912 43.0012632,23.9725614 46.8538947,26.468 C50.7065263,28.9634386 53.0777544,29.4574737 53.0777544,29.4574737 C53.0777544,29.4574737 56.8321404,31.5192281 57.8195088,34.9830877 C58.8075789,38.4483509 64.3135439,56.7746667 64.3135439,56.7746667" id="Fill-4" fill="#FFFFFF"></path>
                        <path d="M29.3313684,51.2764211 C29.0829474,48.6167719 28.6934737,46.2897544 28.3432982,44.5430877 C27.0141754,48.5487018 24.3692632,55.1872982 20.3678596,59.3171228 C20.0113684,59.6848421 19.4261053,59.6932632 19.058386,59.3381754 C18.6913684,58.9816842 18.6815439,58.3964211 19.0373333,58.0287018 C24.2443509,52.6546667 27.1376842,42.2827368 27.5117193,40.8764211 C27.2731228,38.9311579 27.3173333,37.8995789 27.3194386,37.8546667 C27.344,37.3437895 27.7671579,36.948 28.2899649,36.9753684 C28.7994386,37.0006316 29.1931228,37.433614 29.1692632,37.9437895 C29.1692632,37.9543158 29.1306667,38.9199298 29.3622456,40.7585263 C29.5482105,41.4118596 30.6752281,45.5430877 31.1917193,51.1164211 C31.2401404,51.6371228 30.8443509,52.0932632 30.3236491,52.1283509 C29.8155789,52.1627368 29.378386,51.782386 29.3313684,51.2764211" id="Fill-6" fill="#231F20"></path>
                        <path d="M29.3313684,51.2764211 C29.0829474,48.6167719 28.6934737,46.2897544 28.3432982,44.5430877 C27.0141754,48.5487018 24.3692632,55.1872982 20.3678596,59.3171228 C20.0113684,59.6848421 19.4261053,59.6932632 19.058386,59.3381754 C18.6913684,58.9816842 18.6815439,58.3964211 19.0373333,58.0287018 C24.2443509,52.6546667 27.1376842,42.2827368 27.5117193,40.8764211 C27.2731228,38.9311579 27.3173333,37.8995789 27.3194386,37.8546667 C27.344,37.3437895 27.7671579,36.948 28.2899649,36.9753684 C28.7994386,37.0006316 29.1931228,37.433614 29.1692632,37.9437895 C29.1692632,37.9543158 29.1306667,38.9199298 29.3622456,40.7585263 C29.5482105,41.4118596 30.6752281,45.5430877 31.1917193,51.1164211 C31.2401404,51.6371228 30.8443509,52.0932632 30.3236491,52.1283509 C29.8155789,52.1627368 29.378386,51.782386 29.3313684,51.2764211 Z" id="Stroke-8" stroke="#231F20" stroke-width="0.526315789"></path>
                        <path d="M30.5183158,55.2635079 C29.9983158,55.262807 29.5835789,55.6866667 29.5877895,56.2066667 C29.6081404,58.6389474 29.4628772,61.1968421 29.0530526,63.7414035 C28.9716491,64.2466667 29.3155088,64.7217544 29.8200702,64.8031579 C29.8698947,64.8108772 29.9190175,64.814386 29.9681404,64.814386 C30.4151579,64.814386 30.8081404,64.4908772 30.8818246,64.0361404 C31.312,61.3659649 31.4670877,58.7021053 31.4488421,56.1807018 C31.4453333,55.6719298 31.0270877,55.2649123 30.5183158,55.2635079" id="Fill-10" fill="#231F20"></path>
                        <path d="M30.5183158,55.2635079 C29.9983158,55.262807 29.5835789,55.6866667 29.5877895,56.2066667 C29.6081404,58.6389474 29.4628772,61.1968421 29.0530526,63.7414035 C28.9716491,64.2466667 29.3155088,64.7217544 29.8200702,64.8031579 C29.8698947,64.8108772 29.9190175,64.814386 29.9681404,64.814386 C30.4151579,64.814386 30.8081404,64.4908772 30.8818246,64.0361404 C31.312,61.3659649 31.4670877,58.7021053 31.4488421,56.1807018 C31.4453333,55.6719298 31.0270877,55.2649123 30.5183158,55.2635079 Z" id="Stroke-12" stroke="#231F20" stroke-width="0.526315789"></path>
                        <path d="M36.1378246,18.5132632 C35.6465965,18.4865965 35.1911579,18.8795789 35.165193,19.3911579 C35.1174737,20.3153684 34.5441404,25.0374737 27.933614,27.1244912 C26.7125614,27.5083509 25.6044912,28.0915088 24.6395789,28.8564211 C22.9939649,30.162386 21.7974737,31.9209825 21.1813333,33.9455439 L16.802386,48.3062456 L14.1329123,55.8858947 C13.962386,56.368 14.2164211,56.8971228 14.6978246,57.0669474 C14.8002807,57.1027368 14.9034386,57.1202807 15.0058947,57.1202807 C15.3876491,57.1202807 15.7448421,56.882386 15.8795789,56.5020351 L18.562386,48.8837895 L22.9525614,34.485193 C23.4592281,32.8234386 24.4402807,31.3785263 25.7904561,30.3083509 C26.5771228,29.6837895 27.4858947,29.2065965 28.4901053,28.8901053 C36.2690526,26.4353684 36.9560702,20.6255439 37.0150175,19.4858947 C37.0416842,18.9750175 36.6487018,18.5399298 36.1378246,18.5132632" id="Fill-14" fill="#231F20"></path>
                        <path d="M36.1378246,18.5132632 C35.6465965,18.4865965 35.1911579,18.8795789 35.165193,19.3911579 C35.1174737,20.3153684 34.5441404,25.0374737 27.933614,27.1244912 C26.7125614,27.5083509 25.6044912,28.0915088 24.6395789,28.8564211 C22.9939649,30.162386 21.7974737,31.9209825 21.1813333,33.9455439 L16.802386,48.3062456 L14.1329123,55.8858947 C13.962386,56.368 14.2164211,56.8971228 14.6978246,57.0669474 C14.8002807,57.1027368 14.9034386,57.1202807 15.0058947,57.1202807 C15.3876491,57.1202807 15.7448421,56.882386 15.8795789,56.5020351 L18.562386,48.8837895 L22.9525614,34.485193 C23.4592281,32.8234386 24.4402807,31.3785263 25.7904561,30.3083509 C26.5771228,29.6837895 27.4858947,29.2065965 28.4901053,28.8901053 C36.2690526,26.4353684 36.9560702,20.6255439 37.0150175,19.4858947 C37.0416842,18.9750175 36.6487018,18.5399298 36.1378246,18.5132632 Z" id="Stroke-16" stroke="#231F20" stroke-width="0.526315789"></path>
                        <path d="M65.885614,55.8858246 L63.2273684,48.3447719 L58.837193,33.9454737 C58.2203509,31.921614 57.0245614,30.1623158 55.3782456,28.8563509 C54.4133333,28.0921404 53.3052632,27.5082807 52.0849123,27.1244211 C45.4736842,25.0374035 44.9010526,20.3152982 44.8526316,19.3910877 C44.8259649,18.8802105 44.3663158,18.4858246 43.8807018,18.513193 C43.3698246,18.5398596 42.9761404,18.9749474 43.0035088,19.4858246 C43.0624561,20.6254737 43.7494737,26.4352982 51.5284211,28.8900351 C52.5326316,29.2065263 53.4414035,29.6837193 54.2280702,30.3082807 C55.5782456,31.3784561 56.5592982,32.8233684 57.0659649,34.4851228 L61.4680702,48.9223158 L64.1389474,56.5019649 C64.2729825,56.8823158 64.6308772,57.1202105 65.0126316,57.1202105 C65.114386,57.1202105 65.2182456,57.1026667 65.32,57.0675789 C65.8021053,56.8970526 66.0554386,56.3679298 65.885614,55.8858246" id="Fill-18" fill="#231F20"></path>
                        <path d="M65.885614,55.8858246 L63.2273684,48.3447719 L58.837193,33.9454737 C58.2203509,31.921614 57.0245614,30.1623158 55.3782456,28.8563509 C54.4133333,28.0921404 53.3052632,27.5082807 52.0849123,27.1244211 C45.4736842,25.0374035 44.9010526,20.3152982 44.8526316,19.3910877 C44.8259649,18.8802105 44.3663158,18.4858246 43.8807018,18.513193 C43.3698246,18.5398596 42.9761404,18.9749474 43.0035088,19.4858246 C43.0624561,20.6254737 43.7494737,26.4352982 51.5284211,28.8900351 C52.5326316,29.2065263 53.4414035,29.6837193 54.2280702,30.3082807 C55.5782456,31.3784561 56.5592982,32.8233684 57.0659649,34.4851228 L61.4680702,48.9223158 L64.1389474,56.5019649 C64.2729825,56.8823158 64.6308772,57.1202105 65.0126316,57.1202105 C65.114386,57.1202105 65.2182456,57.1026667 65.32,57.0675789 C65.8021053,56.8970526 66.0554386,56.3679298 65.885614,55.8858246 Z" id="Stroke-20" stroke="#231F20" stroke-width="0.526315789"></path>
                        <path d="M52.506386,40.8762105 C52.7449825,38.9316491 52.7007719,37.8993684 52.6993684,37.8544561 C52.6734035,37.3449825 52.2383158,36.9365614 51.7309474,36.9765614 C51.2207719,37.0011228 50.826386,37.4341053 50.8495439,37.9435789 C50.8495439,37.9541053 50.8874386,38.9197193 50.6558596,40.7583158 C50.3421754,41.8635789 47.3414737,52.8916491 49.1365614,64.0362105 C49.2102456,64.4909474 49.6032281,64.8144561 50.0502456,64.8144561 C50.0986667,64.8144561 50.1484912,64.8109474 50.1983158,64.8032281 C50.7028772,64.7211228 51.0467368,64.2467368 50.9653333,63.7414737 C49.7674386,56.3056842 50.8341053,48.746386 51.6755088,44.5456842 C53.0046316,48.552 55.6495439,55.189193 59.6509474,59.3169123 C60.0067368,59.6853333 60.592,59.6937544 60.9597193,59.3386667 C61.3267368,58.9821754 61.3365614,58.3962105 60.9807719,58.0284912 C55.7793684,52.6600702 52.8811228,42.2825263 52.506386,40.8762105" id="Fill-22" fill="#231F20"></path>
                        <path d="M52.506386,40.8762105 C52.7449825,38.9316491 52.7007719,37.8993684 52.6993684,37.8544561 C52.6734035,37.3449825 52.2383158,36.9365614 51.7309474,36.9765614 C51.2207719,37.0011228 50.826386,37.4341053 50.8495439,37.9435789 C50.8495439,37.9541053 50.8874386,38.9197193 50.6558596,40.7583158 C50.3421754,41.8635789 47.3414737,52.8916491 49.1365614,64.0362105 C49.2102456,64.4909474 49.6032281,64.8144561 50.0502456,64.8144561 C50.0986667,64.8144561 50.1484912,64.8109474 50.1983158,64.8032281 C50.7028772,64.7211228 51.0467368,64.2467368 50.9653333,63.7414737 C49.7674386,56.3056842 50.8341053,48.746386 51.6755088,44.5456842 C53.0046316,48.552 55.6495439,55.189193 59.6509474,59.3169123 C60.0067368,59.6853333 60.592,59.6937544 60.9597193,59.3386667 C61.3267368,58.9821754 61.3365614,58.3962105 60.9807719,58.0284912 C55.7793684,52.6600702 52.8811228,42.2825263 52.506386,40.8762105 Z" id="Stroke-24" stroke="#231F20" stroke-width="0.526315789"></path>
                        <path d="M39.4677193,26.8129825 C39.6403509,27.1063158 39.9491228,27.2684211 40.2663158,27.2684211 C40.425614,27.2684211 40.5877193,27.2277193 40.7357895,27.1407018 C41.1757895,26.8810526 41.3231579,26.3133333 41.0621053,25.8726316 C40.4473684,24.8277193 39.9498246,24.2396491 39.9287719,24.2150877 C39.5975439,23.825614 39.014386,23.7792982 38.625614,24.1091228 C38.2354386,24.4389474 38.1877193,25.0235088 38.5168421,25.4136842 C38.5210526,25.4185965 38.94,25.9189474 39.4677193,26.8129825" id="Fill-26" fill="#00CEA4"></path>
                        <path d="M42.654386,34.094386 C42.142807,34.094386 41.7287719,34.5308772 41.7287719,35.0424561 C41.7287719,35.9736842 41.6452632,36.9182456 41.4803509,37.8508772 C41.3919298,38.3540351 41.7280702,38.8347368 42.2312281,38.9238596 C42.2866667,38.9336842 42.34,38.9378947 42.3933333,38.9378947 C42.8347368,38.9378947 43.2249123,38.6214035 43.3049123,38.1729825 C43.4873684,37.134386 43.58,36.0817544 43.58,35.0424561 L43.58,34.9982456 C43.58,34.4873684 43.1659649,34.094386 42.654386,34.094386" id="Fill-28" fill="#00CEA4"></path>
                        <path d="M40.697193,29.3973333 C41.0333333,30.2962807 41.2908772,31.2247018 41.462807,32.1559298 C41.545614,32.6015439 41.934386,32.9138246 42.3729825,32.9138246 C42.4284211,32.9138246 42.4852632,32.9089123 42.5421053,32.8976842 C43.0452632,32.8043509 43.377193,32.3222456 43.2845614,31.8190877 C43.0922807,30.7818947 42.8059649,29.7489123 42.4326316,28.7489123 C42.2529825,28.2703158 41.7182456,28.026807 41.2403509,28.2057544 C40.7617544,28.3847018 40.5182456,28.9180351 40.697193,29.3973333" id="Fill-30" fill="#00CEA4"></path>
                        <path d="M41.9094737,40.0661754 C41.4301754,39.8893333 40.8982456,40.1342456 40.7207018,40.6135439 C40.6196491,40.8851228 40.514386,41.1545965 40.4070175,41.4219649 C40.2007018,41.9307368 39.9312281,42.6247719 39.6336842,43.4521404 C39.4610526,43.9342456 39.7115789,44.4647719 40.1929825,44.6374035 C40.2961404,44.6738947 40.4021053,44.6921404 40.5052632,44.6921404 C40.885614,44.6921404 41.2421053,44.4563509 41.3775439,44.0781053 C41.6645614,43.2774035 41.925614,42.6072281 42.1249123,42.1138947 C42.24,41.8289825 42.3522807,41.5426667 42.4575439,41.2549474 C42.634386,40.7756491 42.3894737,40.2430175 41.9094737,40.0661754" id="Fill-32" fill="#00CEA4"></path>
                        <path d="M39.8234386,45.7562807 C39.3350175,45.6117193 38.8171228,45.889614 38.6711579,46.3801404 C38.365193,47.406807 38.0999298,48.4124211 37.8837895,49.3689123 C37.770807,49.8678596 38.0837895,50.3632982 38.5820351,50.4769825 C38.6515088,50.4924211 38.7202807,50.4994386 38.7876491,50.4994386 C39.210807,50.4994386 39.5925614,50.2082105 39.6901053,49.7773333 C39.8971228,48.8615439 40.1525614,47.8959298 40.4465965,46.9092632 C40.5925614,46.4180351 40.3132632,45.9029474 39.8234386,45.7562807" id="Fill-34" fill="#00CEA4"></path>
                        <path d="M38.0779649,56.501193 C38.5895439,56.4913684 38.9965614,56.069614 38.9867368,55.5580351 L38.9839298,55.2836491 C38.9839298,54.4822456 39.0456842,53.6043509 39.166386,52.6738246 C39.2323509,52.1657544 38.8744561,51.7018947 38.3670877,51.6352281 C37.854807,51.5671579 37.3951579,51.9278596 37.3298947,52.4345263 C37.1986667,53.4450526 37.132,54.4029474 37.132,55.2836491 L37.134807,55.5924211 C37.1446316,56.0976842 37.5572632,56.501193 38.0604211,56.501193 L38.0779649,56.501193 Z" id="Fill-36" fill="#00CEA4"></path>
                        <path d="M39.3621754,58.3042807 C39.2169123,57.8137544 38.7025263,57.5344561 38.212,57.6783158 C37.7214737,57.8221754 37.4414737,58.3379649 37.5860351,58.8277895 C37.7972632,59.5435789 38.0849825,60.1905965 38.4414737,60.7512982 C38.617614,61.029193 38.9179649,61.1807719 39.2246316,61.1807719 C39.3944561,61.1807719 39.566386,61.1337544 39.7200702,61.0362105 C40.1523509,60.7618246 40.2793684,60.189193 40.0042807,59.757614 C39.7397193,59.3421754 39.5235789,58.8530526 39.3621754,58.3042807" id="Fill-38" fill="#00CEA4"></path>
                        <line x1="57.8270877" y1="24.629614" x2="64.3134035" y2="24.629614" id="Stroke-40" stroke="#00CEA4" stroke-width="1.86105263" stroke-linecap="round"></line>
                        <line x1="61.0699649" y1="27.8724912" x2="61.0699649" y2="21.3861754" id="Stroke-42" stroke="#00CEA4" stroke-width="1.86105263" stroke-linecap="round"></line>
                        <line x1="52.2562807" y1="19.409614" x2="56.9418947" y2="19.409614" id="Stroke-44" stroke="#231F20" stroke-width="1.39087719" stroke-linecap="round"></line>
                        <line x1="54.5992982" y1="21.752" x2="54.5992982" y2="17.066386" id="Stroke-46" stroke="#231F20" stroke-width="1.39087719" stroke-linecap="round"></line>
                    </g>
                </g>
            </g>
        </g>
    </g>
</svg>