<?xml version="1.0" encoding="UTF-8"?>
<svg width="80px" height="80px" viewBox="0 0 80 80" version="1.1" xmlns="http://www.w3.org/2000/svg" xmlns:xlink="http://www.w3.org/1999/xlink">
    <!-- Generator: Sketch 60 (88103) - https://sketch.com -->
    <title>piggy_bank_80</title>
    <desc>Created with Sketch.</desc>
    <defs>
        <polygon id="path-1" points="0.000210526316 0 80 0 80 79.9998596 0.000210526316 79.9998596"></polygon>
    </defs>
    <g id="piggy_bank_80" stroke="none" stroke-width="1" fill="none" fill-rule="evenodd">
        <g id="Piggybank">
            <g id="Group-3">
                <mask id="mask-2" fill="white">
                    <use xlink:href="#path-1"></use>
                </mask>
                <g id="Clip-2"></g>
                <path d="M80.0002105,39.9998596 C80.0002105,62.0910877 62.0907368,79.9998596 40.0002105,79.9998596 C17.9089825,79.9998596 0.000210526316,62.0910877 0.000210526316,39.9998596 C0.000210526316,17.9086316 17.9089825,-0.000140350877 40.0002105,-0.000140350877 C62.0907368,-0.000140350877 80.0002105,17.9086316 80.0002105,39.9998596" id="Fill-1" fill="#BFF3E8" mask="url(#mask-2)"></path>
            </g>
            <line x1="43.7935439" y1="66.1088421" x2="51.5051228" y2="66.1088421" id="Stroke-6" stroke="#0D2835" stroke-width="2.10526316" stroke-linecap="round"></line>
            <path d="M61.8705263,34.0700351 C55.4424561,21.5367018 38.8761404,21.2567018 29.4045614,24.9774035 C26.7996491,24.5886316 21.5470175,24.336 17.0803509,26.3521404 C16.3968421,26.6609123 16.5645614,27.2552982 16.9133333,27.9219649 C17.9477193,29.898807 19.0501754,31.0784561 21.2740351,32.3381053 C19.9322807,34.1205614 19.1947368,35.1156491 18.6249123,37.6391579 C18.3519298,38.8440702 17.8698246,39.6342456 17.2087719,40.2405614 C16.4915789,40.8995088 16.0698246,41.0468772 15.0761404,41.2763509 C13.6866667,41.5984561 13.4978947,42.1738947 13.5470175,43.216 C13.6150877,44.7107368 14.0473684,46.3563509 14.7350877,47.8005614 C15.1049123,48.5774035 15.5533333,49.2510877 16.0733333,49.7837193 C16.5715789,50.2938947 17.1357895,50.6742456 17.7610526,50.8917895 C18.9329825,51.2995088 20.1561404,51.3654737 20.8915789,51.4496842 C22.4957895,53.8047719 23.8431579,55.2707368 26.54,56.8489825 C26.6887719,58.7177544 26.4298246,61.0623158 26.3392982,62.1781053 L32.497193,62.1781053 C33.2235088,62.1781053 33.5687719,61.9584561 34.022807,61.3830175 C34.4950877,60.7879298 35.0403509,59.4202105 35.3589474,58.6735439 C38.1715789,59.061614 42.4985965,58.9689825 45.1673684,58.5598596 C45.1582456,59.6945965 44.9301754,61.4265263 44.7982456,62.1781053 L50.9350877,62.1781053 C51.9147368,62.1781053 52.3814035,61.7219649 52.8508772,61.1458246 C58.0487719,54.7886316 67.1750877,46.8454737 61.8705263,34.0700351" id="pig-fill" fill="#FFFFFF"></path>
            <path d="M61.8705263,34.0700351 C55.4424561,21.5367018 38.8761404,21.2567018 29.4045614,24.9774035 C26.7996491,24.5886316 21.5470175,24.336 17.0803509,26.3521404 C16.3968421,26.6609123 16.5645614,27.2552982 16.9133333,27.9219649 C17.9477193,29.898807 19.0501754,31.0784561 21.2740351,32.3381053 C19.9322807,34.1205614 19.1947368,35.1156491 18.6249123,37.6391579 C18.3519298,38.8440702 17.8698246,39.6342456 17.2087719,40.2405614 C16.4915789,40.8995088 16.0698246,41.0468772 15.0761404,41.2763509 C13.6866667,41.5984561 13.4978947,42.1738947 13.5470175,43.216 C13.6150877,44.7107368 14.0473684,46.3563509 14.7350877,47.8005614 C15.1049123,48.5774035 15.5533333,49.2510877 16.0733333,49.7837193 C16.5715789,50.2938947 17.1357895,50.6742456 17.7610526,50.8917895 C18.9329825,51.2995088 20.1561404,51.3654737 20.8915789,51.4496842 C22.4957895,53.8047719 23.8431579,55.2707368 26.54,56.8489825 C26.6887719,58.7177544 26.4298246,61.0623158 26.3392982,62.1781053 L32.497193,62.1781053 C33.2235088,62.1781053 33.5687719,61.9584561 34.022807,61.3830175 C34.4950877,60.7879298 35.0403509,59.4202105 35.3589474,58.6735439 C38.1715789,59.061614 42.4985965,58.9689825 45.1673684,58.5598596 C45.1582456,59.6945965 44.9301754,61.4265263 44.7982456,62.1781053 L50.9350877,62.1781053 C51.9147368,62.1781053 52.3814035,61.7219649 52.8508772,61.1458246 C58.0487719,54.7886316 67.1750877,46.8454737 61.8705263,34.0700351" id="pig-stroke" stroke="#0D2835" stroke-width="2.10526316" stroke-linecap="round" stroke-linejoin="round"></path>
            <path d="M61.7485614,33.3442807 C61.9941754,33.1779649 65.6222456,31.3232281 65.0355789,28.3884912 C64.998386,28.2032281 64.6145263,26.4004211 63.4054035,26.1162105 C62.9078596,25.9990175 62.2706667,26.1379649 61.9232982,26.5604211 C61.3745263,27.229193 61.8025965,28.3049825 61.9731228,28.7344561 C62.4152281,29.8446316 63.6152281,31.392 65.5724211,31.549193 C66.4538246,31.6207719 67.2032982,31.3870877 67.7857544,31.0818246" id="Stroke-12" stroke="#0D2835" stroke-width="2.10526316" stroke-linecap="round"></path>
            <path d="M25.5335439,39.6299649 C25.5335439,40.6825965 24.6823158,41.5366316 23.6296842,41.5366316 C22.5791579,41.5366316 21.7265263,40.6825965 21.7265263,39.6299649 C21.7265263,38.5773333 22.5791579,37.724 23.6296842,37.724 C24.6823158,37.724 25.5335439,38.5773333 25.5335439,39.6299649" id="Fill-14" fill="#0D2835"></path>
            <path d="M35.0702456,46.1821754 L36.6912982,46.1821754 L36.6912982,42.6867368 L35.3551579,42.6867368 L35.3551579,40.9295439 L36.6912982,40.9295439 L36.6912982,39.2972632 C36.6912982,38.7716491 36.7860351,38.2881404 36.9755088,37.8453333 C37.1649825,37.4032281 37.4323509,37.0235789 37.7762105,36.7070877 C38.1207719,36.3905965 38.5312982,36.1449825 39.0049825,35.9723509 C39.4800702,35.7990175 39.9972632,35.712 40.5544561,35.712 C41.0049825,35.712 41.4709474,35.7625263 41.9523509,35.8649825 C42.4323509,35.9660351 42.9397193,36.1127018 43.4744561,36.3035789 L42.8870877,38.0074386 C42.2337544,37.7323509 41.6056842,37.594807 41.0000702,37.594807 C40.4302456,37.594807 39.9635789,37.7681404 39.6014737,38.114807 C39.2400702,38.4607719 39.0597193,38.9155088 39.0597193,39.4769123 L39.0597193,40.9295439 L42.1390175,40.9295439 L42.1390175,42.6867368 L39.0597193,42.6867368 L39.0597193,46.1821754 L43.4744561,46.1821754 L43.4744561,47.9751579 L35.0702456,47.9751579 L35.0702456,46.1821754 Z" id="Fill-16" fill="#00E6B8"></path>
            <path d="M52.7312982,20.0424561 C52.7312982,24.1449123 49.406386,27.4698246 45.3046316,27.4698246 C41.2021754,27.4698246 37.8772632,24.1449123 37.8772632,20.0424561 C37.8772632,15.9407018 41.2021754,12.6157895 45.3046316,12.6157895 C49.406386,12.6157895 52.7312982,15.9407018 52.7312982,20.0424561" id="Fill-18" fill="#FFFFFF"></path>
            <path d="M52.7312982,20.0424561 C52.7312982,24.1449123 49.406386,27.4698246 45.3046316,27.4698246 C41.2021754,27.4698246 37.8772632,24.1449123 37.8772632,20.0424561 C37.8772632,15.9407018 41.2021754,12.6157895 45.3046316,12.6157895 C49.406386,12.6157895 52.7312982,15.9407018 52.7312982,20.0424561 Z" id="Stroke-20" stroke="#0D2835" stroke-width="2.10526316" stroke-linecap="round" stroke-linejoin="round"></path>
            <path d="M40.4697544,28.0865965 C43.0985263,28.0865965 45.6655439,28.3532632 48.1455439,28.8592281 C48.3918596,28.085193 48.5272982,27.2620351 48.5272982,26.4065965 C48.5272982,21.9567719 44.9202807,18.3490526 40.4697544,18.3490526 C36.0192281,18.3490526 32.4122105,21.9567719 32.4122105,26.4065965 C32.4122105,27.2620351 32.5476491,28.085193 32.7939649,28.8592281 C35.2739649,28.3532632 37.8409825,28.0865965 40.4697544,28.0865965" id="Fill-22" fill="#00E6B8"></path>
            <path d="M40.4697544,28.0865965 C43.0985263,28.0865965 45.6655439,28.3532632 48.1455439,28.8592281 C48.3918596,28.085193 48.5272982,27.2620351 48.5272982,26.4065965 C48.5272982,21.9567719 44.9202807,18.3490526 40.4697544,18.3490526 C36.0192281,18.3490526 32.4122105,21.9567719 32.4122105,26.4065965 C32.4122105,27.2620351 32.5476491,28.085193 32.7939649,28.8592281 C35.2739649,28.3532632 37.8409825,28.0865965 40.4697544,28.0865965 Z" id="Stroke-24" stroke="#0D2835" stroke-width="2.10526316"></path>
            <path d="M30.5239298,30.1788772 C33.7225263,29.0574737 37.1611228,28.4476491 40.7428772,28.4476491 C43.9400702,28.4476491 47.0242807,28.9339649 49.9246316,29.8364211" id="Stroke-26" stroke="#0D2835" stroke-width="2.10526316" stroke-linecap="round"></path>
        </g>
    </g>
</svg>