<?xml version="1.0" encoding="UTF-8"?>
<svg width="80px" height="80px" viewBox="0 0 80 80" version="1.1" xmlns="http://www.w3.org/2000/svg" xmlns:xlink="http://www.w3.org/1999/xlink">
    <!-- Generator: Sketch 60 (88103) - https://sketch.com -->
    <title>Icon/Receipt</title>
    <desc>Created with Sketch.</desc>
    <defs>
        <polygon id="path-1" points="7.01754386e-05 0 80 0 80 79.9999298 7.01754386e-05 79.9999298"></polygon>
    </defs>
    <g id="Page-1" stroke="none" stroke-width="1" fill="none" fill-rule="evenodd">
        <g id="Desktop" transform="translate(-366.000000, -559.000000)">
            <g id="My-entitlements-Copy" transform="translate(338.000000, 538.000000)">
                <g id="Icon/Receipt" transform="translate(28.000000, 21.000000)">
                    <g id="Group-44">
                        <g id="Group-3">
                            <mask id="mask-2" fill="white">
                                <use xlink:href="#path-1"></use>
                            </mask>
                            <g id="Clip-2"></g>
                            <path d="M80.0000702,39.9999298 C80.0000702,62.0911579 62.0912982,79.9999298 40.0000702,79.9999298 C17.9088421,79.9999298 7.01754386e-05,62.0911579 7.01754386e-05,39.9999298 C7.01754386e-05,17.9087018 17.9088421,-7.01754386e-05 40.0000702,-7.01754386e-05 C62.0912982,-7.01754386e-05 80.0000702,17.9087018 80.0000702,39.9999298" id="Fill-1" fill="#BFF3E8" mask="url(#mask-2)"></path>
                        </g>
                        <path d="M36.9367018,17.7110175 L35.533193,39.2506667 L55.1345965,39.2506667 L55.1345965,40.6541754 L57.1023158,40.6541754 L57.1023158,49.3629474 L57.1023158,50.8113684 C57.1023158,52.7734737 59.4272281,54.3629474 62.2945965,54.3629474 C68.5598596,54.3629474 68.2658246,50.0590877 68.4412632,49.3629474 L68.5598596,49.3629474 L68.5598596,39.2506667 L68.5598596,34.3657544 L68.5598596,17.7110175 L36.9367018,17.7110175 Z" id="Fill-4" fill="#FFFFFF"></path>
                        <g id="Group-9" transform="translate(32.982456, 65.263158)">
                            <line x1="0.350245614" y1="0.846315789" x2="8.06182456" y2="0.846315789" id="Fill-6" fill="#FFFFFF"></line>
                            <line x1="0.350245614" y1="0.846315789" x2="8.06182456" y2="0.846315789" id="Stroke-8" stroke="#000000" stroke-width="2.10526316" stroke-linecap="round"></line>
                        </g>
                        <path d="M49.1276491,40.5344561 L24.1634386,40.5344561 C23.4799298,40.9098947 21.1269474,42.3246316 18.8048421,45.112 C15.3374737,49.277614 13.4862456,54.4839298 13.2960702,60.6004211 L39.8701053,60.6004211 C40.1192281,52.3162105 43.2757193,46.8453333 45.9402807,43.6755088 C47.0504561,42.354807 48.1606316,41.3197193 49.1276491,40.5344561" id="Fill-10" fill="#FFFFFF"></path>
                        <path d="M42.9304561,53.9726316 C43.8287018,50.6442105 45.350807,47.68 47.4890526,45.1122807 C49.7858947,42.3536842 52.1129123,40.9410526 52.8237895,40.5473684 C54.5592281,40.6940351 55.9276491,42.1529825 55.9276491,43.9263158 L55.9276491,50.5803509 C55.9276491,51.8596491 56.3669474,53.037193 57.102386,53.9726316 L42.9304561,53.9726316 Z M39.8701053,60.6 L13.2960702,60.6 C13.4862456,54.4842105 15.3367719,49.2778947 18.8048421,45.1122807 C21.1262456,42.3242105 23.4799298,40.9101754 24.1634386,40.5347368 L49.1276491,40.5347368 C48.1599298,41.3192982 47.0504561,42.354386 45.9402807,43.6750877 C43.2750175,46.845614 40.1192281,52.3164912 39.8701053,60.6 L39.8701053,60.6 Z M23.9030877,38.4245614 C23.745193,38.4245614 23.5887018,38.4603509 23.4462456,38.5284211 C23.3192281,38.5894737 20.2876491,40.0694737 17.2567719,43.6750877 C14.4806316,46.9775439 11.1704561,52.7782456 11.1704561,61.6554386 C11.1704561,62.2378947 11.6427368,62.7101754 12.225193,62.7101754 L40.9094035,62.7101754 C41.4918596,62.7101754 41.9641404,62.2378947 41.9641404,61.6554386 C41.9641404,59.7080702 42.1283509,57.8491228 42.4532632,56.082807 L61.4265965,56.082807 L61.4294035,56.082807 L61.430807,56.082807 L62.2778246,56.082807 C66.2876491,56.082807 69.5501053,52.8203509 69.5501053,48.8112281 L69.5501053,37.5670175 C69.5501053,36.9845614 69.0778246,36.5122807 68.4946667,36.5122807 C67.9122105,36.5122807 67.4399298,36.9845614 67.4399298,37.5670175 L67.4399298,48.8105263 C67.4399298,51.6568421 65.1241404,53.9726316 62.2771228,53.9726316 L61.4265965,53.9726316 C59.5571228,53.9712281 58.0371228,52.4505263 58.0371228,50.5803509 L58.0371228,43.9270175 C58.0371228,40.917193 55.6083509,38.4652632 52.6083509,38.4266667 C52.6006316,38.4266667 52.5943158,38.4245614 52.5872982,38.4245614 L52.5360702,38.4245614 L50.4595789,38.4245614 L23.9030877,38.4245614 Z" id="Fill-12" fill="#000000"></path>
                        <polyline id="Stroke-14" stroke="#000000" stroke-width="2.10526316" stroke-linecap="round" stroke-linejoin="round" points="52.3752982 17.7110175 68.5598596 17.7110175 68.5598596 32.9341754"></polyline>
                        <polyline id="Stroke-16" stroke="#000000" stroke-width="2.10526316" stroke-linecap="round" stroke-linejoin="round" points="36.9367018 39.2501754 36.9367018 17.7112281 47.5072281 17.7112281"></polyline>
                        <path d="M55.9272982,43.9267368 C55.9272982,42.1534035 54.5595789,40.6944561 52.8234386,40.5477895 C52.1125614,40.9407719 49.7855439,42.3541053 47.4894035,45.112 C45.3511579,47.6804211 43.8290526,50.6439298 42.9301053,53.9723509 L57.1027368,53.9723509 C56.3672982,53.0369123 55.9272982,51.8600702 55.9272982,50.5800702 L55.9272982,43.9267368 Z" id="Fill-18" fill="#FFFFFF"></path>
                        <g id="Group-23" transform="translate(52.631579, 23.157895)">
                            <line x1="10.2611228" y1="0.906596491" x2="0.132" y2="0.906596491" id="Fill-20" fill="#FFFFFF"></line>
                            <line x1="10.2611228" y1="0.906596491" x2="0.132" y2="0.906596491" id="Stroke-22" stroke="#000000" stroke-width="2.10526316" stroke-linecap="round"></line>
                        </g>
                        <g id="Group-27" transform="translate(52.631579, 27.368421)">
                            <line x1="10.2611228" y1="0.906596491" x2="0.132" y2="0.906596491" id="Fill-24" fill="#FFFFFF"></line>
                            <line x1="10.2611228" y1="0.906596491" x2="0.132" y2="0.906596491" id="Stroke-26" stroke="#000000" stroke-width="2.10526316" stroke-linecap="round"></line>
                        </g>
                        <g id="Group-31" transform="translate(52.631579, 31.578947)">
                            <line x1="10.2611228" y1="0.906596491" x2="0.132" y2="0.906596491" id="Fill-28" fill="#FFFFFF"></line>
                            <line x1="10.2611228" y1="0.906596491" x2="0.132" y2="0.906596491" id="Stroke-30" stroke="#000000" stroke-width="2.10526316" stroke-linecap="round"></line>
                        </g>
                        <g id="Group-35" transform="translate(20.350877, 47.017544)">
                            <line x1="19.0358596" y1="0.906596491" x2="0.132701754" y2="0.906596491" id="Fill-32" fill="#FFFFFF"></line>
                            <line x1="19.0358596" y1="0.906596491" x2="0.132701754" y2="0.906596491" id="Stroke-34" stroke="#000000" stroke-width="2.04912281" stroke-linecap="round"></line>
                        </g>
                        <g id="Group-39" transform="translate(18.245614, 51.228070)">
                            <line x1="19.0358596" y1="0.906596491" x2="0.132701754" y2="0.906596491" id="Fill-36" fill="#FFFFFF"></line>
                            <line x1="19.0358596" y1="0.906596491" x2="0.132701754" y2="0.906596491" id="Stroke-38" stroke="#000000" stroke-width="2.04912281" stroke-linecap="round"></line>
                        </g>
                        <line x1="36.5797193" y1="56.345193" x2="17.6765614" y2="56.345193" id="Stroke-40" stroke="#00CEA4" stroke-width="2.10526316" stroke-linecap="round"></line>
                        <path d="M40.2905965,31.8701053 L41.6021754,31.8701053 L41.6021754,29.0602807 L40.5214737,29.0602807 L40.5214737,27.6476491 L41.6021754,27.6476491 L41.6021754,26.3367719 C41.6021754,25.9143158 41.6793684,25.5255439 41.8323509,25.1697544 C41.9860351,24.8139649 42.2028772,24.5094035 42.4807719,24.2546667 C42.7600702,24.0006316 43.0905965,23.8034386 43.4751579,23.6644912 C43.8590175,23.5248421 44.2772632,23.4553684 44.7284912,23.4553684 C45.0941053,23.4553684 45.4709474,23.4960702 45.8604211,23.5781754 C46.2484912,23.6595789 46.6597193,23.7774737 47.0912982,23.9311579 L46.6162105,25.2995789 C46.0877895,25.0785263 45.5790175,24.9683509 45.089193,24.9683509 C44.6281404,24.9683509 44.2512982,25.1072982 43.9579649,25.3858947 C43.6653333,25.6644912 43.5186667,26.0294035 43.5186667,26.4806316 L43.5186667,27.6476491 L46.0105965,27.6476491 L46.0105965,29.0602807 L43.5186667,29.0602807 L43.5186667,31.8701053 L47.0912982,31.8701053 L47.0912982,33.310807 L40.2905965,33.310807 L40.2905965,31.8701053 Z" id="Fill-42" fill="#00CEA4"></path>
                    </g>
                </g>
            </g>
        </g>
    </g>
</svg>