<?xml version="1.0" encoding="UTF-8"?>
<svg width="80px" height="80px" viewBox="0 0 80 80" version="1.1" xmlns="http://www.w3.org/2000/svg" xmlns:xlink="http://www.w3.org/1999/xlink">
    <!-- Generator: Sketch 60 (88103) - https://sketch.com -->
    <title>Icon/Stethoscope</title>
    <desc>Created with Sketch.</desc>
    <defs>
        <polygon id="path-1" points="0 0 79.9997193 0 79.9997193 79.9998596 0 79.9998596"></polygon>
    </defs>
    <g id="Page-1" stroke="none" stroke-width="1" fill="none" fill-rule="evenodd">
        <g id="My-Policies---Desktop" transform="translate(-286.000000, -1363.000000)">
            <g id="Group-13-Copy-10" transform="translate(258.000000, 1342.000000)">
                <g id="Icon/Stethoscope" transform="translate(28.000000, 21.000000)">
                    <g id="Group-32">
                        <g id="Group-3">
                            <mask id="mask-2" fill="white">
                                <use xlink:href="#path-1"></use>
                            </mask>
                            <g id="Clip-2"></g>
                            <path d="M79.9997193,39.9998596 C79.9997193,62.0910877 62.0909474,79.9998596 39.9997193,79.9998596 C17.909193,79.9998596 -0.000280701754,62.0910877 -0.000280701754,39.9998596 C-0.000280701754,17.9086316 17.909193,-0.000140350877 39.9997193,-0.000140350877 C62.0909474,-0.000140350877 79.9997193,17.9086316 79.9997193,39.9998596" id="Fill-1" fill="#BFF3E8" mask="url(#mask-2)"></path>
                        </g>
                        <path d="M63.7134035,46.1971228 C63.7134035,48.6834386 61.6979649,50.6995789 59.2116491,50.6995789 C56.7253333,50.6995789 54.709193,48.6834386 54.709193,46.1971228 C54.709193,43.710807 56.7253333,41.6953684 59.2116491,41.6953684 C61.6979649,41.6953684 63.7134035,43.710807 63.7134035,46.1971228" id="Fill-4" fill="#FFFFFF"></path>
                        <path d="M63.7134035,46.1971228 C63.7134035,48.6834386 61.6979649,50.6995789 59.2116491,50.6995789 C56.7253333,50.6995789 54.709193,48.6834386 54.709193,46.1971228 C54.709193,43.710807 56.7253333,41.6953684 59.2116491,41.6953684 C61.6979649,41.6953684 63.7134035,43.710807 63.7134035,46.1971228 Z" id="Stroke-6" stroke="#000000" stroke-width="2.10526316"></path>
                        <path d="M48.2658947,38.074807 C45.1837895,40.1969123 41.3129123,41.6951579 36.7016842,41.6951579 C23.5718596,41.6951579 16.4427368,29.549193 16.4427368,25.4214737 C16.4427368,22.1197193 18.5065965,21.8832281 19.8195789,21.8832281" id="Stroke-8" stroke="#000000" stroke-width="2.31578947" stroke-linecap="round"></path>
                        <path d="M53.5838596,21.8830877 C54.8968421,21.8830877 56.9607018,22.1195789 56.9607018,25.4213333 C56.9607018,27.2297544 55.5922807,30.5771228 52.9508772,33.768" id="Stroke-10" stroke="#000000" stroke-width="2.31578947" stroke-linecap="round"></path>
                        <path d="M59.2115789,50.6995789 L59.2115789,53.4918596 C59.2115789,58.4637895 55.18,62.4960702 50.2073684,62.4960702 L45.705614,62.4960702 C40.7329825,62.4960702 36.7021053,58.4637895 36.7021053,53.4918596 L36.7021053,42.4455439" id="Stroke-12" stroke="#000000" stroke-width="2.31578947" stroke-linejoin="round"></path>
                        <g id="Group-17" transform="translate(41.403509, 65.263158)">
                            <line x1="0.175157895" y1="1.01824561" x2="13.5000702" y2="1.01824561" id="Fill-14" fill="#FFFFFF"></line>
                            <line x1="0.175157895" y1="1.01824561" x2="13.5000702" y2="1.01824561" id="Stroke-16" stroke="#000000" stroke-width="2.10526316" stroke-linecap="round"></line>
                        </g>
                        <path d="M24.8804912,20.8078596 C24.8804912,22.3685614 23.6152281,23.6331228 22.0552281,23.6331228 C20.4945263,23.6331228 19.2292632,22.3685614 19.2292632,20.8078596 C19.2292632,19.2471579 20.4945263,17.9825965 22.0552281,17.9825965 C23.6152281,17.9825965 24.8804912,19.2471579 24.8804912,20.8078596" id="Fill-18" fill="#FFFFFF"></path>
                        <path d="M24.8804912,20.8078596 C24.8804912,22.3685614 23.6152281,23.6331228 22.0552281,23.6331228 C20.4945263,23.6331228 19.2292632,22.3685614 19.2292632,20.8078596 C19.2292632,19.2471579 20.4945263,17.9825965 22.0552281,17.9825965 C23.6152281,17.9825965 24.8804912,19.2471579 24.8804912,20.8078596 Z" id="Stroke-20" stroke="#000000" stroke-width="2.10526316"></path>
                        <path d="M52.9506667,20.8078596 C52.9506667,22.3685614 51.6854035,23.6331228 50.1254035,23.6331228 C48.5647018,23.6331228 47.2994386,22.3685614 47.2994386,20.8078596 C47.2994386,19.2471579 48.5647018,17.9825965 50.1254035,17.9825965 C51.6854035,17.9825965 52.9506667,19.2471579 52.9506667,20.8078596" id="Fill-22" fill="#FFFFFF"></path>
                        <path d="M52.9506667,20.8078596 C52.9506667,22.3685614 51.6854035,23.6331228 50.1254035,23.6331228 C48.5647018,23.6331228 47.2994386,22.3685614 47.2994386,20.8078596 C47.2994386,19.2471579 48.5647018,17.9825965 50.1254035,17.9825965 C51.6854035,17.9825965 52.9506667,19.2471579 52.9506667,20.8078596 Z" id="Stroke-24" stroke="#000000" stroke-width="2.10526316"></path>
                        <path d="M61.4436491,46.1971228 C61.4436491,47.4301053 60.4436491,48.4294035 59.2113684,48.4294035 C57.9790877,48.4294035 56.9797895,47.4301053 56.9797895,46.1971228 C56.9797895,44.9648421 57.9790877,43.9648421 59.2113684,43.9648421 C60.4436491,43.9648421 61.4436491,44.9648421 61.4436491,46.1971228" id="Fill-26" fill="#00CEA4"></path>
                        <path d="M45.4218246,23.2550877 C44.5769123,22.7666667 44.0084912,21.8536842 44.0084912,20.8080702 C44.0084912,19.8326316 44.5032281,18.9722807 45.254807,18.4649123" id="Stroke-28" stroke="#000000" stroke-width="2.10526316" stroke-linecap="round" stroke-linejoin="round"></path>
                        <path d="M27.0830175,18.4647719 C27.9272281,18.953193 28.4956491,19.8661754 28.4956491,20.9117895 C28.4956491,21.8872281 28.001614,22.7475789 27.2493333,23.2549474" id="Stroke-30" stroke="#000000" stroke-width="2.10526316" stroke-linecap="round" stroke-linejoin="round"></path>
                    </g>
                </g>
            </g>
        </g>
    </g>
</svg>