<?xml version="1.0" encoding="UTF-8"?>
<svg width="24px" height="24px" viewBox="0 0 24 24" version="1.1" xmlns="http://www.w3.org/2000/svg" xmlns:xlink="http://www.w3.org/1999/xlink">
    <!-- Generator: Sketch 60 (88103) - https://sketch.com -->
    <title>icon/social/youtube</title>
    <desc>Created with Sketch.</desc>
    <defs>
        <path d="M23.4593431,3.22261314 C23.1842628,2.18684672 22.373781,1.37110949 21.3447153,1.09427737 C19.4794599,0.591240876 12,0.591240876 12,0.591240876 C12,0.591240876 4.52058394,0.591240876 2.65528467,1.09427737 C1.62621898,1.37115328 0.815737226,2.18684672 0.540656934,3.22261314 C0.0408613139,5.1 0.0408613139,9.0169927 0.0408613139,9.0169927 C0.0408613139,9.0169927 0.0408613139,12.9339854 0.540656934,14.8113723 C0.815737226,15.8471387 1.62621898,16.6288905 2.65528467,16.9057226 C4.52058394,17.4087591 12,17.4087591 12,17.4087591 C12,17.4087591 19.4794161,17.4087591 21.3447153,16.9057226 C22.373781,16.6288905 23.1842628,15.8471387 23.4593431,14.8113723 C23.9591387,12.9339854 23.9591387,9.0169927 23.9591387,9.0169927 C23.9591387,9.0169927 23.9591387,5.1 23.4593431,3.22261314 Z M9.55379562,12.5733285 L9.55379562,5.46065693 L15.8051387,9.01708029 L9.55379562,12.5733285 Z" id="path-1"></path>
    </defs>
    <g id="icon/social/youtube" stroke="none" stroke-width="1" fill="none" fill-rule="evenodd">
        <g id="Brands/youtube-Copy" transform="translate(0.000000, 3.000000)">
            <mask id="mask-2" fill="white">
                <use xlink:href="#path-1"></use>
            </mask>
            <g id="Mask"></g>
            <g id="🎨-color" mask="url(#mask-2)" fill="#FFFFFF">
                <g transform="translate(0.000000, -3.000000)" id="Black">
                    <rect x="0" y="0" width="24" height="24"></rect>
                </g>
            </g>
        </g>
    </g>
</svg>