<?xml version="1.0" encoding="UTF-8"?>
<svg width="70px" height="70px" viewBox="0 0 70 70" version="1.1" xmlns="http://www.w3.org/2000/svg" xmlns:xlink="http://www.w3.org/1999/xlink">
    <!-- Generator: Sketch 60 (88103) - https://sketch.com -->
    <title>Shape</title>
    <desc>Created with Sketch.</desc>
    <g id="Page-1" stroke="none" stroke-width="1" fill="none" fill-rule="evenodd">
        <g id="My-Policies---Desktop" transform="translate(-970.000000, -348.000000)" fill="#00D2A0" fill-rule="nonzero">
            <g id="SH-Logo-Copy" transform="translate(970.000000, 348.000000)">
                <path d="M27.8937212,27.5171044 C27.98626,26.3929004 28.3427059,25.3303905 28.897939,24.3946963 L40.4001747,36.6649718 C41.7368469,38.0907915 42.5936881,39.9381878 42.6725175,41.891835 C42.7307827,43.3279371 42.405183,44.6783529 41.7916848,45.8539686 L29.8747379,33.1792539 C28.4352448,31.6540381 27.7223529,29.6249869 27.8937212,27.5171044 M27.365907,44.6269411 C27.2596587,44.2944783 26.9169223,44.102541 26.5776132,44.1813724 L23.314762,44.9456941 C22.9343245,45.0348078 22.7149732,45.4289647 22.8280762,45.8025569 C24.4492197,51.2042201 29.2509576,54.6282439 34.4502697,54.7859066 C37.2127256,54.8715929 39.7935312,54.0421497 41.9150699,52.578628 C44.4650292,54.5905419 47.5633668,55.7284557 50.8570642,55.8312793 C55.939846,55.9855146 60.6798913,54.0798517 64.2066495,50.4604631 C67.7608266,46.813655 69.8172454,41.6347761 69.992041,35.8800855 C69.9954683,35.8252462 69.9954683,35.7738345 69.992041,35.7189953 C70.1942555,26.1221317 66.5372574,17.0188212 59.7030924,10.1947657 C53.3898867,3.89168284 44.8351846,0.241447248 35.9206091,0.0118080135 C29.1104356,-0.162992001 22.5264682,1.60557285 16.7719229,5.14270255 C15.9630649,5.63968299 15.7437135,6.69533797 16.2783824,7.48022431 L17.0632489,8.62842049 C17.5602168,9.35504015 18.5370157,9.55725978 19.2876086,9.09798131 C24.2984157,6.03726733 30.025542,4.51890642 35.9514554,4.70056134 C52.6461486,5.20782413 65.8140835,19.21239 65.3068335,35.9177874 C65.3068335,35.9520619 65.3068335,35.982909 65.3068335,36.0171835 C64.916114,45.0416627 58.93879,51.3893024 51.0078683,51.1459534 C48.9137485,51.0808318 46.9293044,50.4056239 45.2498957,49.2128709 C46.6379784,47.1392629 47.4296996,44.6269411 47.368007,41.9192546 C47.2960324,38.7488622 45.9627875,35.73956 43.7932657,33.4260304 L32.4452614,21.3202725 C32.9250925,21.1214803 33.4254877,20.967245 33.9498745,20.8747038 C37.4252222,20.2646175 40.7292017,22.1839902 42.0281729,25.2686964 C42.1618401,25.5874493 42.5217134,25.7485395 42.8507404,25.6422885 L46.0381896,24.6003434 C46.4083449,24.4803826 46.5934226,24.0690884 46.4494733,23.709206 C44.3107978,18.2835507 38.4225853,14.958923 32.3630047,16.4190172 C31.1497176,16.713778 30.0084052,17.1936212 28.9699137,17.8276997 C26.3205608,15.6649779 23.0542823,14.4379504 19.5823619,14.3316994 C14.3899045,14.1740366 9.54361092,16.1002642 5.93802332,19.7607822 C2.29130735,23.4555746 0.186905465,28.70643 0.012109869,34.5468069 C-0.18667728,41.3434428 2.06510129,48.4142747 6.5309574,54.9949812 C12.6693675,64.040025 22.9925897,69.6439078 34.1486616,69.9832255 C41.0925024,70.1957275 47.7964276,68.3860332 53.6435117,64.7357976 C54.4489424,64.2319623 54.6648663,63.1763073 54.1233427,62.3948484 L53.3316215,61.2500797 C52.8312263,60.5268875 51.8544273,60.3315228 51.1072618,60.7942287 C46.0621811,63.9269191 40.2836443,65.4795546 34.2960383,65.2978996 C24.6377248,65.0031388 15.7094399,60.1670051 10.4141615,52.3626986 C6.50696585,46.6045805 4.52937646,40.4900074 4.70074469,34.6873324 C4.98521595,25.3543826 11.1853186,18.7633939 19.44184,19.0135978 C21.6456354,19.0821468 23.7329005,19.7916292 25.4877112,21.0529313 C24.3052704,22.6878256 23.5204039,24.6174806 23.277061,26.6910886 C22.8554952,30.2967674 24.0207991,33.7893402 26.4713649,36.3942032 L38.5014147,49.1888787 C37.3395381,49.8092474 36.0097206,50.1417102 34.6045011,50.0971533 C31.3964878,50.0011847 28.4112532,47.8727374 27.365907,44.6269411" id="Shape"></path>
            </g>
        </g>
    </g>
</svg>