<?xml version="1.0" encoding="utf-8"?>
<!-- Generator: Adobe Illustrator 24.0.0, SVG Export Plug-In . SVG Version: 6.00 Build 0)  -->
<svg version="1.1" id="Page-1" xmlns="http://www.w3.org/2000/svg" xmlns:xlink="http://www.w3.org/1999/xlink" x="0px" y="0px"
	 viewBox="0 0 15 15" style="enable-background:new 0 0 15 15;" xml:space="preserve">
<style type="text/css">
	.st0{fill-rule:evenodd;clip-rule:evenodd;fill:#99CC33;}
</style>
<path fill="#99CC33" fill-rule="evenodd" clip-rule="evenodd" class="st0" d="M7.5,0.4c-3.9,0-7.1,3.2-7.1,7.1c0,3.9,3.2,7.1,7.1,7.1s7.1-3.2,7.1-7.1C14.6,3.6,11.4,0.4,7.5,0.4z M12.3,5.3
	l-6.2,6.3c-0.2,0.2-0.4,0.2-0.6,0L2.1,8c-0.2-0.2-0.2-0.4,0-0.6l0.7-0.7c0.2-0.2,0.4-0.2,0.6,0L5.6,9C5.7,9.1,5.9,9.1,6,9L11,4
	c0.2-0.2,0.4-0.2,0.6,0l0.7,0.7C12.5,4.9,12.5,5.1,12.3,5.3z"/>
</svg>
