<?xml version="1.0" encoding="UTF-8"?>
<svg id="Page-1" viewBox="0 0 80 80" version="1.1" xmlns="http://www.w3.org/2000/svg" xmlns:xlink="http://www.w3.org/1999/xlink">
    <!-- Generator: Sketch 60 (88103) - https://sketch.com -->
    <title>Icon/Dental</title>
    <desc>Created with Sketch.</desc>
    <defs>
        <polygon id="path-1" points="7.01754386e-05 0 80 0 80 79.9999298 7.01754386e-05 79.9999298"></polygon>
    </defs>
    <g stroke="none" stroke-width="1" fill="none" fill-rule="evenodd">
        <g id="My-Policies---Desktop" transform="translate(-286.000000, -693.000000)">
            <g id="Group-13-Copy-3" transform="translate(258.000000, 672.000000)">
                <g id="Icon/tooth" transform="translate(28.000000, 21.000000)">
                    <g>
                        <g id="Group-3">
                            <mask id="mask-2" fill="white">
                                <use xlink:href="#path-1"></use>
                            </mask>
                            <g id="Clip-2"></g>
                            <path d="M80.0000702,39.9999298 C80.0000702,62.0911579 62.0912982,79.9999298 40.0000702,79.9999298 C17.9088421,79.9999298 7.01754386e-05,62.0911579 7.01754386e-05,39.9999298 C7.01754386e-05,17.9087018 17.9088421,-7.01754386e-05 40.0000702,-7.01754386e-05 C62.0912982,-7.01754386e-05 80.0000702,17.9087018 80.0000702,39.9999298" id="Fill-1" fill="#BFF3E8" mask="url(#mask-2)"></path>
                        </g>
                        <g id="Group-7" transform="translate(20.350877, 21.052632)">
                            <path d="M32.1830877,40.9305965 C29.9964211,40.9305965 28.0062456,39.4730526 27.3192281,37.2941053 C26.0988772,33.4281404 23.5564211,30.2807719 21.6385263,28.3221754 C21.0897544,27.7635789 20.1115088,27.7607719 19.5606316,28.3221754 C17.6434386,30.2793684 15.1009825,33.4253333 13.8792281,37.2955088 C13.1332632,39.6604211 10.8441404,41.174807 8.44764912,40.8969123 C6.48133333,40.6681404 4.27291228,39.1130526 3.97185965,35.4281404 C3.86308772,34.1011228 3.90870175,32.7067368 3.95852632,31.2337544 C4.06659649,27.9874386 4.18870175,24.3060351 2.74449123,19.7621754 L2.56764912,19.2084912 C0.340280702,12.2084912 -1.96217544,4.972 3.86589474,1.32989474 C8.60414035,-1.63291228 13.0406316,1.2365614 14.7115088,2.3165614 C14.8350175,2.39726316 14.9430877,2.46673684 15.0322105,2.52287719 C15.1781754,2.61129825 15.3409825,2.71375439 15.5171228,2.82603509 C16.7087018,3.58112281 18.5030877,4.71796491 20.5985263,4.79305263 C22.6960702,4.71796491 24.4918596,3.5797193 25.6827368,2.82533333 C25.8581754,2.71375439 26.0209825,2.61129825 26.1648421,2.52287719 C26.2567719,2.46673684 26.3641404,2.3965614 26.4890526,2.3165614 C28.1585263,1.2365614 32.5929123,-1.63291228 37.3332632,1.32989474 C43.1627368,4.97270175 40.8574737,12.2112982 38.628,19.2127018 L38.4525614,19.7621754 C37.0104561,24.3053333 37.1325614,27.9860351 37.2406316,31.2330526 C37.2904561,32.7060351 37.3367719,34.1004211 37.2272982,35.4281404 C36.9276491,39.1123509 34.7192281,40.6681404 32.7522105,40.8969123 C32.5620351,40.9193684 32.3725614,40.9305965 32.1830877,40.9305965" id="Fill-4" fill="#FFFFFF"></path>
                            <path d="M32.1830877,40.9305965 C29.9964211,40.9305965 28.0062456,39.4730526 27.3192281,37.2941053 C26.0988772,33.4281404 23.5564211,30.2807719 21.6385263,28.3221754 C21.0897544,27.7635789 20.1115088,27.7607719 19.5606316,28.3221754 C17.6434386,30.2793684 15.1009825,33.4253333 13.8792281,37.2955088 C13.1332632,39.6604211 10.8441404,41.174807 8.44764912,40.8969123 C6.48133333,40.6681404 4.27291228,39.1130526 3.97185965,35.4281404 C3.86308772,34.1011228 3.90870175,32.7067368 3.95852632,31.2337544 C4.06659649,27.9874386 4.18870175,24.3060351 2.74449123,19.7621754 L2.56764912,19.2084912 C0.340280702,12.2084912 -1.96217544,4.972 3.86589474,1.32989474 C8.60414035,-1.63291228 13.0406316,1.2365614 14.7115088,2.3165614 C14.8350175,2.39726316 14.9430877,2.46673684 15.0322105,2.52287719 C15.1781754,2.61129825 15.3409825,2.71375439 15.5171228,2.82603509 C16.7087018,3.58112281 18.5030877,4.71796491 20.5985263,4.79305263 C22.6960702,4.71796491 24.4918596,3.5797193 25.6827368,2.82533333 C25.8581754,2.71375439 26.0209825,2.61129825 26.1648421,2.52287719 C26.2567719,2.46673684 26.3641404,2.3965614 26.4890526,2.3165614 C28.1585263,1.2365614 32.5929123,-1.63291228 37.3332632,1.32989474 C43.1627368,4.97270175 40.8574737,12.2112982 38.628,19.2127018 L38.4525614,19.7621754 C37.0104561,24.3053333 37.1325614,27.9860351 37.2406316,31.2330526 C37.2904561,32.7060351 37.3367719,34.1004211 37.2272982,35.4281404 C36.9276491,39.1123509 34.7192281,40.6681404 32.7522105,40.8969123 C32.5620351,40.9193684 32.3725614,40.9305965 32.1830877,40.9305965" id="Stroke-6" stroke="#000000" stroke-width="2.10526316"></path>
                        </g>
                        <g id="Group-11" transform="translate(23.859649, 25.263158)">
                            <path d="M1.71845614,10.202807 C0.60477193,6.70315789 -0.546807018,3.08421053 2.36757895,1.26385965 C3.45810526,0.581754386 4.51564912,0.517192982 5.42161404,0.699649123" id="Fill-8" fill="#FFFFFF"></path>
                            <path d="M1.71845614,10.202807 C0.60477193,6.70315789 -0.546807018,3.08421053 2.36757895,1.26385965 C3.45810526,0.581754386 4.51564912,0.517192982 5.42161404,0.699649123" id="Stroke-10" stroke="#000000" stroke-width="1.68421053" stroke-linecap="round"></path>
                        </g>
                        <path d="M52.2906667,36.801614 C51.5931228,36.801614 51.0275088,36.236 51.0275088,35.5384561 L51.0275088,26.9489825 C51.0275088,26.2514386 51.5931228,25.6858246 52.2906667,25.6858246 C52.9882105,25.6858246 53.5538246,26.2514386 53.5538246,26.9489825 L53.5538246,35.5384561 C53.5538246,36.236 52.9882105,36.801614 52.2906667,36.801614" id="Fill-12" fill="#00CEA4"></path>
                        <path d="M56.5855439,32.506807 L47.9960702,32.506807 C47.2985263,32.506807 46.7329123,31.941193 46.7329123,31.2436491 C46.7329123,30.5461053 47.2985263,29.9804912 47.9960702,29.9804912 L56.5855439,29.9804912 C57.2830877,29.9804912 57.8487018,30.5461053 57.8487018,31.2436491 C57.8487018,31.941193 57.2830877,32.506807 56.5855439,32.506807" id="Fill-14" fill="#00CEA4"></path>
                        <g id="Group-19" transform="translate(47.719298, 65.263158)">
                            <line x1="0.350245614" y1="0.846315789" x2="10.1670877" y2="0.846315789" id="Fill-16" fill="#FFFFFF"></line>
                            <line x1="0.350245614" y1="0.846315789" x2="10.1670877" y2="0.846315789" id="Stroke-18" stroke="#231F20" stroke-width="2.10526316" stroke-linecap="round"></line>
                        </g>
                    </g>
                </g>
            </g>
        </g>
    </g>
</svg>
