<?xml version="1.0" encoding="UTF-8"?>
<svg id="Page-1" viewBox="0 0 80 80" version="1.1" xmlns="http://www.w3.org/2000/svg" xmlns:xlink="http://www.w3.org/1999/xlink">
    <!-- Generator: Sketch 64 (93537) - https://sketch.com -->
    <title>Icon/SH/health_assesments_80</title>
    <desc>Created with Sketch.</desc>
    <defs>
        <polygon id="path-1" points="0 0.000140350877 79.9997193 0.000140350877 79.9997193 80 0 80"></polygon>
    </defs>
    <g stroke="none" stroke-width="1" fill="none" fill-rule="evenodd">
        <g id="Group-18">
            <g id="Group-3">
                <mask id="mask-2" fill="white">
                    <use xlink:href="#path-1"></use>
                </mask>
                <g id="Clip-2"></g>
                <path d="M79.9997193,40.0001404 C79.9997193,62.0913684 62.0909474,80.0001404 39.9997193,80.0001404 C17.909193,80.0001404 -0.000280701754,62.0913684 -0.000280701754,40.0001404 C-0.000280701754,17.9089123 17.909193,0.000140350877 39.9997193,0.000140350877 C62.0909474,0.000140350877 79.9997193,17.9089123 79.9997193,40.0001404" id="Fill-1" fill="#BFF3E8" mask="url(#mask-2)"></path>
            </g>
            <g id="Group-7" transform="translate(21.754386, 16.140351)">
                <path d="M31.0365614,14.3394386 L31.0365614,37.1724211 C31.0365614,38.9752281 29.574807,40.4369825 27.772,40.4369825 L3.86252632,40.4369825 C2.0597193,40.4369825 0.597964912,38.9752281 0.597964912,37.1724211 L0.597964912,3.70224561 C0.597964912,1.89873684 2.0597193,0.436982456 3.86252632,0.436982456 L27.772,0.436982456 C29.574807,0.436982456 31.0365614,1.89873684 31.0365614,3.70224561 L31.0365614,9.20891228" id="Fill-4" fill="#FFFFFF"></path>
                <path d="M31.0365614,14.3394386 L31.0365614,37.1724211 C31.0365614,38.9752281 29.574807,40.4369825 27.772,40.4369825 L3.86252632,40.4369825 C2.0597193,40.4369825 0.597964912,38.9752281 0.597964912,37.1724211 L0.597964912,3.70224561 C0.597964912,1.89873684 2.0597193,0.436982456 3.86252632,0.436982456 L27.772,0.436982456 C29.574807,0.436982456 31.0365614,1.89873684 31.0365614,3.70224561 L31.0365614,9.20891228" id="Stroke-6" stroke="#0D2835" stroke-width="2.10526316" stroke-linecap="round" stroke-linejoin="round"></path>
            </g>
            <path d="M44.3,26.202807 L40.385614,26.202807 L40.385614,22.2877193 C40.385614,21.6238596 39.8473684,21.085614 39.1835088,21.085614 L35.9596491,21.085614 C35.2957895,21.085614 34.7575439,21.6238596 34.7575439,22.2877193 L34.7575439,26.202807 L30.8431579,26.202807 C30.1792982,26.202807 29.6410526,26.7410526 29.6410526,27.4042105 L29.6410526,30.6287719 C29.6410526,31.2919298 30.1792982,31.8301754 30.8431579,31.8301754 L34.7575439,31.8301754 L34.7575439,35.7452632 C34.7575439,36.4084211 35.2957895,36.9466667 35.9596491,36.9466667 L39.1835088,36.9466667 C39.8473684,36.9466667 40.385614,36.4084211 40.385614,35.7452632 L40.385614,31.8301754 L44.3,31.8301754 C44.9638596,31.8301754 45.5021053,31.2919298 45.5021053,30.6287719 L45.5021053,27.4042105 C45.5021053,26.7410526 44.9638596,26.202807 44.3,26.202807" id="Fill-8" fill="#00E6B8"></path>
            <path d="M48.8141053,44.1839298 L48.8141053,44.1839298 C48.8141053,44.7565614 48.3502456,45.2218246 47.7769123,45.2218246 L27.366386,45.2218246 C26.7930526,45.2218246 26.329193,44.7565614 26.329193,44.1839298 C26.329193,43.6112982 26.7930526,43.1467368 27.366386,43.1467368 L47.7769123,43.1467368 C48.3502456,43.1467368 48.8141053,43.6112982 48.8141053,44.1839298" id="Fill-10" fill="#0D2835"></path>
            <path d="M48.8141053,49.0352281 L48.8141053,49.0352281 C48.8141053,49.6078596 48.3502456,50.0731228 47.7769123,50.0731228 L27.366386,50.0731228 C26.7930526,50.0731228 26.329193,49.6078596 26.329193,49.0352281 C26.329193,48.4625965 26.7930526,47.9973333 27.366386,47.9973333 L47.7769123,47.9973333 C48.3502456,47.9973333 48.8141053,48.4625965 48.8141053,49.0352281" id="Fill-12" fill="#0D2835"></path>
            <path d="M54.3562105,44.2072281 C48.672,44.2072281 44.0467368,48.8324912 44.0467368,54.516 C44.0467368,60.2002105 48.672,64.8261754 54.3562105,64.8261754 C60.0404211,64.8261754 64.6649825,60.2002105 64.6649825,54.516 C64.6649825,48.8324912 60.0404211,44.2072281 54.3562105,44.2072281" id="Fill-14" fill="#00E6B8"></path>
            <polygon id="Fill-16" fill="#FFFFFF" points="58.6791579 50.192 52.7121404 56.1590175 50.0328421 53.4811228 48.1654737 55.3484912 50.8440702 58.0270877 50.8412632 58.0298947 52.7086316 59.8972632 60.5465263 52.0600702"></polygon>
        </g>
    </g>
</svg>
