<?xml version="1.0" encoding="UTF-8"?>
<svg id="Page-1" viewBox="0 0 80 81" version="1.1" xmlns="http://www.w3.org/2000/svg" xmlns:xlink="http://www.w3.org/1999/xlink">
    <!-- Generator: Sketch 60 (88103) - https://sketch.com -->
    <title>Icon/Hospital</title>
    <desc>Created with Sketch.</desc>
    <defs>
        <polygon id="path-1" points="0.000102428896 0.683508772 80.0180028 0.683508772 80.0180028 80.7017544 0.000102428896 80.7017544"></polygon>
    </defs>
    <g stroke="none" stroke-width="1" fill="none" fill-rule="evenodd">
        <g id="My-Policies---Desktop" transform="translate(-286.000000, -1529.000000)">
            <g id="Group-13-Copy-12" transform="translate(258.000000, 1508.000000)">
                <g id="Icon/Hospital" transform="translate(28.000000, 21.000000)">
                    <g id="Group-44">
                        <g id="Group-3" transform="translate(0.000000, 0.018246)">
                            <mask id="mask-2" fill="white">
                                <use xlink:href="#path-1"></use>
                            </mask>
                            <g id="Clip-2"></g>
                            <path d="M57.4469474,76.6917193 C37.5655439,86.3225965 13.6406316,78.0124211 4.01045614,58.1303158 C-5.62042105,38.2489123 2.68975439,14.324 22.5711579,4.69312281 C42.4532632,-4.93705263 66.3774737,3.37312281 76.0076491,23.2552281 C85.6385263,43.1366316 77.3283509,67.0608421 57.4469474,76.6917193" id="Fill-1" fill="#BFF3E8" mask="url(#mask-2)"></path>
                        </g>
                        <g id="Group-7" transform="translate(14.736842, 23.176140)">
                            <polyline id="Fill-4" fill="#FFFFFF" points="50.5356491 35.2608421 50.5356491 39.9464561 37.7370526 39.9464561 37.7370526 41.1808421 12.8072281 41.1808421 12.8072281 39.9464561 0.00863157895 39.9464561 0.00863157895 10.3878596 12.8072281 10.3878596 12.7854737 0.467859649 37.798807 0.467859649 37.7370526 10.3878596 50.5356491 10.3878596 50.5356491 30.6559298"></polyline>
                            <polyline id="Stroke-6" stroke="#231F20" stroke-width="1.8245614" stroke-linecap="round" stroke-linejoin="round" points="50.5356491 35.2608421 50.5356491 39.9464561 37.7370526 39.9464561 37.7370526 41.1808421 12.8072281 41.1808421 12.8072281 39.9464561 0.00863157895 39.9464561 0.00863157895 10.3878596 12.8072281 10.3878596 12.7854737 0.467859649 37.798807 0.467859649 37.7370526 10.3878596 50.5356491 10.3878596 50.5356491 30.6559298"></polyline>
                        </g>
                        <path d="M32.3441404,31.9505263 C31.8353684,31.9505263 31.4234386,31.5378947 31.4234386,31.0298246 L31.4234386,15.6614035 C31.4234386,15.1526316 31.8353684,14.7407018 32.3441404,14.7407018 L47.7125614,14.7407018 C48.2213333,14.7407018 48.6339649,15.1526316 48.6339649,15.6614035 L48.6339649,31.0298246 C48.6339649,31.5378947 48.2213333,31.9505263 47.7125614,31.9505263 L32.3441404,31.9505263 Z" id="Fill-8" fill="#FFFFFF"></path>
                        <path d="M47.7135439,13.8193684 L32.3451228,13.8193684 C31.3268772,13.8193684 30.5030175,14.6439298 30.5030175,15.6614737 L30.5030175,31.029193 C30.5030175,32.0474386 31.3268772,32.8712982 32.3451228,32.8712982 L47.7135439,32.8712982 C48.730386,32.8712982 49.5549474,32.0474386 49.5549474,31.029193 L49.5549474,15.6614737 C49.5549474,14.6439298 48.730386,13.8193684 47.7135439,13.8193684 L47.7135439,13.8193684 Z M32.3451228,31.029193 L47.7135439,31.029193 L47.7135439,15.6614737 L32.3451228,15.6614737 L32.3451228,31.029193 Z" id="Fill-10" fill="#231F20"></path>
                        <line x1="35.6377544" y1="23.633614" x2="44.1500351" y2="23.633614" id="Stroke-12" stroke="#00CEA4" stroke-width="2.44280702" stroke-linecap="round"></line>
                        <line x1="39.8941754" y1="27.8901053" x2="39.8941754" y2="19.3778246" id="Stroke-14" stroke="#00CEA4" stroke-width="2.44280702" stroke-linecap="round"></line>
                        <g id="Group-19" transform="translate(31.578947, 49.842807)">
                            <polyline id="Fill-16" fill="#FFFFFF" points="0.59045614 13.3207018 0.59045614 0.357894737 16.8662456 0.357894737 16.8662456 13.3207018"></polyline>
                            <polyline id="Stroke-18" stroke="#231F20" stroke-width="1.84210526" stroke-linecap="round" stroke-linejoin="round" points="0.59045614 13.3207018 0.59045614 0.357894737 16.8662456 0.357894737 16.8662456 13.3207018"></polyline>
                        </g>
                        <line x1="40.3074386" y1="50.9026667" x2="40.3074386" y2="64.3574035" id="Stroke-20" stroke="#231F20" stroke-width="1.84210526"></line>
                        <line x1="27.5442807" y1="33.5637193" x2="27.5442807" y2="58.830386" id="Stroke-22" stroke="#231F20" stroke-width="1.8245614" stroke-linecap="round" stroke-linejoin="round"></line>
                        <line x1="52.4736842" y1="37.3425263" x2="52.4736842" y2="62.9944561" id="Stroke-24" stroke="#231F20" stroke-width="1.8245614" stroke-linecap="round" stroke-linejoin="round"></line>
                        <line x1="42.7450526" y1="57.0745965" x2="42.7450526" y2="58.830386" id="Stroke-26" stroke="#231F20" stroke-width="1.75438596" stroke-linecap="round"></line>
                        <line x1="37.765614" y1="57.0745965" x2="37.765614" y2="58.830386" id="Stroke-28" stroke="#231F20" stroke-width="1.75438596" stroke-linecap="round"></line>
                        <line x1="40.0278596" y1="37.3425263" x2="46.2538246" y2="37.3425263" id="Stroke-30" stroke="#231F20" stroke-width="1.8245614" stroke-linecap="round"></line>
                        <line x1="18.557193" y1="39.778807" x2="23.3796491" y2="39.778807" id="Stroke-32" stroke="#231F20" stroke-width="1.8245614" stroke-linecap="round"></line>
                        <line x1="18.557193" y1="44.0002807" x2="23.3796491" y2="44.0002807" id="Stroke-34" stroke="#231F20" stroke-width="1.8245614" stroke-linecap="round"></line>
                        <line x1="56.6684912" y1="39.778807" x2="61.4909474" y2="39.778807" id="Stroke-36" stroke="#231F20" stroke-width="1.8245614" stroke-linecap="round"></line>
                        <line x1="56.6684912" y1="44.0002807" x2="61.4909474" y2="44.0002807" id="Stroke-38" stroke="#231F20" stroke-width="1.8245614" stroke-linecap="round"></line>
                        <line x1="33.7463158" y1="37.3425263" x2="35.9778947" y2="37.3425263" id="Stroke-40" stroke="#231F20" stroke-width="1.8245614" stroke-linecap="round"></line>
                        <line x1="33.7463158" y1="41.9518596" x2="46.2536842" y2="41.9518596" id="Stroke-42" stroke="#231F20" stroke-width="1.8245614" stroke-linecap="round"></line>
                    </g>
                </g>
            </g>
        </g>
    </g>
</svg>
