<?xml version="1.0" encoding="UTF-8"?>
<svg width="80px" height="80px" viewBox="0 0 80 80" version="1.1" xmlns="http://www.w3.org/2000/svg" xmlns:xlink="http://www.w3.org/1999/xlink">
    <!-- Generator: Sketch 64 (93537) - https://sketch.com -->
    <title>Icon/Information book</title>
    <desc>Created with Sketch.</desc>
    <defs>
        <polygon id="path-1" points="0.000242779773 0.6837227 80.0181432 0.6837227 80.0181432 80.7017544 0.000242779773 80.7017544"></polygon>
    </defs>
    <g id="Home-UI" stroke="none" stroke-width="1" fill="none" fill-rule="evenodd">
        <g id="Home---Desktop" transform="translate(-903.000000, -529.000000)">
            <g id="My-entitlements-Copy-3" transform="translate(875.000000, 508.000000)">
                <g id="Icon/SH/teamwork_1" transform="translate(28.000000, 21.000000)">
                    <g id="Group-22" transform="translate(0.000000, -0.701754)">
                        <g id="Group-3" transform="translate(0.000000, 0.018246)">
                            <mask id="mask-2" fill="white">
                                <use xlink:href="#path-1"></use>
                            </mask>
                            <g id="Clip-2"></g>
                            <path d="M57.4470877,76.6916491 C37.5649825,86.3225263 13.6407719,78.0123509 4.01059649,58.1309474 C-5.6202807,38.2488421 2.68989474,14.3246316 22.5712982,4.69375439 C42.4534035,-4.93642105 66.377614,3.37305263 76.0077895,23.2551579 C85.6386667,43.1365614 77.3284912,67.0607719 57.4470877,76.6916491" id="Fill-1" fill="#BFF3E8" mask="url(#mask-2)"></path>
                        </g>
                        <path d="M59.1624561,29.6272281 L59.4129825,29.1163509 C59.262807,29.2328421 59.0747368,29.2995088 58.8768421,29.2995088 C58.6796491,29.2995088 58.4929825,29.2335439 58.3421053,29.1177544 L58.5926316,29.6272281 L59.1624561,29.6272281 Z M65.222807,40.653193 C64.8354386,40.653193 64.5070175,40.4019649 64.3905263,40.0545965 C64.2740351,40.4019649 63.945614,40.653193 63.5589474,40.653193 L54.1954386,40.653193 C53.8080702,40.653193 53.4796491,40.4019649 53.3631579,40.0545965 C53.2466667,40.4019649 52.9189474,40.653193 52.5315789,40.653193 L50.1708772,40.653193 C49.6866667,40.653193 49.2936842,40.2602105 49.2936842,39.776 L49.2936842,28.6377544 C49.2936842,26.0700351 51.3835088,23.9802105 53.9519298,23.9802105 L55.2747368,23.9802105 C55.6094737,23.9802105 55.9147368,24.1710877 56.0621053,24.4707368 L56.2508772,24.8545965 C56.2515789,24.6945965 56.2957895,24.5338947 56.3835088,24.3935439 C56.5435088,24.1367018 56.8249123,23.9802105 57.1280702,23.9802105 L57.8964912,23.9802105 C55.4192982,23.5184561 53.537193,21.3395088 53.537193,18.7310877 C53.537193,15.7858246 55.9322807,13.3907368 58.8775439,13.3907368 C61.8214035,13.3907368 64.2164912,15.7858246 64.2164912,18.7310877 C64.2164912,21.3395088 62.3350877,23.5177544 59.8585965,23.9802105 L60.6263158,23.9802105 C60.9294737,23.9802105 61.2108772,24.1367018 61.3701754,24.3935439 C61.4585965,24.5345965 61.5035088,24.6952982 61.5035088,24.856 L61.6922807,24.4707368 C61.8396491,24.1710877 62.145614,23.9802105 62.4803509,23.9802105 L63.8017544,23.9802105 C66.3701754,23.9802105 68.46,26.0700351 68.46,28.6377544 L68.46,39.776 C68.46,40.2602105 68.0670175,40.653193 67.582807,40.653193 L65.222807,40.653193 Z" id="Fill-4" fill="#FFFFFF"></path>
                        <path d="M58.8773333,12.5136842 C55.4492632,12.5136842 52.6604912,15.3031579 52.6604912,18.7305263 C52.6604912,20.4336842 53.3482105,21.9789474 54.461193,23.1031579 L53.9517193,23.1031579 C50.9004912,23.1031579 48.4169825,25.5859649 48.4169825,28.6378947 L48.4169825,39.7754386 C48.4169825,40.7445614 49.2022456,41.5298246 50.1713684,41.5298246 L52.5313684,41.5298246 C52.8324211,41.5298246 53.1152281,41.4540351 53.3636491,41.3207018 C53.6106667,41.4540351 53.8934737,41.5298246 54.1952281,41.5298246 L63.5594386,41.5298246 C63.8604912,41.5298246 64.1432982,41.4540351 64.3910175,41.3207018 C64.6387368,41.4540351 64.9215439,41.5298246 65.2232982,41.5298246 L67.5825965,41.5298246 C68.5517193,41.5298246 69.3369825,40.7445614 69.3369825,39.7754386 L69.3369825,28.6378947 C69.3369825,25.5859649 66.8541754,23.1031579 63.8022456,23.1031579 L63.2920702,23.1031579 C64.4050526,21.9789474 65.0934737,20.4336842 65.0934737,18.7305263 C65.0934737,15.3031579 62.3054035,12.5136842 58.8773333,12.5136842 M60.6261053,24.8575439 L58.8773333,28.4224561 L57.1278596,24.8575439 L60.6261053,24.8575439 M63.8022456,24.8575439 C65.8864561,24.8575439 67.5825965,26.5529825 67.5825965,28.6378947 L67.5825965,39.7754386 L65.2232982,39.7754386 L65.2232982,29.5529825 L63.5594386,29.5529825 L63.5594386,39.7754386 L54.1952281,39.7754386 L54.1952281,29.5529825 L52.5313684,29.5529825 L52.5313684,39.7754386 L50.1713684,39.7754386 L50.1713684,28.6378947 C50.1713684,26.5529825 51.8675088,24.8575439 53.9517193,24.8575439 L55.2738246,24.8575439 L58.0450526,30.5045614 L59.709614,30.5045614 L62.4794386,24.8575439 L63.8022456,24.8575439 M58.8773333,14.2680702 C61.3376842,14.2680702 63.3390877,16.2701754 63.3390877,18.7305263 C63.3390877,21.1908772 61.3376842,23.1936842 58.8773333,23.1936842 C56.4162807,23.1929825 54.4148772,21.1908772 54.4148772,18.7305263 C54.4148772,16.2701754 56.4162807,14.2680702 58.8773333,14.2680702" id="Fill-6" fill="#231F20"></path>
                        <path d="M23.710807,29.6272281 L23.9606316,29.1170526 C23.8111579,29.2328421 23.6230877,29.2995088 23.4258947,29.2995088 C23.2287018,29.2995088 23.0406316,29.2328421 22.8904561,29.1170526 L23.1409825,29.6272281 L23.710807,29.6272281 Z M29.7718596,40.653193 C29.3844912,40.653193 29.0560702,40.4019649 28.9395789,40.0545965 C28.8230877,40.4019649 28.4946667,40.653193 28.108,40.653193 L18.7437895,40.653193 C18.3564211,40.653193 18.028,40.4019649 17.9115088,40.0545965 C17.7950175,40.4019649 17.4672982,40.653193 17.0799298,40.653193 L14.7199298,40.653193 C14.2357193,40.653193 13.8427368,40.2602105 13.8427368,39.776 L13.8427368,28.6377544 C13.8427368,26.0700351 15.9325614,23.9802105 18.5002807,23.9802105 L19.8230877,23.9802105 C20.1578246,23.9802105 20.4630877,24.1710877 20.6104561,24.4707368 L20.7999298,24.856 C20.7999298,24.6952982 20.8441404,24.5345965 20.9325614,24.3935439 C21.0925614,24.1367018 21.3739649,23.9802105 21.6771228,23.9802105 L22.4448421,23.9802105 C19.9676491,23.5184561 18.0855439,21.3395088 18.0855439,18.7310877 C18.0855439,15.7858246 20.4806316,13.3907368 23.4258947,13.3907368 C26.3704561,13.3907368 28.7655439,15.7858246 28.7655439,18.7310877 C28.7655439,21.3395088 26.8841404,23.5177544 24.4076491,23.9802105 L25.1746667,23.9802105 C25.4778246,23.9802105 25.7592281,24.1367018 25.9185263,24.3935439 C26.0069474,24.5345965 26.0518596,24.6952982 26.0518596,24.856 L26.2406316,24.4707368 C26.388,24.1710877 26.6939649,23.9802105 27.0287018,23.9802105 L28.350807,23.9802105 C30.9185263,23.9802105 33.0083509,26.0700351 33.0083509,28.6377544 L33.0083509,39.776 C33.0083509,40.2602105 32.6153684,40.653193 32.1311579,40.653193 L29.7718596,40.653193 Z" id="Fill-8" fill="#FFFFFF"></path>
                        <path d="M23.4257544,12.5136842 C19.9976842,12.5136842 17.209614,15.3031579 17.209614,18.7305263 C17.209614,20.4336842 17.8973333,21.9789474 19.0103158,23.1031579 L18.5001404,23.1031579 C15.4489123,23.1031579 12.9661053,25.5859649 12.9661053,28.6378947 L12.9661053,39.7754386 C12.9661053,40.7445614 13.7513684,41.5298246 14.7204912,41.5298246 L17.0797895,41.5298246 C17.3808421,41.5298246 17.6643509,41.4540351 17.9127719,41.3207018 C18.1590877,41.4540351 18.4425965,41.5298246 18.7443509,41.5298246 L28.1078596,41.5298246 C28.4089123,41.5298246 28.6924211,41.4540351 28.9394386,41.3207018 C29.1871579,41.4540351 29.4706667,41.5298246 29.7717193,41.5298246 L32.1310175,41.5298246 C33.1001404,41.5298246 33.8854035,40.7445614 33.8854035,39.7754386 L33.8854035,28.6378947 C33.8854035,25.5859649 31.4032982,23.1031579 28.3513684,23.1031579 L27.841193,23.1031579 C28.9541754,21.9789474 29.6418947,20.4336842 29.6418947,18.7305263 C29.6418947,15.3031579 26.8538246,12.5136842 23.4257544,12.5136842 M25.1745263,24.8575439 L23.4257544,28.4224561 L21.6762807,24.8575439 L25.1745263,24.8575439 M28.3513684,24.8575439 C30.4355789,24.8575439 32.1310175,26.5529825 32.1310175,28.6378947 L32.1310175,39.7754386 L29.7717193,39.7754386 L29.7717193,29.5529825 L28.1078596,29.5529825 L28.1078596,39.7754386 L18.7443509,39.7754386 L18.7443509,29.5529825 L17.0797895,29.5529825 L17.0797895,39.7754386 L14.7204912,39.7754386 L14.7204912,28.6378947 C14.7204912,26.5529825 16.4159298,24.8575439 18.5001404,24.8575439 L19.8229474,24.8575439 L22.5934737,30.5045614 L24.2580351,30.5045614 L27.0285614,24.8575439 L28.3513684,24.8575439 M23.4257544,14.2680702 C25.886807,14.2680702 27.8875088,16.2701754 27.8875088,18.7305263 C27.8875088,21.1908772 25.886807,23.1936842 23.4257544,23.1936842 C20.9647018,23.1929825 18.964,21.1908772 18.964,18.7305263 C18.964,16.2701754 20.9647018,14.2680702 23.4257544,14.2680702" id="Fill-10" fill="#231F20"></path>
                        <path d="M41.1265263,61.3562105 L41.3763509,60.8460351 C41.2268772,60.9618246 41.038807,61.0284912 40.841614,61.0284912 C40.6444211,61.0284912 40.4563509,60.9618246 40.3061754,60.8460351 L40.5567018,61.3562105 L41.1265263,61.3562105 Z M47.1875789,72.3821754 C46.8002105,72.3821754 46.4717895,72.1309474 46.3552982,71.7835789 C46.238807,72.1309474 45.910386,72.3821754 45.5237193,72.3821754 L36.1602105,72.3821754 C35.7728421,72.3821754 35.4437193,72.1309474 35.3272281,71.7821754 C35.2114386,72.1309474 34.8830175,72.3821754 34.4956491,72.3821754 L32.1356491,72.3821754 C31.6514386,72.3821754 31.2584561,71.989193 31.2584561,71.5049825 L31.2584561,60.3667368 C31.2584561,57.7990175 33.3482807,55.709193 35.9167018,55.709193 L37.238807,55.709193 C37.5735439,55.709193 37.878807,55.9000702 38.0261754,56.1997193 L38.2156491,56.5849825 C38.2156491,56.4242807 38.2598596,56.2635789 38.3482807,56.1225263 C38.5082807,55.8656842 38.7896842,55.709193 39.0928421,55.709193 L39.8605614,55.709193 C37.3833684,55.2474386 35.5019649,53.0684912 35.5019649,50.4600702 C35.5019649,47.514807 37.8970526,45.1197193 40.841614,45.1197193 C43.7861754,45.1197193 46.1812632,47.514807 46.1812632,50.4600702 C46.1812632,53.0684912 44.2998596,55.2467368 41.8233684,55.709193 L42.590386,55.709193 C42.8935439,55.709193 43.1749474,55.8656842 43.3342456,56.1225263 C43.4226667,56.2635789 43.4675789,56.4242807 43.4675789,56.5849825 L43.6563509,56.1997193 C43.8037193,55.9000702 44.1096842,55.709193 44.4444211,55.709193 L45.7665263,55.709193 C48.3349474,55.709193 50.4247719,57.7990175 50.4247719,60.3667368 L50.4247719,71.5049825 C50.4247719,71.989193 50.0317895,72.3821754 49.5475789,72.3821754 L47.1875789,72.3821754 Z" id="Fill-12" fill="#FFFFFF"></path>
                        <path d="M40.8414737,44.2427368 C37.4134035,44.2427368 34.6246316,47.0322105 34.6246316,50.4595789 C34.6246316,52.1627368 35.3130526,53.708 36.4267368,54.8322105 L35.9165614,54.8322105 C32.8646316,54.8322105 30.3818246,57.3150175 30.3818246,60.3669474 L30.3818246,71.505193 C30.3818246,72.473614 31.1670877,73.2595789 32.1362105,73.2595789 L34.4955088,73.2595789 C34.7972632,73.2595789 35.0800702,73.1830877 35.3277895,73.0497544 C35.5755088,73.1830877 35.8583158,73.2595789 36.1593684,73.2595789 L45.5235789,73.2595789 C45.8253333,73.2595789 46.1074386,73.1830877 46.3551579,73.0497544 C46.6035789,73.1830877 46.8856842,73.2595789 47.1874386,73.2595789 L49.5474386,73.2595789 C50.5165614,73.2595789 51.3018246,72.473614 51.3018246,71.505193 L51.3018246,60.3669474 C51.3018246,57.3150175 48.8183158,54.8322105 45.7670877,54.8322105 L45.2569123,54.8322105 C46.3698947,53.708 47.0583158,52.1627368 47.0583158,50.4595789 C47.0583158,47.0322105 44.2695439,44.2427368 40.8414737,44.2427368 M42.5902456,56.5865965 L40.8414737,60.1515088 L39.0927018,56.5865965 L42.5902456,56.5865965 M45.7670877,56.5865965 C47.8512982,56.5865965 49.5474386,58.2827368 49.5474386,60.3669474 L49.5474386,71.505193 L47.1874386,71.505193 L47.1874386,61.2820351 L45.5235789,61.2820351 L45.5235789,71.505193 L36.1593684,71.505193 L36.1593684,61.2820351 L34.4955088,61.2820351 L34.4955088,71.505193 L32.1362105,71.505193 L32.1362105,60.3669474 C32.1362105,58.2820351 33.8323509,56.5865965 35.9165614,56.5865965 L37.2386667,56.5865965 L40.009193,62.233614 L41.6737544,62.233614 L44.4449825,56.5865965 L45.7670877,56.5865965 M40.8414737,45.9971228 C43.3018246,45.9971228 45.3039298,47.9992281 45.3039298,50.4595789 C45.3039298,52.9199298 43.3018246,54.9220351 40.8414737,54.9220351 C38.3811228,54.9220351 36.3790175,52.9199298 36.3790175,50.4595789 C36.3790175,47.9992281 38.3811228,45.9971228 40.8414737,45.9971228" id="Fill-14" fill="#231F20"></path>
                        <path d="M21.8077193,44.0159298 L20.1635088,44.2734737 C20.9150877,49.0601404 23.3396491,53.4734737 26.9894737,56.6987368 L28.0912281,55.4517193 C24.7305263,52.4818947 22.4989474,48.4208421 21.8077193,44.0159298" id="Fill-16" fill="#00CEA4"></path>
                        <path d="M59.8875088,44.0159298 C59.1962807,48.4208421 56.9647018,52.4818947 53.604,55.4517193 L54.7057544,56.6987368 C58.3562807,53.4734737 60.7801404,49.0601404 61.5317193,44.2734737 L59.8875088,44.0159298 Z" id="Fill-18" fill="#00CEA4"></path>
                        <path d="M40.8475789,20.0651228 C38.0840702,20.0651228 35.3977544,20.5956491 32.8637193,21.6412632 L33.498807,23.1795088 C35.8307368,22.2174035 38.3030175,21.7296842 40.8475789,21.7296842 C43.3879298,21.7296842 45.8574035,22.2152982 48.1851228,23.1752982 L48.818807,21.6363509 C46.2889825,20.5942456 43.6068772,20.0651228 40.8475789,20.0651228" id="Fill-20" fill="#00CEA4"></path>
                    </g>
                </g>
            </g>
        </g>
    </g>
</svg>