<?xml version="1.0" encoding="UTF-8"?>
<svg id="Page-1" viewBox="0 0 80 80" version="1.1" xmlns="http://www.w3.org/2000/svg" xmlns:xlink="http://www.w3.org/1999/xlink">
    <!-- Generator: Sketch 60 (88103) - https://sketch.com -->
    <title>Icon/Payment</title>
    <desc>Created with Sketch.</desc>
    <defs>
        <polygon id="path-1" points="7.01754386e-05 0 80 0 80 79.9999298 7.01754386e-05 79.9999298"></polygon>
        <polygon id="path-3" points="0 80 80 80 80 0 0 0"></polygon>
    </defs>
    <g stroke="none" stroke-width="1" fill="none" fill-rule="evenodd">
        <g id="Desktop" transform="translate(-750.000000, -255.000000)">
            <g id="Make-a-claim" transform="translate(722.000000, 234.000000)">
                <g id="Icon/Payment" transform="translate(28.000000, 21.000000)">
                    <g id="Group-23">
                        <g id="Group-3">
                            <mask id="mask-2" fill="white">
                                <use xlink:href="#path-1"></use>
                            </mask>
                            <g id="Clip-2"></g>
                            <path d="M80.0000702,39.9999298 C80.0000702,62.0911579 62.0912982,79.9999298 40.0000702,79.9999298 C17.9088421,79.9999298 7.01754386e-05,62.0911579 7.01754386e-05,39.9999298 C7.01754386e-05,17.9087018 17.9088421,-7.01754386e-05 40.0000702,-7.01754386e-05 C62.0912982,-7.01754386e-05 80.0000702,17.9087018 80.0000702,39.9999298" id="Fill-1" fill="#BFF3E8" mask="url(#mask-2)"></path>
                        </g>
                        <path d="M23.9159298,52.6602807 L58.826807,52.6602807 C62.1089123,52.6602807 64.7945263,49.9746667 64.7945263,46.6925614 L64.7945263,26.7943158 C64.7945263,23.5122105 62.1089123,20.8265965 58.826807,20.8265965 L23.9159298,20.8265965 C20.6338246,20.8265965 17.9482105,23.5122105 17.9482105,26.7943158 L17.9482105,46.6925614 C17.9482105,49.9746667 20.6338246,52.6602807 23.9159298,52.6602807" id="Fill-4" fill="#FFFFFF"></path>
                        <path d="M23.9159298,52.6602807 L58.826807,52.6602807 C62.1089123,52.6602807 64.7945263,49.9746667 64.7945263,46.6925614 L64.7945263,26.7943158 C64.7945263,23.5122105 62.1089123,20.8265965 58.826807,20.8265965 L23.9159298,20.8265965 C20.6338246,20.8265965 17.9482105,23.5122105 17.9482105,26.7943158 L17.9482105,46.6925614 C17.9482105,49.9746667 20.6338246,52.6602807 23.9159298,52.6602807 Z" id="Stroke-6" stroke="#FFFFFF" stroke-width="0.701754386"></path>
                        <mask id="mask-4" fill="white">
                            <use xlink:href="#path-3"></use>
                        </mask>
                        <g id="Clip-9"></g>
                        <polygon id="Fill-8" fill="#000000" mask="url(#mask-4)" points="18.4168421 33.9424561 63.9964912 33.9424561 63.9964912 26.2505263 18.4168421 26.2505263"></polygon>
                        <line x1="53.1497544" y1="36.713193" x2="59.5960702" y2="36.713193" id="Stroke-10" stroke="#00CEA4" stroke-width="2.10526316" stroke-linecap="round" mask="url(#mask-4)"></line>
                        <path d="M46.874386,52.6602807 L58.8266667,52.6602807 C62.1087719,52.6602807 64.794386,49.9746667 64.794386,46.6925614 L64.794386,26.7943158 C64.794386,23.5122105 62.1087719,20.8265965 58.8266667,20.8265965 L52.9375439,20.8265965" id="Stroke-11" stroke="#000000" stroke-width="2.10526316" stroke-linecap="round" mask="url(#mask-4)"></path>
                        <path d="M46.874386,20.826386 L23.9157895,20.826386 C20.6336842,20.826386 17.9480702,23.512 17.9480702,26.7941053 L17.9480702,46.6923509 C17.9480702,49.9744561 20.6336842,52.6600702 23.9157895,52.6600702 L42.1403509,52.6600702" id="Stroke-12" stroke="#000000" stroke-width="2.10526316" stroke-linecap="round" mask="url(#mask-4)"></path>
                        <path d="M27.3636491,62.5883509 L40.3524211,62.5883509 C41.4078596,62.5883509 42.2703158,61.7258947 42.2703158,60.6704561 L42.2703158,48.7167719 C42.2703158,47.6620351 41.4078596,46.7988772 40.3524211,46.7988772 L27.3636491,46.7988772 C26.3082105,46.7988772 25.4457544,47.6620351 25.4457544,48.7167719 L25.4457544,60.6704561 C25.4457544,61.7258947 26.3082105,62.5883509 27.3636491,62.5883509" id="Fill-13" fill="#FFFFFF" mask="url(#mask-4)"></path>
                        <path d="M28.5869474,61.8865965 L39.4087018,61.8865965 C41.1539649,61.8865965 42.5820351,60.4585263 42.5820351,58.7132632 L42.5820351,48.8781754 C42.5820351,47.1329123 41.1539649,45.7041404 39.4087018,45.7041404 L28.3076491,45.7041404 C26.5616842,45.7041404 25.133614,47.1329123 25.133614,48.8781754 L25.133614,58.7132632 C25.133614,60.4585263 26.5616842,61.8865965 28.3076491,61.8865965 L29.2444912,61.8865965" id="Stroke-14" stroke="#000000" stroke-width="2.10526316" stroke-linecap="round" mask="url(#mask-4)"></path>
                        <path d="M28.2305965,45.513193 L28.2305965,42.3595088 C28.2305965,40.318807 29.9000702,38.6493333 31.9407719,38.6493333 L35.7751579,38.6493333 C37.8158596,38.6493333 39.4853333,40.318807 39.4853333,42.3595088 L39.4853333,45.513193" id="Stroke-15" stroke="#000000" stroke-width="2.10526316" stroke-linecap="round" mask="url(#mask-4)"></path>
                        <path d="M31.4247719,53.2551579 C31.4247719,51.9112982 32.5145965,50.8221754 33.8577544,50.8221754 C35.201614,50.8221754 36.2914386,51.9112982 36.2914386,53.2551579 C36.2914386,54.1625263 35.7945965,54.9534035 35.0577544,55.3716491 L35.4310877,57.5442807 C35.4310877,57.8235789 35.2023158,58.0523509 34.9230175,58.0523509 L32.7924912,58.0523509 C32.5138947,58.0523509 32.2851228,57.8235789 32.2851228,57.5442807 L32.6584561,55.3716491 C31.921614,54.9534035 31.4247719,54.1625263 31.4247719,53.2551579" id="Fill-16" fill="#000000" mask="url(#mask-4)"></path>
                        <g id="Group-19" mask="url(#mask-4)">
                            <g transform="translate(25.263158, 65.263158)">
                                <line x1="0.350245614" y1="0.846315789" x2="17.886386" y2="0.846315789" id="Fill-17" stroke="none" fill="#FFFFFF" fill-rule="evenodd"></line>
                                <line x1="0.350245614" y1="0.846315789" x2="17.886386" y2="0.846315789" id="Stroke-18" stroke="#000000" stroke-width="2.10526316" fill="none" stroke-linecap="round" stroke-linejoin="round"></line>
                            </g>
                        </g>
                        <g id="Group-22" mask="url(#mask-4)">
                            <g transform="translate(52.631579, 16.140351)">
                                <line x1="0.350245614" y1="0.846245614" x2="8.06182456" y2="0.846245614" id="Fill-20" stroke="none" fill="#FFFFFF" fill-rule="evenodd"></line>
                                <line x1="0.350245614" y1="0.846245614" x2="8.06182456" y2="0.846245614" id="Stroke-21" stroke="#000000" stroke-width="2.10526316" fill="none" stroke-linecap="round" stroke-linejoin="round"></line>
                            </g>
                        </g>
                    </g>
                </g>
            </g>
        </g>
    </g>
</svg>
