<svg xmlns="http://www.w3.org/2000/svg" viewBox="0 0 114 114"><defs><style>.a{fill:#bff3e8;}.b,.c{fill:#fff;}.b,.c,.d,.g,.h{stroke:#0d2835;stroke-width:3px;}.b,.c,.d,.h{stroke-linecap:round;}.b,.d,.g,.h{stroke-miterlimit:10;}.c{stroke-linejoin:round;}.d,.h{fill:none;}.d,.e{fill-rule:evenodd;}.e{fill:#0d2835;}.f,.g{fill:#00e6b8;}</style></defs><title>Asset 8</title><circle class="a" cx="57" cy="57" r="57"/><line class="b" x1="62.41" y1="94.21" x2="73.4" y2="94.21"/><path class="c" d="M88.17,48.55C79,30.69,55.4,30.29,41.9,35.59c-3.71-.55-11.2-.91-17.56,2-1,.44-.74,1.29-.24,2.24a13.89,13.89,0,0,0,6.22,6.29c-1.92,2.54-3,4-3.78,7.56a6.78,6.78,0,0,1-2,3.7,5.4,5.4,0,0,1-3,1.48c-2,.46-2.24,1.28-2.18,2.76A17.67,17.67,0,0,0,21,68.12a10.41,10.41,0,0,0,1.9,2.82,6.23,6.23,0,0,0,2.41,1.58,20.32,20.32,0,0,0,4.46.8A22.48,22.48,0,0,0,37.82,81a50.05,50.05,0,0,1-.29,7.59h8.78a2.37,2.37,0,0,0,2.17-1.13,21.35,21.35,0,0,0,1.91-3.86,57.67,57.67,0,0,0,14-.16,38.1,38.1,0,0,1-.52,5.15h8.74a3.19,3.19,0,0,0,2.73-1.47c7.41-9.06,20.41-20.38,12.86-38.58"/><path class="d" d="M88,47.52c.35-.24,5.52-2.88,4.69-7.07-.06-.26-.6-2.83-2.33-3.23a2.18,2.18,0,0,0-2.11.63c-.78.95-.17,2.48.07,3.1a6.3,6.3,0,0,0,5.13,4,5.67,5.67,0,0,0,3.15-.67"/><path class="e" d="M36.39,56.47a2.72,2.72,0,1,1-2.72-2.71,2.72,2.72,0,0,1,2.72,2.71"/><path class="f" d="M50,65.81h2.3v-5h-1.9V58.32h1.9V56a5.2,5.2,0,0,1,.41-2.07,4.67,4.67,0,0,1,1.14-1.62,5.3,5.3,0,0,1,1.75-1.05,6.37,6.37,0,0,1,2.21-.37,9.26,9.26,0,0,1,2,.22,16.05,16.05,0,0,1,2.17.62l-.84,2.43a6.92,6.92,0,0,0-2.68-.59,2.79,2.79,0,0,0-2,.74,2.59,2.59,0,0,0-.77,1.94v2.07h4.39v2.51H55.66v5H62v2.55H50Z"/><circle class="c" cx="64.56" cy="28.56" r="10.58"/><path class="g" d="M57.67,40a54.78,54.78,0,0,1,10.94,1.1,11.48,11.48,0,1,0-21.88,0A54.78,54.78,0,0,1,57.67,40Z"/><path class="h" d="M43.5,43a44.26,44.26,0,0,1,27.64-.48"/></svg>