<?xml version="1.0" encoding="UTF-8"?>
<svg id="Page-1" viewBox="0 0 80 80" version="1.1" xmlns="http://www.w3.org/2000/svg" xmlns:xlink="http://www.w3.org/1999/xlink">
    <!-- Generator: Sketch 60 (88103) - https://sketch.com -->
    <title>Icon/Piggy bank</title>
    <desc>Created with Sketch.</desc>
    <g id="Icon/Piggy-bank" stroke="none" stroke-width="1" fill="none" fill-rule="evenodd">
        <g id="Piggybank">
            <path d="M114.0005,57 C114.0005,88.48 88.4805,114 57.0005,114 C25.5205,114 0.0005,88.48 0.0005,57 C0.0005,25.52 25.5205,0 57.0005,0 C88.4805,0 114.0005,25.52 114.0005,57" id="Fill-1" fill="#BFF3E8"></path>
            <line x1="62.4058" y1="94.2051" x2="73.3948" y2="94.2051" id="Stroke-6" stroke="#0D2835" stroke-width="3" stroke-linecap="round"></line>
            <path d="M88.1655,48.5498 C79.0055,30.6898 55.3985,30.2908 41.9015,35.5928 C38.1895,35.0388 30.7045,34.6788 24.3395,37.5518 C23.3655,37.9918 23.6045,38.8388 24.1015,39.7888 C25.5755,42.6058 27.1465,44.2868 30.3155,46.0818 C28.4035,48.6218 27.3525,50.0398 26.5405,53.6358 C26.1515,55.3528 25.4645,56.4788 24.5225,57.3428 C23.5005,58.2818 22.8995,58.4918 21.4835,58.8188 C19.5035,59.2778 19.2345,60.0978 19.3045,61.5828 C19.4015,63.7128 20.0175,66.0578 20.9975,68.1158 C21.5245,69.2228 22.1635,70.1828 22.9045,70.9418 C23.6145,71.6688 24.4185,72.2108 25.3095,72.5208 C26.9795,73.1018 28.7225,73.1958 29.7705,73.3158 C32.0565,76.6718 33.9765,78.7608 37.8195,81.0098 C38.0315,83.6728 37.6625,87.0138 37.5335,88.6038 L46.3085,88.6038 C47.3435,88.6038 47.8355,88.2908 48.4825,87.4708 C49.1555,86.6228 49.9325,84.6738 50.3865,83.6098 C54.3945,84.1628 60.5605,84.0308 64.3635,83.4478 C64.3505,85.0648 64.0255,87.5328 63.8375,88.6038 L72.5825,88.6038 C73.9785,88.6038 74.6435,87.9538 75.3125,87.1328 C82.7195,78.0738 95.7245,66.7548 88.1655,48.5498" id="pig-fill" fill="#FFFFFF"></path>
            <path d="M88.1655,48.5498 C79.0055,30.6898 55.3985,30.2908 41.9015,35.5928 C38.1895,35.0388 30.7045,34.6788 24.3395,37.5518 C23.3655,37.9918 23.6045,38.8388 24.1015,39.7888 C25.5755,42.6058 27.1465,44.2868 30.3155,46.0818 C28.4035,48.6218 27.3525,50.0398 26.5405,53.6358 C26.1515,55.3528 25.4645,56.4788 24.5225,57.3428 C23.5005,58.2818 22.8995,58.4918 21.4835,58.8188 C19.5035,59.2778 19.2345,60.0978 19.3045,61.5828 C19.4015,63.7128 20.0175,66.0578 20.9975,68.1158 C21.5245,69.2228 22.1635,70.1828 22.9045,70.9418 C23.6145,71.6688 24.4185,72.2108 25.3095,72.5208 C26.9795,73.1018 28.7225,73.1958 29.7705,73.3158 C32.0565,76.6718 33.9765,78.7608 37.8195,81.0098 C38.0315,83.6728 37.6625,87.0138 37.5335,88.6038 L46.3085,88.6038 C47.3435,88.6038 47.8355,88.2908 48.4825,87.4708 C49.1555,86.6228 49.9325,84.6738 50.3865,83.6098 C54.3945,84.1628 60.5605,84.0308 64.3635,83.4478 C64.3505,85.0648 64.0255,87.5328 63.8375,88.6038 L72.5825,88.6038 C73.9785,88.6038 74.6435,87.9538 75.3125,87.1328 C82.7195,78.0738 95.7245,66.7548 88.1655,48.5498" id="pig-stroke" stroke="#0D2835" stroke-width="3" stroke-linecap="round" stroke-linejoin="round"></path>
            <path d="M87.9917,47.5156 C88.3417,47.2786 93.5117,44.6356 92.6757,40.4536 C92.6227,40.1896 92.0757,37.6206 90.3527,37.2156 C89.6437,37.0486 88.7357,37.2466 88.2407,37.8486 C87.4587,38.8016 88.0687,40.3346 88.3117,40.9466 C88.9417,42.5286 90.6517,44.7336 93.4407,44.9576 C94.6967,45.0596 95.7647,44.7266 96.5947,44.2916" id="Stroke-12" stroke="#0D2835" stroke-width="3" stroke-linecap="round"></path>
            <path d="M36.3853,56.4727 C36.3853,57.9727 35.1723,59.1897 33.6723,59.1897 C32.1753,59.1897 30.9603,57.9727 30.9603,56.4727 C30.9603,54.9727 32.1753,53.7567 33.6723,53.7567 C35.1723,53.7567 36.3853,54.9727 36.3853,56.4727" id="Fill-14" fill="#0D2835"></path>
            <path d="M49.9751,65.8096 L52.2851,65.8096 L52.2851,60.8286 L50.3811,60.8286 L50.3811,58.3246 L52.2851,58.3246 L52.2851,55.9986 C52.2851,55.2496 52.4201,54.5606 52.6901,53.9296 C52.9601,53.2996 53.3411,52.7586 53.8311,52.3076 C54.3221,51.8566 54.9071,51.5066 55.5821,51.2606 C56.2591,51.0136 56.9961,50.8896 57.7901,50.8896 C58.4321,50.8896 59.0961,50.9616 59.7821,51.1076 C60.4661,51.2516 61.1891,51.4606 61.9511,51.7326 L61.1141,54.1606 C60.1831,53.7686 59.2881,53.5726 58.4251,53.5726 C57.6131,53.5726 56.9481,53.8196 56.4321,54.3136 C55.9171,54.8066 55.6601,55.4546 55.6601,56.2546 L55.6601,58.3246 L60.0481,58.3246 L60.0481,60.8286 L55.6601,60.8286 L55.6601,65.8096 L61.9511,65.8096 L61.9511,68.3646 L49.9751,68.3646 L49.9751,65.8096 Z" id="Fill-16" fill="#00E6B8"></path>
            <path d="M75.1421,28.5605 C75.1421,34.4065 70.4041,39.1445 64.5591,39.1445 C58.7131,39.1445 53.9751,34.4065 53.9751,28.5605 C53.9751,22.7155 58.7131,17.9775 64.5591,17.9775 C70.4041,17.9775 75.1421,22.7155 75.1421,28.5605" id="Fill-18" fill="#FFFFFF"></path>
            <path d="M75.1421,28.5605 C75.1421,34.4065 70.4041,39.1445 64.5591,39.1445 C58.7131,39.1445 53.9751,34.4065 53.9751,28.5605 C53.9751,22.7155 58.7131,17.9775 64.5591,17.9775 C70.4041,17.9775 75.1421,22.7155 75.1421,28.5605 Z" id="Stroke-20" stroke="#0D2835" stroke-width="3" stroke-linecap="round" stroke-linejoin="round"></path>
            <path d="M57.6694,40.0234 C61.4154,40.0234 65.0734,40.4034 68.6074,41.1244 C68.9584,40.0214 69.1514,38.8484 69.1514,37.6294 C69.1514,31.2884 64.0114,26.1474 57.6694,26.1474 C51.3274,26.1474 46.1874,31.2884 46.1874,37.6294 C46.1874,38.8484 46.3804,40.0214 46.7314,41.1244 C50.2654,40.4034 53.9234,40.0234 57.6694,40.0234" id="Fill-22" fill="#00E6B8"></path>
            <path d="M57.6694,40.0234 C61.4154,40.0234 65.0734,40.4034 68.6074,41.1244 C68.9584,40.0214 69.1514,38.8484 69.1514,37.6294 C69.1514,31.2884 64.0114,26.1474 57.6694,26.1474 C51.3274,26.1474 46.1874,31.2884 46.1874,37.6294 C46.1874,38.8484 46.3804,40.0214 46.7314,41.1244 C50.2654,40.4034 53.9234,40.0234 57.6694,40.0234 Z" id="Stroke-24" stroke="#0D2835" stroke-width="3"></path>
            <path d="M43.4966,43.0049 C48.0546,41.4069 52.9546,40.5379 58.0586,40.5379 C62.6146,40.5379 67.0096,41.2309 71.1426,42.5169" id="Stroke-26" stroke="#0D2835" stroke-width="3" stroke-linecap="round"></path>
        </g>
    </g>
</svg>
