<?xml version="1.0" encoding="UTF-8"?>
<svg id="Page-1" viewBox="0 0 80 80" version="1.1" xmlns="http://www.w3.org/2000/svg" xmlns:xlink="http://www.w3.org/1999/xlink">
    <!-- Generator: Sketch 60 (88103) - https://sketch.com -->
    <title>Icon/Podiatry</title>
    <desc>Created with Sketch.</desc>
    <defs>
        <polygon id="path-1" points="4.80877435e-05 0.683508772 80.0182456 0.683508772 80.0182456 80.7017544 4.80877435e-05 80.7017544"></polygon>
        <polygon id="path-3" points="0.701754386 0.350877193 1.05263158 0.350877193 1.05263158 0.701754386 0.701754386 0.701754386"></polygon>
    </defs>
    <g stroke="none" stroke-width="1" fill="none" fill-rule="evenodd">
        <g id="My-Policies---Desktop" transform="translate(-710.000000, -859.000000)">
            <g id="Group-13-Copy-5" transform="translate(682.000000, 838.000000)">
                <g id="Icon/Podiatry" transform="translate(28.000000, 21.000000)">
                    <g id="Group-47" transform="translate(-0.701754, -0.701754)">
                        <g id="Group-3" transform="translate(0.701754, 0.018246)">
                            <mask id="mask-2" fill="white">
                                <use xlink:href="#path-1"></use>
                            </mask>
                            <g id="Clip-2"></g>
                            <path d="M57.4468772,76.6917193 C37.5654737,86.3225965 13.6405614,78.0124211 4.01038596,58.1303158 C-5.62049123,38.2489123 2.68968421,14.324 22.5717895,4.69312281 C42.453193,-4.93705263 66.3774035,3.37312281 76.0082807,23.2552281 C85.6391579,43.1366316 77.3282807,67.0608421 57.4468772,76.6917193" id="Fill-1" fill="#BFF3E8" mask="url(#mask-2)"></path>
                        </g>
                        <g id="Group-6" transform="translate(0.000000, 80.018246)">
                            <mask id="mask-4" fill="white">
                                <use xlink:href="#path-3"></use>
                            </mask>
                            <g id="Clip-5"></g>
                            <path d="" id="Fill-4" fill="#231F20" mask="url(#mask-4)"></path>
                        </g>
                        <path d="M21.2612632,24.2332632 C21.2612632,24.2332632 17.4121404,18.8164211 19.9286316,16.4739649 C22.4451228,14.1315088 25.9293333,15.6367719 25.9293333,15.6367719 L28.0233684,17.1722105 C28.0233684,17.1722105 30.5117895,14.642386 32.5595088,16.8753684 C34.6072281,19.1083509 34.2191579,18.0002807 34.2191579,18.0002807 C34.2191579,18.0002807 37.4500351,17.2992281 38.1419649,19.722386 C38.1419649,19.722386 41.8163509,19.0557193 42.0423158,21.3230877 L42.8121404,22.4627368 C42.8121404,22.4627368 46.1040702,22.442386 45.398807,26.5925614 C44.6942456,30.7434386 44.0079298,29.5939649 44.0079298,29.5939649 C44.0079298,29.5939649 44.396,28.5090526 44.1300351,32.3672982 C44.041614,33.642386 49.4205614,34.4129123 49.3068772,35.8739649 C49.1433684,37.9806316 56.6367018,47.2858947 56.4247719,49.4816842 C56.1679298,52.1469474 69.4072281,56.4655439 65.6023158,58.0241404 C64.6352982,58.4213333 59.3286316,64.605193 58.4261754,64.9602807 C57.8458246,65.1890526 53.1475789,56.9097544 51.2956491,56.3904561 C47.6128421,55.3560702 42.4135439,51.7799298 42.0423158,51.9588772 C40.9742456,52.4732632 41.7124912,56.0522105 40.8633684,59.4606316 C39.0479298,66.7497544 32.6984561,65.5020351 32.6984561,65.5020351 C32.6984561,65.5020351 25.3714386,63.648 25.8598596,56.5294035 C26.3482807,49.4122105 25.790386,46.8437895 24.5342456,39.1602807 C24.5342456,39.1602807 20.5496842,34.5483509 20.3784561,30.9890526 C20.2072281,27.4304561 20.0465263,25.7701053 21.2612632,24.2332632" id="Fill-7" fill="#FFFFFF"></path>
                        <path d="M20.5985965,25.3934737 C19.5698246,23.9899649 18.3452632,21.7401404 18.3452632,18.9927719 C18.3452632,16.7134737 19.6933333,14.0524211 23.4912281,14.0524211 C25.8926316,14.0524211 28.6961404,15.2847018 28.6961404,18.7576842 C28.6961404,20.3155789 28.2589474,21.7092632 27.874386,22.6341754 C27.6105263,23.2692632 26.837193,23.5099649 26.2498246,23.1520702 C25.9487719,22.9689123 25.8287719,22.5899649 25.9775439,22.2706667 C26.3087719,21.5590877 26.8140351,20.2313684 26.8140351,18.7576842 C26.8140351,16.3008421 24.7319298,15.9345263 23.4912281,15.9345263 C20.6505263,15.9345263 20.2273684,17.8503158 20.2273684,18.9927719 C20.2273684,21.2313684 21.2547368,23.1036491 22.1164912,24.281193 L20.5985965,25.3934737 Z" id="Fill-9" fill="#231F20"></path>
                        <path d="M20.5985965,25.3934737 C19.5698246,23.9899649 18.3452632,21.7401404 18.3452632,18.9927719 C18.3452632,16.7134737 19.6933333,14.0524211 23.4912281,14.0524211 C25.8926316,14.0524211 28.6961404,15.2847018 28.6961404,18.7576842 C28.6961404,20.3155789 28.2589474,21.7092632 27.874386,22.6341754 C27.6105263,23.2692632 26.837193,23.5099649 26.2498246,23.1520702 C25.9487719,22.9689123 25.8287719,22.5899649 25.9775439,22.2706667 C26.3087719,21.5590877 26.8140351,20.2313684 26.8140351,18.7576842 C26.8140351,16.3008421 24.7319298,15.9345263 23.4912281,15.9345263 C20.6505263,15.9345263 20.2273684,17.8503158 20.2273684,18.9927719 C20.2273684,21.2313684 21.2547368,23.1036491 22.1164912,24.281193 L20.5985965,25.3934737 Z" id="Stroke-11" stroke="#231F20" stroke-width="0.5"></path>
                        <path d="M31.9486316,22.4494035 C31.9486316,22.4494035 31.2552982,22.2192281 31.296,21.6711579 C31.3535439,20.9006316 32.4602105,20.3672982 32.4602105,18.7574737 C32.4602105,18.1918596 32.2770526,16.8753684 30.578807,16.8753684 C29.8075789,16.8753684 29.0426667,17.525193 28.6342456,17.9687018 C28.4896842,18.125193 28.2489825,18.1420351 28.0756491,18.0171228 L27.2412632,17.4115088 C27.0370526,17.2634386 27.0005614,16.9750175 27.1675789,16.7862456 C27.8258246,16.0367719 29.4896842,14.4992281 31.6012632,15.1504561 C33.4040702,15.7055439 34.536,17.5560702 34.3002105,19.4276491 C34.1837193,20.3588772 33.8419649,21.165193 33.5030175,21.7701053 C33.5030175,21.7701053 32.8798596,22.8199298 31.9486316,22.4494035" id="Fill-13" fill="#231F20"></path>
                        <path d="M31.9486316,22.4494035 C31.9486316,22.4494035 31.2552982,22.2192281 31.296,21.6711579 C31.3535439,20.9006316 32.4602105,20.3672982 32.4602105,18.7574737 C32.4602105,18.1918596 32.2770526,16.8753684 30.578807,16.8753684 C29.8075789,16.8753684 29.0426667,17.525193 28.6342456,17.9687018 C28.4896842,18.125193 28.2489825,18.1420351 28.0756491,18.0171228 L27.2412632,17.4115088 C27.0370526,17.2634386 27.0005614,16.9750175 27.1675789,16.7862456 C27.8258246,16.0367719 29.4896842,14.4992281 31.6012632,15.1504561 C33.4040702,15.7055439 34.536,17.5560702 34.3002105,19.4276491 C34.1837193,20.3588772 33.8419649,21.165193 33.5030175,21.7701053 C33.5030175,21.7701053 32.8798596,22.8199298 31.9486316,22.4494035 Z" id="Stroke-15" stroke="#231F20" stroke-width="0.5"></path>
                        <path d="M36.8239298,23.9200702 L36.8225263,23.9186667 C36.4316491,23.6337544 36.3334035,23.1032281 36.5705965,22.6814737 C36.9698947,21.974807 37.1656842,21.3011228 37.1656842,20.6393684 C37.1656842,20.0737544 37.017614,18.7579649 35.6498947,18.7579649 C35.3011228,18.7579649 34.9523509,18.8758596 34.6070877,19.1088421 C34.2555088,19.3460351 33.777614,19.2737544 33.4723509,18.9790175 C33.0309474,18.5537544 33.1144561,17.8309474 33.6274386,17.497614 C34.2632281,17.0842807 34.9397193,16.8751579 35.6498947,16.8751579 C37.6821754,16.8751579 39.0477895,18.3881404 39.0477895,20.6393684 C39.0477895,21.646386 38.766386,22.6358596 38.1902456,23.6421754 C37.9158596,24.1228772 37.2716491,24.2470877 36.8239298,23.9200702" id="Fill-17" fill="#231F20"></path>
                        <path d="M40.5272982,25.0015439 L40.5272982,25.0015439 C40.2304561,24.6773333 40.1813333,24.1882105 40.4290526,23.8254035 C40.685193,23.4527719 40.9294035,22.9587368 40.9294035,22.4625965 C40.9294035,21.2534737 40.4465965,20.6394386 39.4922105,20.6394386 C39.1672982,20.6394386 38.8781754,20.7278596 38.5862456,20.9173333 L37.5644912,19.3362807 C38.1581754,18.9524211 38.8072982,18.7580351 39.4922105,18.7580351 C41.5083509,18.7580351 42.8122105,20.2120702 42.8122105,22.4625965 C42.8122105,23.4548772 42.3883509,24.3075088 41.9778246,24.8997895 C41.6374737,25.3931228 40.930807,25.4436491 40.5272982,25.0015439" id="Fill-19" fill="#231F20"></path>
                        <path d="M40.5272982,25.0015439 L40.5272982,25.0015439 C40.2304561,24.6773333 40.1813333,24.1882105 40.4290526,23.8254035 C40.685193,23.4527719 40.9294035,22.9587368 40.9294035,22.4625965 C40.9294035,21.2534737 40.4465965,20.6394386 39.4922105,20.6394386 C39.1672982,20.6394386 38.8781754,20.7278596 38.5862456,20.9173333 L37.5644912,19.3362807 C38.1581754,18.9524211 38.8072982,18.7580351 39.4922105,18.7580351 C41.5083509,18.7580351 42.8122105,20.2120702 42.8122105,22.4625965 C42.8122105,23.4548772 42.3883509,24.3075088 41.9778246,24.8997895 C41.6374737,25.3931228 40.930807,25.4436491 40.5272982,25.0015439 Z" id="Stroke-21" stroke="#231F20" stroke-width="0.5"></path>
                        <path d="M40.5505965,56.1699649 C40.7983158,54.8562807 41.0832281,53.2401404 41.3646316,51.424 L43.2249825,51.7124211 C42.9541053,53.4597895 42.6790175,55.0254035 42.437614,56.3208421 C42.3295439,56.8990877 41.7555088,57.2625965 41.1849825,57.1180351 L41.1555088,57.1103158 C40.7372632,57.0043509 40.4712982,56.5945263 40.5505965,56.1699649" id="Fill-23" fill="#231F20"></path>
                        <path d="M38.9264561,61.8826667 C37.7524211,63.6945965 35.7306667,64.8489825 33.4590877,64.8679298 C29.7587368,64.898807 26.8141754,61.7367018 26.8141754,58.0370526 L26.8141754,47.9289825 C26.8141754,42.738807 25.1362807,39.3977544 23.6555789,36.450386 C22.3769825,33.9037193 21.1678596,31.498807 21.1678596,28.1675789 C21.1678596,25.9072281 22.5882105,24.7865263 23.4548772,24.3114386 C23.8289123,24.1072281 24.0001404,23.6651228 23.8780351,23.2574035 C23.698386,22.6637193 23.0155789,22.3907368 22.4766316,22.6967018 C21.0169825,23.5261754 19.2864561,25.2693333 19.2864561,28.1675789 C19.2864561,31.9451228 20.6527719,34.6651228 21.9734737,37.2952982 C23.4282105,40.1907368 24.9327719,43.1844211 24.9327719,47.9289825 L24.9327719,58.0300351 C24.9327719,62.1009123 28.1938246,66.1367018 32.2289123,66.6721404 C35.5418947,67.1107368 38.5938246,65.6602105 40.3447018,63.1479298 C40.7173333,62.6152982 40.4773333,61.8700351 39.8815439,61.6089825 C39.5390877,61.458807 39.1299649,61.5682807 38.9264561,61.8826667" id="Fill-25" fill="#231F20"></path>
                        <path d="M38.9264561,61.8826667 C37.7524211,63.6945965 35.7306667,64.8489825 33.4590877,64.8679298 C29.7587368,64.898807 26.8141754,61.7367018 26.8141754,58.0370526 L26.8141754,47.9289825 C26.8141754,42.738807 25.1362807,39.3977544 23.6555789,36.450386 C22.3769825,33.9037193 21.1678596,31.498807 21.1678596,28.1675789 C21.1678596,25.9072281 22.5882105,24.7865263 23.4548772,24.3114386 C23.8289123,24.1072281 24.0001404,23.6651228 23.8780351,23.2574035 C23.698386,22.6637193 23.0155789,22.3907368 22.4766316,22.6967018 C21.0169825,23.5261754 19.2864561,25.2693333 19.2864561,28.1675789 C19.2864561,31.9451228 20.6527719,34.6651228 21.9734737,37.2952982 C23.4282105,40.1907368 24.9327719,43.1844211 24.9327719,47.9289825 L24.9327719,58.0300351 C24.9327719,62.1009123 28.1938246,66.1367018 32.2289123,66.6721404 C35.5418947,67.1107368 38.5938246,65.6602105 40.3447018,63.1479298 C40.7173333,62.6152982 40.4773333,61.8700351 39.8815439,61.6089825 C39.5390877,61.458807 39.1299649,61.5682807 38.9264561,61.8826667 Z" id="Stroke-27" stroke="#231F20" stroke-width="0.5"></path>
                        <path d="M44.2547368,43.4931228 L42.3796491,43.3190877 C42.6666667,40.249614 42.8119298,37.3675088 42.8119298,34.7548772 L42.8119298,30.7436491 C42.8119298,29.7218947 43.1740351,28.7576842 43.8315789,28.0299649 C44.2252632,27.5941754 44.6940351,26.8678596 44.6940351,25.8762807 C44.6940351,24.6769825 44.0477193,23.4622456 42.8119298,23.4622456 C42.6210526,23.4622456 42.4435088,23.5043509 42.2687719,23.5892632 L41.44,21.9001404 C41.8715789,21.6882105 42.3340351,21.5801404 42.8119298,21.5801404 C44.9578947,21.5801404 46.5761404,23.4264561 46.5761404,25.8762807 C46.5761404,27.4664561 45.8435088,28.6117193 45.2287719,29.2917193 C44.8835088,29.6734737 44.6940351,30.1885614 44.6940351,30.7436491 L44.6940351,34.7548772 C44.6940351,37.4257544 44.5459649,40.3661053 44.2547368,43.4931228" id="Fill-29" fill="#231F20"></path>
                        <path d="M44.2547368,43.4931228 L42.3796491,43.3190877 C42.6666667,40.249614 42.8119298,37.3675088 42.8119298,34.7548772 L42.8119298,30.7436491 C42.8119298,29.7218947 43.1740351,28.7576842 43.8315789,28.0299649 C44.2252632,27.5941754 44.6940351,26.8678596 44.6940351,25.8762807 C44.6940351,24.6769825 44.0477193,23.4622456 42.8119298,23.4622456 C42.6210526,23.4622456 42.4435088,23.5043509 42.2687719,23.5892632 L41.44,21.9001404 C41.8715789,21.6882105 42.3340351,21.5801404 42.8119298,21.5801404 C44.9578947,21.5801404 46.5761404,23.4264561 46.5761404,25.8762807 C46.5761404,27.4664561 45.8435088,28.6117193 45.2287719,29.2917193 C44.8835088,29.6734737 44.6940351,30.1885614 44.6940351,30.7436491 L44.6940351,34.7548772 C44.6940351,37.4257544 44.5459649,40.3661053 44.2547368,43.4931228 Z" id="Stroke-31" stroke="#231F20" stroke-width="0.5"></path>
                        <path d="M59.5397895,66.1021053 C59.1397895,66.4340351 58.5461053,66.3778947 58.2141754,65.977193 L51.6969825,58.1105263 C51.2885614,57.6150877 50.7103158,57.2747368 50.0703158,57.1484211 C47.7734737,56.7 42.1327719,54.9631579 39.3769825,48.545614 C39.1524211,48.0235088 38.818386,47.5140351 38.3832982,47.0312281 L34.0661053,42.2178947 C33.5018947,41.5912281 33.2710175,40.6726316 33.4731228,39.7301754 C33.5804912,39.2340351 33.8338246,38.7694737 34.1966316,38.414386 C35.2899649,37.342807 36.8857544,37.3631579 37.8885614,38.1217544 L46.0247018,44.2733333 C46.4401404,44.5863158 46.5215439,45.177193 46.2085614,45.5912281 C45.8948772,46.0059649 45.3047018,46.0880702 44.8899649,45.774386 L36.7531228,39.6242105 C36.6141754,39.5175439 36.426807,39.46 36.2247018,39.46 C35.7054035,39.46 35.2836491,39.8817544 35.2836491,40.4010526 C35.2836491,40.6270175 35.349614,40.8312281 35.4654035,40.9596491 L39.784,45.7729825 C40.3552281,46.4087719 40.8001404,47.0922807 41.1061053,47.8024561 C43.421193,53.1940351 47.9425965,54.8150877 50.4317193,55.3007018 C51.4976842,55.5105263 52.4625965,56.0824561 53.1475088,56.9098246 L59.6647018,64.7764912 C59.9959298,65.177193 59.9397895,65.7701754 59.5397895,66.1021053" id="Fill-33" fill="#231F20"></path>
                        <path d="M59.5397895,66.1021053 C59.1397895,66.4340351 58.5461053,66.3778947 58.2141754,65.977193 L51.6969825,58.1105263 C51.2885614,57.6150877 50.7103158,57.2747368 50.0703158,57.1484211 C47.7734737,56.7 42.1327719,54.9631579 39.3769825,48.545614 C39.1524211,48.0235088 38.818386,47.5140351 38.3832982,47.0312281 L34.0661053,42.2178947 C33.5018947,41.5912281 33.2710175,40.6726316 33.4731228,39.7301754 C33.5804912,39.2340351 33.8338246,38.7694737 34.1966316,38.414386 C35.2899649,37.342807 36.8857544,37.3631579 37.8885614,38.1217544 L46.0247018,44.2733333 C46.4401404,44.5863158 46.5215439,45.177193 46.2085614,45.5912281 C45.8948772,46.0059649 45.3047018,46.0880702 44.8899649,45.774386 L36.7531228,39.6242105 C36.6141754,39.5175439 36.426807,39.46 36.2247018,39.46 C35.7054035,39.46 35.2836491,39.8817544 35.2836491,40.4010526 C35.2836491,40.6270175 35.349614,40.8312281 35.4654035,40.9596491 L39.784,45.7729825 C40.3552281,46.4087719 40.8001404,47.0922807 41.1061053,47.8024561 C43.421193,53.1940351 47.9425965,54.8150877 50.4317193,55.3007018 C51.4976842,55.5105263 52.4625965,56.0824561 53.1475088,56.9098246 L59.6647018,64.7764912 C59.9959298,65.177193 59.9397895,65.7701754 59.5397895,66.1021053 Z" id="Stroke-35" stroke="#231F20" stroke-width="0.5"></path>
                        <path d="M32.8806316,44.8514386 C32.5241404,45.3244211 31.833614,45.3475789 31.4265965,44.9181053 C30.2785263,43.7054737 29.6378246,42.110386 29.6378246,40.4009123 C29.6378246,36.7693333 32.5929123,33.8135439 36.225193,33.8135439 C37.3529123,33.8135439 38.4616842,34.1061754 39.4385263,34.6514386 C39.9543158,34.9391579 40.0960702,35.6170526 39.7248421,36.076 C39.4301053,36.4395088 38.9213333,36.5167018 38.513614,36.2886316 C37.8167719,35.8970526 37.0357193,35.6942456 36.2167719,35.6956491 C33.8272982,35.6998596 31.750807,37.5847719 31.5388772,39.9637193 C31.4160702,41.3440702 31.8771228,42.6507368 32.7901053,43.6191579 C33.1129123,43.9609123 33.1634386,44.476 32.8806316,44.8514386" id="Fill-37" fill="#231F20"></path>
                        <path d="M66.9260351,57.8832281 C66.5997193,58.2881404 66.0067368,58.3512982 65.6018246,58.0242807 L57.3232281,51.3407719 C56.5688421,50.7323509 55.9555088,49.9898947 55.5000702,49.1337544 L49.3730526,37.6488421 C48.9534035,36.8600702 48.2727018,36.2312982 47.4558596,35.874807 L43.3758596,34.0916491 L44.1302456,32.3674386 L48.2081404,34.149193 C49.4179649,34.6783158 50.4144561,35.5990175 51.034807,36.7639298 L57.1618246,48.2488421 C57.4965614,48.8804211 57.949193,49.4270877 58.5049825,49.8755088 L66.7849825,56.5604211 C67.189193,56.8867368 67.2523509,57.4790175 66.9260351,57.8832281" id="Fill-39" fill="#231F20"></path>
                        <path d="M66.9260351,57.8832281 C66.5997193,58.2881404 66.0067368,58.3512982 65.6018246,58.0242807 L57.3232281,51.3407719 C56.5688421,50.7323509 55.9555088,49.9898947 55.5000702,49.1337544 L49.3730526,37.6488421 C48.9534035,36.8600702 48.2727018,36.2312982 47.4558596,35.874807 L43.3758596,34.0916491 L44.1302456,32.3674386 L48.2081404,34.149193 C49.4179649,34.6783158 50.4144561,35.5990175 51.034807,36.7639298 L57.1618246,48.2488421 C57.4965614,48.8804211 57.949193,49.4270877 58.5049825,49.8755088 L66.7849825,56.5604211 C67.189193,56.8867368 67.2523509,57.4790175 66.9260351,57.8832281 Z" id="Stroke-41" stroke="#231F20" stroke-width="0.5"></path>
                        <line x1="52.3968421" y1="25.2187368" x2="64.1624561" y2="25.2187368" id="Stroke-43" stroke="#00CEA4" stroke-width="3.37614035" stroke-linecap="round"></line>
                        <line x1="58.2795088" y1="31.1021053" x2="58.2795088" y2="19.3357895" id="Stroke-45" stroke="#00CEA4" stroke-width="3.37614035" stroke-linecap="round"></line>
                    </g>
                </g>
            </g>
        </g>
    </g>
</svg>
