<?xml version="1.0" encoding="UTF-8"?>
<svg id="Page-1" viewBox="0 0 80 80" version="1.1" xmlns="http://www.w3.org/2000/svg" xmlns:xlink="http://www.w3.org/1999/xlink">
    <!-- Generator: Sketch 64 (93537) - https://sketch.com -->
    <title>Icon/SH/profile-80</title>
    <desc>Created with Sketch.</desc>
    <defs>
        <polygon id="path-1" points="0 0 79.9998596 0 79.9998596 79.9997895 0 79.9997895"></polygon>
    </defs>
    <g id="Icon/SH/profile-80" stroke="none" stroke-width="1" fill="none" fill-rule="evenodd">
        <g id="Group-24">
            <g id="Group-3">
                <mask id="mask-2" fill="white">
                    <use xlink:href="#path-1"></use>
                </mask>
                <g id="Clip-2"></g>
                <path d="M79.9998596,39.9997895 C79.9998596,62.0910175 62.0910877,79.9997895 39.9998596,79.9997895 C17.9086316,79.9997895 -0.000140350877,62.0910175 -0.000140350877,39.9997895 C-0.000140350877,17.9092632 17.9086316,-0.000210526316 39.9998596,-0.000210526316 C62.0910877,-0.000210526316 79.9998596,17.9092632 79.9998596,39.9997895" id="Fill-1" fill="#BFF3E8" mask="url(#mask-2)"></path>
            </g>
            <path d="M64.4029474,40.4534737 C64.4029474,53.6366316 53.7159298,64.3243509 40.5320702,64.3243509 C27.3489123,64.3243509 16.6618947,53.6366316 16.6618947,40.4534737 C16.6618947,27.269614 27.3489123,16.5825965 40.5320702,16.5825965 C53.7159298,16.5825965 64.4029474,27.269614 64.4029474,40.4534737" id="Fill-4" fill="#FFFFFF"></path>
            <g id="Group-9" transform="translate(24.561404, 16.140351)">
                <path d="M0.351368421,6.26140351 C4.53803509,2.63614035 9.99838596,0.44245614 15.9710175,0.44245614 C29.1541754,0.44245614 39.841193,11.1294737 39.841193,24.3133333 C39.841193,33.4052632 34.758386,41.3098246 27.2790877,45.3407018" id="Fill-6" fill="#FFFFFF"></path>
                <path d="M0.351368421,6.26140351 C4.53803509,2.63614035 9.99838596,0.44245614 15.9710175,0.44245614 C29.1541754,0.44245614 39.841193,11.1294737 39.841193,24.3133333 C39.841193,33.4052632 34.758386,41.3098246 27.2790877,45.3407018" id="Stroke-8" stroke="#00E6B8" stroke-width="2.10526316" stroke-linecap="round" stroke-linejoin="round"></path>
            </g>
            <g id="Group-13" transform="translate(23.859649, 30.175439)">
                <path d="M9.50231579,0.479508772 C8.95635088,2.31108772 9.03775439,5.33985965 9.03775439,5.33985965 L8.73319298,5.36231579 C7.93670175,5.58898246 7.35775439,6.53915789 7.35705263,7.71038596 C7.35635088,8.99950877 8.05740351,10.0212632 8.976,10.1061754 C9.4882807,12.0584561 10.5535439,13.7328421 11.9942456,14.8549474 L11.7570526,16.8928421 C11.7184561,17.2177544 11.5409123,17.510386 11.2693333,17.6921404 C11.173193,17.7574035 11.0665263,17.8065263 10.9549474,17.838807 L5.82231579,19.3251228 C5.15705263,19.4710877 4.47775439,19.8254737 3.80898246,20.3770526 C2.75564912,21.2451228 2.03214035,22.4535439 1.7682807,23.7812632 L0.556350877,33.2261754 L16.693193,33.2381053 L15.5872281,33.2226667 L31.7240702,33.2226667 L30.5198596,23.7770526 C30.256,22.4500351 29.5338947,21.2402105 28.4812632,20.3714386 C27.813193,19.8198596 27.1338947,19.4647719 26.4693333,19.3181053 L21.3367018,17.8282807 C21.2251228,17.796 21.1198596,17.7461754 21.0230175,17.681614 C20.7514386,17.4984561 20.573193,17.2058246 20.5367018,16.8809123 L20.3009123,14.8437193 C21.7409123,13.7223158 22.8075789,12.0479298 23.3219649,10.0963509 C24.2405614,10.0121404 24.9423158,8.99108772 24.9423158,7.70196491 C24.9423158,6.53073684 24.3654737,5.5805614 23.5682807,5.35249123 C23.5682807,5.35249123 23.7668772,2.50898246 22.6819649,0.918807018" id="Fill-10" fill="#FFFFFF"></path>
                <path d="M9.50231579,0.479508772 C8.95635088,2.31108772 9.03775439,5.33985965 9.03775439,5.33985965 L8.73319298,5.36231579 C7.93670175,5.58898246 7.35775439,6.53915789 7.35705263,7.71038596 C7.35635088,8.99950877 8.05740351,10.0212632 8.976,10.1061754 C9.4882807,12.0584561 10.5535439,13.7328421 11.9942456,14.8549474 L11.7570526,16.8928421 C11.7184561,17.2177544 11.5409123,17.510386 11.2693333,17.6921404 C11.173193,17.7574035 11.0665263,17.8065263 10.9549474,17.838807 L5.82231579,19.3251228 C5.15705263,19.4710877 4.47775439,19.8254737 3.80898246,20.3770526 C2.75564912,21.2451228 2.03214035,22.4535439 1.7682807,23.7812632 L0.556350877,33.2261754 L16.693193,33.2381053 L15.5872281,33.2226667 L31.7240702,33.2226667 L30.5198596,23.7770526 C30.256,22.4500351 29.5338947,21.2402105 28.4812632,20.3714386 C27.813193,19.8198596 27.1338947,19.4647719 26.4693333,19.3181053 L21.3367018,17.8282807 C21.2251228,17.796 21.1198596,17.7461754 21.0230175,17.681614 C20.7514386,17.4984561 20.573193,17.2058246 20.5367018,16.8809123 L20.3009123,14.8437193 C21.7409123,13.7223158 22.8075789,12.0479298 23.3219649,10.0963509 C24.2405614,10.0121404 24.9423158,8.99108772 24.9423158,7.70196491 C24.9423158,6.53073684 24.3654737,5.5805614 23.5682807,5.35249123 C23.5682807,5.35249123 23.7668772,2.50898246 22.6819649,0.918807018" id="Stroke-12" stroke="#0D2835" stroke-width="2.10526316" stroke-linecap="round" stroke-linejoin="round"></path>
            </g>
            <path d="M47.197614,31.0181754 C47.1660351,27.4364211 44.1456842,24.6911579 41.3246316,24.3192281 C40.6298947,24.2272982 38.3127018,23.9564211 36.7225263,23.3115088 L36.709193,23.3332632 C36.5007719,23.6644912 36.4649825,24.0757193 36.6130526,24.4385263 C34.906386,24.8967719 33.5042807,24.6855439 32.0488421,24.0750175 C32.0312982,25.1157193 32.0018246,27.2083509 32.4200702,28.1606316 C32.8397193,29.1122105 33.6137544,29.9458947 34.6088421,30.2490526 C35.2481404,30.4448421 35.9337544,30.4139649 36.5969123,30.3255439 C37.9309474,30.1494035 38.4495439,29.7662456 39.7688421,29.4967719 C43.1912982,28.7978246 47.197614,31.0181754 47.197614,31.0181754" id="Fill-14" fill="#00E6B8"></path>
            <path d="M47.197614,31.0181754 C47.1660351,27.4364211 44.1456842,24.6911579 41.3246316,24.3192281 C40.6298947,24.2272982 38.3127018,23.9564211 36.7225263,23.3115088 L36.709193,23.3332632 C36.5007719,23.6644912 36.4649825,24.0757193 36.6130526,24.4385263 C34.906386,24.8967719 33.5042807,24.6855439 32.0488421,24.0750175 C32.0312982,25.1157193 32.0018246,27.2083509 32.4200702,28.1606316 C32.8397193,29.1122105 33.6137544,29.9458947 34.6088421,30.2490526 C35.2481404,30.4448421 35.9337544,30.4139649 36.5969123,30.3255439 C37.9309474,30.1494035 38.4495439,29.7662456 39.7688421,29.4967719 C43.1912982,28.7978246 47.197614,31.0181754 47.197614,31.0181754 Z" id="Stroke-16" stroke="#0D2835" stroke-width="1.92912281" stroke-linecap="round" stroke-linejoin="round"></path>
            <g id="Group-21" transform="translate(23.859649, 65.964912)">
                <line x1="0.663929825" y1="0.846105263" x2="11.1825263" y2="0.846105263" id="Fill-18" fill="#FFFFFF"></line>
                <line x1="0.663929825" y1="0.846105263" x2="11.1825263" y2="0.846105263" id="Stroke-20" stroke="#0D2835" stroke-width="2.10526316" stroke-linecap="round"></line>
            </g>
            <polyline id="Stroke-22" stroke="#0D2835" stroke-width="2.10526316" stroke-linecap="round" stroke-linejoin="round" points="35.9407719 46.5794386 40.1400702 50.3401404 44.3407719 46.5794386"></polyline>
        </g>
    </g>
</svg>
