<?xml version="1.0" encoding="utf-8"?>
<!-- Generator: Adobe Illustrator 24.0.0, SVG Export Plug-In . SVG Version: 6.00 Build 0)  -->
<svg version="1.1" id="Page-1" xmlns="http://www.w3.org/2000/svg" xmlns:xlink="http://www.w3.org/1999/xlink" x="0px" y="0px"
	 viewBox="0 0 15 15" style="enable-background:new 0 0 15 15;" xml:space="preserve">
<style type="text/css">
	.st0{fill-rule:evenodd;clip-rule:evenodd;fill:#C23934;}
</style>
<path fill-rule="evenodd" clip-rule="evenodd" fill="#C23934" id="path-1_1_" class="st0" d="M14.5,7.6c0-3.8-3.1-6.9-6.9-6.9c-3.8,0-6.9,3.1-6.9,6.9c0,3.8,3.1,6.9,6.9,6.9
	C11.4,14.5,14.5,11.4,14.5,7.6z M10.5,11.3c-0.1,0.1-0.3,0.1-0.4,0L7.8,9C7.7,8.9,7.5,8.9,7.4,9l-2.2,2.2c-0.1,0.1-0.3,0.1-0.4,0
	l-0.8-0.8c-0.1-0.1-0.1-0.3,0-0.4l2.2-2.2c0.1-0.1,0.1-0.3,0-0.4L3.9,5.1C3.8,5,3.8,4.9,3.9,4.7l0.8-0.8c0.1-0.1,0.3-0.1,0.4,0
	l2.2,2.2c0.1,0.1,0.3,0.1,0.4,0l2.2-2.2c0.1-0.1,0.3-0.1,0.4,0l0.8,0.8c0.1,0.1,0.1,0.3,0,0.4L9,7.4C8.9,7.5,8.9,7.7,9,7.8l2.2,2.2
	c0.1,0.1,0.1,0.3,0,0.4L10.5,11.3z"/>
</svg>
