<?xml version="1.0" encoding="UTF-8"?>
<svg width="197px" height="48px" viewBox="0 0 197 48" version="1.1" xmlns="http://www.w3.org/2000/svg" xmlns:xlink="http://www.w3.org/1999/xlink">
    <!-- Generator: Sketch 64 (93537) - https://sketch.com -->
    <title>SH Logo</title>
    <desc>Created with Sketch.</desc>
    <g id="Symbols" stroke="none" stroke-width="1" fill="none" fill-rule="evenodd">
        <g id="Global-Navigation/Home" transform="translate(-207.000000, -10.000000)" fill="#0D2835">
            <g id="Global-Navigation-/-Standard-Navigation-Copy">
                <g id="SH-Logo/Navy" transform="translate(207.000000, 10.000000)">
                    <g id="Digital---Logotype---Black">
                        <path d="M19.1220144,18.8688716 C19.1854526,18.0979888 19.4298074,17.3694106 19.8104369,16.7277917 L27.6955777,25.141695 C28.6119081,26.1193999 29.1992994,27.3861859 29.2533394,28.7258297 C29.293282,29.7105854 29.0700733,30.6365848 28.6495011,31.4427214 L20.480063,22.7514884 C19.4932456,21.7056261 19.0045361,20.3142767 19.1220144,18.8688716 M18.7601813,30.601331 C18.6873448,30.3733566 18.4523883,30.2417424 18.2197813,30.2957982 L15.9829953,30.8199045 C15.7221935,30.8810111 15.5718214,31.1512901 15.649357,31.4074676 C16.7607014,35.1114652 20.0524422,37.4593672 23.6167325,37.5674788 C25.510482,37.6262351 27.2797046,37.0574741 28.7340855,36.0539164 C30.4821619,37.4335144 32.6061689,38.2137982 34.864101,38.2843058 C38.3485061,38.3900671 41.5979548,37.0833269 44.0156573,34.6014604 C46.4521564,32.100792 47.8618955,28.5495608 47.9817233,24.6034872 C47.9840729,24.5658831 47.9840729,24.5306294 47.9817233,24.4930253 C48.1203477,17.9123189 45.6133616,11.6700488 40.9283287,6.99069649 C36.6004297,2.66858252 30.735915,0.165563827 24.624696,0.00809692352 C19.95611,-0.111765943 15.4425953,1.10096424 11.4976754,3.52642461 C10.943178,3.86721119 10.7928058,4.5910889 11.159338,5.12929667 L11.6973884,5.91663119 C12.0380754,6.41488468 12.7077014,6.55354956 13.2222562,6.23861575 C16.6573205,4.13984046 20.5834439,3.09867869 24.6458421,3.22324206 C36.090574,3.5710794 45.1176034,13.1742103 44.7698677,24.62934 C44.7698677,24.6528425 44.7698677,24.6739947 44.7698677,24.6974973 C44.5020173,30.8857116 40.4043757,35.2383788 34.9674819,35.0715109 C33.5318975,35.0268561 32.1714993,34.5638564 31.0202124,33.7459686 C31.9717863,32.324066 32.5145358,30.601331 32.4722436,28.7446317 C32.4229028,26.5706483 31.5089219,24.5071268 30.0216472,22.9207065 L22.2422369,14.6196154 C22.571176,14.4833008 22.9142125,14.3775394 23.273696,14.3140826 C25.6561551,13.8957377 27.9211359,15.211879 28.8116211,17.3271061 C28.9032542,17.5456795 29.1499585,17.6561414 29.3755168,17.5832836 L31.5606124,16.8688069 C31.8143654,16.786548 31.9412419,16.5045178 31.8425602,16.2577413 C30.3764315,12.5372919 26.3398786,10.2575472 22.1858473,11.2587547 C21.3541013,11.4608764 20.5716961,11.7899117 19.8597778,12.2247083 C18.0435639,10.7416991 15.8044283,9.90030883 13.4243188,9.82745101 C9.86472758,9.7193394 6.54244243,11.0401812 4.07069987,13.5502506 C1.57076253,16.0838226 0.128129516,19.6844091 0.00830169227,23.689239 C-0.127973088,28.3497893 1.41569123,33.1983598 4.47717465,37.7108442 C8.68524587,43.91316 15.7621362,47.7558225 23.4099708,47.9884975 C28.1701898,48.1342131 32.7659393,46.8932799 36.7742975,44.3902612 C37.3264453,44.0447742 37.4744679,43.3208964 37.1032366,42.7850389 L36.560487,42.0000547 C36.2174505,41.5041514 35.5478245,41.370187 35.0356192,41.6874711 C31.5770593,43.8356017 27.6156924,44.900266 23.5110021,44.7757026 C16.8899274,44.5735809 10.7693102,41.2573749 7.13923198,35.9058505 C4.46072769,31.9574266 3.10502859,27.7645765 3.22250684,23.7855994 C3.41752075,17.3858624 7.66788415,12.8663272 13.3279866,13.0378956 C14.838757,13.0849007 16.2696422,13.5714029 17.4726196,14.4362958 C16.6620196,15.5573661 16.1239692,16.8805581 15.9571501,18.3024608 C15.6681536,20.7749262 16.4670057,23.1698333 18.1469448,24.956025 L26.3939186,33.7295168 C25.597416,34.1549125 24.6857847,34.382887 23.722463,34.3523337 C21.52327,34.2865266 19.4767987,32.82702 18.7601813,30.601331" id="Shape" fill-rule="nonzero"></path>
                        <g id="Group" transform="translate(56.405983, 14.315789)" fill-rule="nonzero">
                            <path d="M6.41547782,0.705033872 C8.16239352,0.705033872 9.95368274,1.06922355 11.880428,1.77892652 C12.0369031,1.83729026 12.1233147,2.0100469 12.0742702,2.16879625 L11.5067562,4.04343929 C11.4530409,4.21853048 11.2638695,4.30957791 11.0933817,4.24421053 C9.50527657,3.64656592 8.0082539,3.33840542 6.66770629,3.33840542 C4.71060021,3.33840542 3.45646421,4.19051589 3.45646421,5.51887441 C3.45646421,9.13042209 12.7632276,6.77252736 12.7632276,13.2438979 C12.7632276,16.1784263 10.1778858,18.1604586 6.41547782,18.1604586 C4.55879604,18.1604586 2.51994924,17.7659197 0.336304626,16.8904638 C0.184500454,16.8297655 0.102759747,16.6593434 0.149468722,16.5029286 L0.721653676,14.6189474 C0.773033549,14.4438562 0.96454035,14.3528088 1.13502811,14.4158416 C2.97536176,15.0998645 4.7152711,15.5247525 6.16324935,15.5247525 C8.22077974,15.5247525 9.50060567,14.646962 9.50060567,13.2415633 C9.50060567,9.52963002 0.168152313,11.8361647 0.168152313,5.51653986 C0.168152313,2.66138614 2.72780419,0.705033872 6.41547782,0.705033872" id="Path"></path>
                            <path d="M14.5054724,5.5702345 L17.0861433,5.5702345 C17.261302,5.5702345 17.4014289,5.712642 17.4014289,5.88539865 L17.4014289,17.5441376 C17.4014289,17.7192288 17.2589666,17.8593017 17.0861433,17.8593017 L14.5054724,17.8593017 C14.3303138,17.8593017 14.1901868,17.7168942 14.1901868,17.5441376 L14.1901868,5.88539865 C14.1901868,5.71030745 14.3303138,5.5702345 14.5054724,5.5702345 M15.7946402,0.128400208 C16.8222376,0.128400208 17.5812585,0.793746743 17.7073727,1.76725378 C17.8685187,2.99989578 16.7872059,4.11581032 15.5517535,3.97807191 C14.5755359,3.8683481 13.8889139,3.1049505 13.8889139,2.05907243 C13.8889139,0.931485149 14.6923083,0.128400208 15.7946402,0.128400208" id="Shape"></path>
                            <path d="M19.5944153,5.5702345 L21.5888886,5.5702345 C21.7360219,5.5702345 21.8621361,5.67062011 21.8971678,5.81302762 L22.231137,7.20908807 C22.2358079,7.22776446 22.256827,7.23009901 22.2661688,7.21609171 C23.2447218,5.95776967 24.6623392,5.26907764 26.2784698,5.26907764 C28.04874,5.26907764 29.4967182,6.10951537 30.2043592,7.49857217 C30.2113655,7.51257947 30.2300491,7.51257947 30.2393909,7.50090672 C31.3674127,6.06282439 32.8901253,5.26907764 34.6603955,5.26907764 C37.3438261,5.26907764 39.2518878,7.12504429 39.2518878,9.75841584 L39.2518878,17.5441376 C39.2518878,17.7192288 39.1094254,17.8593017 38.9366022,17.8593017 L36.3559313,17.8593017 C36.1831081,17.8593017 36.0406457,17.7168942 36.0406457,17.5441376 L36.0406457,10.2603439 C36.0406457,8.88062533 35.0620927,7.90244919 33.6561525,7.90244919 C32.0260092,7.90244919 30.8699621,9.13275664 30.8699621,10.8883377 L30.8699621,17.5441376 C30.8699621,17.7192288 30.7274997,17.8593017 30.5546765,17.8593017 L27.9740056,17.8593017 C27.7988469,17.8593017 27.65872,17.7168942 27.65872,17.5441376 L27.65872,10.3373841 C27.65872,8.98801459 26.5587236,7.8650964 25.2088342,7.90478374 C23.6020455,7.94914018 22.4903718,9.16544033 22.4903718,10.8883377 L22.4903718,17.5441376 C22.4903718,17.7192288 22.3479095,17.8593017 22.1750863,17.8593017 L19.5944153,17.8593017 C19.4192567,17.8593017 19.2791298,17.7168942 19.2791298,17.5441376 L19.2791298,5.88539865 C19.2791298,5.712642 19.4215921,5.5702345 19.5944153,5.5702345" id="Path"></path>
                            <path d="M47.1433693,7.80206357 C45.4384916,7.80206357 44.2334001,9.08139656 44.2334001,10.8883377 L44.2334001,12.5435331 C44.2334001,14.3247942 45.4384916,15.6274726 47.1433693,15.6274726 C49.025741,15.6274726 50.3546113,13.9979573 50.3546113,11.7147681 C50.3546113,9.40823345 49.025741,7.80206357 47.1433693,7.80206357 M41.386488,5.5702345 L43.3832967,5.5702345 C43.5280945,5.5702345 43.6542088,5.66828557 43.6892405,5.80835852 L44.0208742,7.10870245 C44.0255451,7.12737884 44.0465642,7.12971339 44.055906,7.1157061 C44.9597246,5.93208963 46.3539876,5.26907764 47.9701181,5.26907764 C51.2817845,5.26907764 53.6148978,7.92812923 53.6148978,11.7147681 C53.6148978,15.501407 51.2817845,18.1604586 47.9701181,18.1604586 C46.4847727,18.1604586 45.195605,17.5768213 44.3174762,16.5005941 C44.305799,16.4842522 44.2824445,16.4935904 44.2824445,16.5122668 L44.2824445,22.7595206 C44.2824445,22.9322772 44.1399821,23.0746847 43.9671589,23.0746847 L41.386488,23.0746847 C41.2113293,23.0746847 41.0712024,22.9322772 41.0712024,22.7595206 L41.0712024,5.88539865 C41.0712024,5.712642 41.2113293,5.5702345 41.386488,5.5702345" id="Shape"></path>
                            <path d="M58.4072388,14.3481397 C58.4072388,15.1255446 58.9093603,15.6017926 59.6613748,15.6017926 C59.8809069,15.6017926 60.1564899,15.5621053 60.4437501,15.5107452 C60.6189088,15.480396 60.7870611,15.5994581 60.812751,15.7768838 L61.0743213,17.5908286 C61.0976758,17.7565816 60.9879097,17.9153309 60.8244283,17.94568 C60.1261291,18.0834184 59.4558553,18.1604586 58.8836703,18.1604586 C56.6252913,18.1604586 55.1959967,16.80642 55.1959967,14.6749766 L55.1959967,0.520604482 C55.1959967,0.345513288 55.3384591,0.205440334 55.5112823,0.205440334 L58.0919532,0.205440334 C58.2671118,0.205440334 58.4072388,0.347847837 58.4072388,0.520604482 L58.4072388,14.3481397 L58.4072388,14.3481397 Z" id="Path"></path>
                            <path d="M67.2796087,19.2390203 C66.1749414,22.0241376 64.6195325,23.3781761 62.3611536,23.3781761 C61.9104119,23.3781761 61.3499042,23.3244815 60.7567002,23.2124231 C60.5885479,23.182074 60.4787818,23.0186555 60.5068072,22.850568 L60.8267637,20.9712559 C60.8571245,20.7961647 61.0276123,20.6794372 61.2004355,20.7144554 C61.5157211,20.7774883 61.816994,20.8195102 62.0598807,20.8195102 C63.1645479,20.8195102 63.8161382,20.2171965 64.392994,18.7884523 L64.8157102,17.7168942 C64.8180457,17.7122251 64.8180457,17.7052215 64.8157102,17.7005524 L59.9346223,6.00679521 C59.8482107,5.79902032 60.0000148,5.5702345 60.2265534,5.5702345 L62.8936359,5.5702345 C63.0267565,5.5702345 63.1435289,5.65427827 63.1902379,5.77800938 L66.2800366,14.1683794 C66.287043,14.1870558 66.3127329,14.1870558 66.3197393,14.1683794 L69.3348036,5.78034393 C69.3791772,5.65427827 69.4982851,5.5702345 69.6314056,5.5702345 L72.2798046,5.5702345 C72.5040077,5.5702345 72.6558118,5.79668577 72.5740711,6.00212611 L67.2796087,19.2390203 Z" id="Path"></path>
                            <path d="M73.7931754,0.203105784 L76.3738463,0.203105784 C76.549005,0.203105784 76.6891319,0.345513288 76.6891319,0.518269932 L76.6891319,7.08769151 C76.6891319,7.10870245 76.7148218,7.1157061 76.7264991,7.09936425 C77.6092987,5.92742053 79.0455997,5.26907764 80.6780784,5.26907764 C83.4876233,5.26907764 85.4704193,7.19974987 85.4704193,9.95918708 L85.4704193,17.5441376 C85.4704193,17.7192288 85.327957,17.8593017 85.1551337,17.8593017 L82.5744628,17.8593017 C82.3993042,17.8593017 82.2591772,17.7168942 82.2591772,17.5441376 L82.2591772,10.4611152 C82.2591772,8.95766545 81.1801999,7.90244919 79.6995254,7.90244919 C77.9689578,7.90244919 76.6891319,9.20746222 76.6891319,11.0867744 L76.6891319,17.541803 C76.6891319,17.7168942 76.5466695,17.8569672 76.3738463,17.8569672 L73.7931754,17.8569672 C73.6180167,17.8569672 73.4778898,17.7145597 73.4778898,17.541803 L73.4778898,0.518269932 C73.4778898,0.345513288 73.6203522,0.203105784 73.7931754,0.203105784" id="Path"></path>
                            <path d="M90.1109561,10.5871808 L95.9846098,10.5871808 C95.996287,10.5871808 96.0079643,10.5755081 96.0056288,10.5638353 C95.8958627,8.82226159 94.7701764,7.65265242 93.1727294,7.65265242 C91.5239026,7.65265242 90.3001274,8.81992705 90.089937,10.5638353 C90.0876016,10.5755081 90.0992788,10.5871808 90.1109561,10.5871808 M93.1727294,5.26907764 C96.6595545,5.26907764 99.0930921,7.80206357 99.0930921,11.4883168 C99.0930921,11.8314956 99.0674022,12.1770089 99.0440477,12.4968421 C99.0440477,12.5085149 99.0347059,12.5155185 99.0230287,12.5155185 L90.1109561,12.5155185 C90.0969434,12.5155185 90.0876016,12.5271912 90.0876016,12.5411985 C90.3234819,14.4835435 91.8765554,15.7768838 93.9737884,15.7768838 C94.9453351,15.7768838 96.0453314,15.501407 97.2130558,14.9060969 C97.3742018,14.8243877 97.572715,14.8874205 97.6474493,15.0555081 L98.3620966,16.6476707 C98.4321601,16.8040855 98.3644321,16.9931839 98.207957,17.065555 C96.5708074,17.8242835 94.9476705,18.1604586 93.5720912,18.1604586 C89.6064991,18.1604586 86.8716886,15.501407 86.8716886,11.7147681 C86.8763595,7.92812923 89.4593659,5.26907764 93.1727294,5.26907764" id="Shape"></path>
                            <path d="M104.96441,15.9029495 C106.669288,15.9029495 107.799645,14.7240021 107.799645,13.0431266 L107.799645,12.3334237 C107.799645,12.3240855 107.792639,12.3147473 107.783297,12.3124127 C107.136378,12.1396561 106.463768,12.0649505 105.791159,12.0649505 C103.960167,12.0649505 102.82981,12.8423554 102.82981,14.1216884 C102.832146,15.1255446 103.759319,15.9029495 104.96441,15.9029495 M105.415152,10.2089838 C106.16016,10.2089838 106.979903,10.2836894 107.773955,10.4541115 C107.787968,10.4564461 107.799645,10.4471079 107.799645,10.4331006 L107.799645,9.80744138 C107.799645,8.55378843 106.795402,7.65031787 105.265683,7.65031787 C104.100294,7.65031787 102.846158,7.90945284 101.528965,8.41138093 C101.363148,8.47441376 101.178648,8.39270453 101.117926,8.22461699 L100.531729,6.59276707 C100.473342,6.42934862 100.559754,6.24491923 100.7209,6.1865555 C102.444461,5.5608963 104.07694,5.26907764 105.644026,5.26907764 C108.754844,5.26907764 110.812374,7.12504429 110.812374,9.85880146 L110.812374,14.8500677 C110.812374,15.3753413 111.139337,15.7278583 111.664813,15.7278583 C111.769908,15.7278583 111.879674,15.7185201 111.977763,15.7068473 C112.152922,15.6858364 112.309397,15.8142366 112.325745,15.9893278 L112.489226,17.6935487 C112.505575,17.8569672 112.393473,18.0087129 112.229992,18.0343929 C111.783921,18.1090985 111.305154,18.158124 110.810039,18.158124 C109.56758,18.158124 108.619388,17.541803 108.18733,16.5309432 C108.182659,16.5169359 108.166311,16.5146014 108.154633,16.5239396 C107.101346,17.5651485 105.632349,18.158124 104.137661,18.158124 C101.57801,18.158124 99.7470178,16.5519541 99.7470178,14.2967796 C99.7470178,11.7147681 101.853593,10.2089838 105.415152,10.2089838" id="Shape"></path>
                            <path d="M116.548236,14.3481397 C116.548236,15.1255446 117.050358,15.6017926 117.802372,15.6017926 C118.021905,15.6017926 118.297488,15.5621053 118.584748,15.5107452 C118.759906,15.480396 118.928059,15.5994581 118.953749,15.7768838 L119.215319,17.5908286 C119.238673,17.7565816 119.128907,17.9153309 118.965426,17.94568 C118.267127,18.0834184 117.596853,18.1604586 117.024668,18.1604586 C114.766289,18.1604586 113.336994,16.80642 113.336994,14.6749766 L113.336994,0.520604482 C113.336994,0.345513288 113.479457,0.205440334 113.65228,0.205440334 L116.232951,0.205440334 C116.408109,0.205440334 116.548236,0.347847837 116.548236,0.520604482 L116.548236,14.3481397 L116.548236,14.3481397 Z" id="Path"></path>
                            <path d="M123.554583,5.5702345 L126.630369,5.5702345 C126.805527,5.5702345 126.945654,5.712642 126.945654,5.88539865 L126.945654,7.68767066 C126.945654,7.86276186 126.803192,8.00283481 126.630369,8.00283481 L123.554583,8.00283481 C123.542905,8.00283481 123.533564,8.01217301 123.533564,8.02384575 L123.533564,13.8508807 C123.533564,14.7940386 124.278572,15.5924544 125.222093,15.6017926 C125.619119,15.6064617 126.051177,15.5574362 126.518267,15.454716 C126.695761,15.4173632 126.87092,15.527087 126.903616,15.7068473 L127.218902,17.4904429 C127.249263,17.6538614 127.144168,17.8172798 126.980686,17.8546326 C126.107228,18.0577384 125.278144,18.1604586 124.486427,18.1604586 C122.027199,18.1604586 120.319986,16.5542887 120.319986,14.1987285 L120.319986,8.0261803 C120.319986,8.01450756 120.310644,8.00516936 120.298967,8.00516936 L118.353538,8.00516936 C118.17838,8.00516936 118.038253,7.86276186 118.038253,7.69000521 L118.038253,5.88773319 C118.038253,5.712642 118.180715,5.57256905 118.353538,5.57256905 L120.298967,5.57256905 C120.310644,5.57256905 120.319986,5.56323085 120.319986,5.5515581 L120.319986,2.27618551 C120.319986,2.10109432 120.462449,1.96102137 120.635272,1.96102137 L123.215943,1.96102137 C123.391101,1.96102137 123.531228,2.10342887 123.531228,2.27618551 L123.531228,5.5515581 C123.533564,5.5608963 123.542905,5.5702345 123.554583,5.5702345" id="Path"></path>
                            <path d="M128.891083,0.203105784 L131.471754,0.203105784 C131.646913,0.203105784 131.78704,0.345513288 131.78704,0.518269932 L131.78704,7.08769151 C131.78704,7.10870245 131.81273,7.1157061 131.824407,7.09936425 C132.707207,5.92742053 134.143508,5.26907764 135.775986,5.26907764 C138.585531,5.26907764 140.568327,7.19974987 140.568327,9.95918708 L140.568327,17.5441376 C140.568327,17.7192288 140.425865,17.8593017 140.253042,17.8593017 L137.672371,17.8593017 C137.497212,17.8593017 137.357085,17.7168942 137.357085,17.5441376 L137.357085,10.4611152 C137.357085,8.95766545 136.278108,7.90244919 134.797433,7.90244919 C133.066866,7.90244919 131.78704,9.20746222 131.78704,11.0867744 L131.78704,17.541803 C131.78704,17.7168942 131.644577,17.8569672 131.471754,17.8569672 L128.891083,17.8569672 C128.715925,17.8569672 128.575798,17.7145597 128.575798,17.541803 L128.575798,0.518269932 C128.575798,0.345513288 128.715925,0.203105784 128.891083,0.203105784" id="Path"></path>
                        </g>
                    </g>
                </g>
            </g>
        </g>
    </g>
</svg>