<?xml version="1.0" encoding="UTF-8"?>
<svg width="234px" height="57px" viewBox="0 0 234 57" version="1.1" xmlns="http://www.w3.org/2000/svg" xmlns:xlink="http://www.w3.org/1999/xlink">
    <!-- Generator: Sketch 60 (88103) - https://sketch.com -->
    <title>SH Logo/White Copy</title>
    <desc>Created with Sketch.</desc>
    <g id="SH-Logo" stroke="none" stroke-width="1" fill="none" fill-rule="evenodd">
        <g id="Digital---Logotype---Black" fill="#00E6B8" fill-rule="nonzero">
            <path d="M22.7134587,22.406785 C22.7888117,21.4913617 23.0790606,20.6261751 23.5311789,19.8642527 L32.8972851,29.8557628 C33.9857182,31.0167874 34.6834317,32.5210957 34.7476214,34.1119228 C34.7950659,35.2813202 34.5299348,36.3809445 34.0303719,37.3382316 L24.3265723,27.0173924 C23.1544136,25.775431 22.573916,24.1232036 22.7134587,22.406785 M22.2836671,36.3390806 C22.1971507,36.0683609 21.9180653,35.9120691 21.6417707,35.9762604 L18.9848776,36.5986366 C18.6750928,36.6712006 18.4964782,36.992157 18.5885764,37.2963677 C19.9086503,41.6948649 23.8186369,44.4829986 28.0523625,44.6113811 C30.3017909,44.6811542 32.403304,44.0057505 34.1308426,42.8140257 C36.207238,44.4522984 38.7301701,45.3788854 41.4121809,45.4626131 C45.5510174,45.5882047 49.4107686,44.0364506 52.2825574,41.0892343 C55.1766731,38.1196905 56.8511855,33.9026034 56.9935191,29.216641 C56.9963099,29.1719862 56.9963099,29.1301224 56.9935191,29.0854676 C57.1581795,21.2708787 54.1803382,13.858183 48.6153752,8.30145208 C43.474622,3.16894174 36.5086503,0.196607045 29.2496389,0.00961509668 C23.7042119,-0.132722058 18.3429812,1.30739504 13.6571372,4.18762922 C12.9984957,4.59231329 12.819881,5.45191806 13.2552543,6.0910398 L13.8943598,7.02599954 C14.2990337,7.61767555 15.0944271,7.7823401 15.7056241,7.40835621 C19.7858528,4.91606054 24.4493699,3.67968094 29.2747566,3.82759995 C42.8690067,4.24065679 53.591468,15.6443747 53.1784216,29.2473412 C53.1784216,29.2752504 53.1784216,29.3003688 53.1784216,29.328278 C52.8602642,36.6767825 47.9930147,41.8455748 41.5349785,41.6474192 C39.8297666,41.5943916 38.2138621,41.0445795 36.8463436,40.0733377 C37.9766395,38.3848283 38.6213268,36.3390806 38.5710914,34.1342502 C38.5124835,31.5526449 37.4268413,29.1022131 35.6602307,27.218339 L26.4197129,17.3607933 C26.8104324,17.1989197 27.2178971,17.0733281 27.6448978,16.9979731 C30.4748238,16.5011886 33.1652071,18.0641063 34.2229408,20.5759385 C34.3317841,20.8354945 34.6248238,20.9666679 34.8927458,20.8801492 L37.4882401,20.0317082 C37.7896523,19.9340258 37.9403584,19.5991149 37.8231426,19.3060678 C36.0816496,14.8880341 31.2869623,12.1808373 26.3527324,13.3697712 C25.36477,13.6097907 24.4354156,14.0005201 23.5897868,14.5168412 C21.4324567,12.7557677 18.7727727,11.7566167 15.9456376,11.6700981 C11.7174937,11.5417155 7.77122603,13.1102152 4.83524756,16.0909226 C1.86577884,19.0995394 0.15219445,23.3752358 0.00986089336,28.1309714 C-0.152008642,33.6653748 1.68158248,39.4230523 5.31806532,44.7816275 C10.3164849,52.1468775 18.7225374,56.7100392 27.8067673,56.9863408 C33.4610377,57.1593781 38.9199482,55.6857699 43.6811452,52.7134352 C44.3369959,52.3031693 44.5128197,51.4435645 44.0718648,50.8072337 L43.4271775,49.8750649 C43.0197128,49.2861798 42.2243194,49.1270971 41.6159132,49.5038719 C37.507776,52.054777 32.8023961,53.3190659 27.9267741,53.1711469 C20.0621473,52.9311273 12.7919725,48.9931327 8.48010297,42.6381974 C5.29852934,37.9494441 3.68820654,32.9704346 3.82774925,28.2453993 C4.05939013,20.6457116 9.10804513,15.2787636 15.8312126,15.4825011 C17.6257317,15.5383196 19.3253618,16.116041 20.7542791,17.1431012 C19.7914345,18.4743722 19.1523289,20.0456628 18.9541783,21.7341722 C18.6109032,24.6702249 19.5597936,27.514177 21.5552542,29.6352797 L31.351152,40.0538012 C30.4050525,40.5589586 29.3222011,40.8296783 28.1779509,40.7933963 C25.5657115,40.7152504 23.1348776,38.9820862 22.2836671,36.3390806" id="Shape"></path>
            <g id="Group" transform="translate(67.000000, 17.000000)">
                <path d="M7.62041528,0.837227723 C9.69543189,0.837227723 11.8231561,1.26970297 14.1117774,2.11247525 C14.2976412,2.18178218 14.4002824,2.38693069 14.3420266,2.57544554 L13.6679236,4.80158416 C13.6041196,5.00950495 13.3794186,5.11762376 13.1769103,5.04 C11.2905316,4.33029703 9.51234219,3.96435644 7.92001661,3.96435644 C5.59533223,3.96435644 4.10564784,4.97623762 4.10564784,6.55366337 C4.10564784,10.8423762 15.1603821,8.04237624 15.1603821,15.7271287 C15.1603821,19.2118812 12.0894684,21.5655446 7.62041528,21.5655446 C5.41501661,21.5655446 2.9932392,21.0970297 0.399468439,20.0574257 C0.219152824,19.9853465 0.122059801,19.7829703 0.177541528,19.5972277 L0.857192691,17.36 C0.918222591,17.1520792 1.14569767,17.0439604 1.34820598,17.1188119 C3.53418605,17.9310891 5.6008804,18.4356436 7.32081395,18.4356436 C9.76478405,18.4356436 11.2849834,17.3932673 11.2849834,15.7243564 C11.2849834,11.3164356 0.199734219,14.0554455 0.199734219,6.55089109 C0.199734219,3.16039604 3.24013289,0.837227723 7.62041528,0.837227723" id="Path"></path>
                <path d="M17.2298505,6.61465347 L20.2952159,6.61465347 C20.5032724,6.61465347 20.6697176,6.78376238 20.6697176,6.98891089 L20.6697176,20.8336634 C20.6697176,21.0415842 20.5004983,21.2079208 20.2952159,21.2079208 L17.2298505,21.2079208 C17.021794,21.2079208 16.8553488,21.0388119 16.8553488,20.8336634 L16.8553488,6.98891089 C16.8553488,6.7809901 17.021794,6.61465347 17.2298505,6.61465347 M18.7611462,0.152475248 C19.9817442,0.152475248 20.8833223,0.942574257 21.0331229,2.09861386 C21.2245349,3.56237624 19.9401329,4.88752475 18.4726412,4.7239604 C17.3130731,4.59366337 16.4974917,3.68712871 16.4974917,2.44514851 C16.4974917,1.10613861 17.4517774,0.152475248 18.7611462,0.152475248" id="Shape"></path>
                <path d="M23.2745847,6.61465347 L25.6436545,6.61465347 C25.8184219,6.61465347 25.9682226,6.73386139 26.0098339,6.9029703 L26.4065282,8.56079208 C26.4120764,8.5829703 26.4370432,8.58574257 26.4481395,8.56910891 C27.6104817,7.07485149 29.2943522,6.2570297 31.2140199,6.2570297 C33.3167774,6.2570297 35.036711,7.2550495 35.8772591,8.90455446 C35.8855814,8.92118812 35.9077741,8.92118812 35.9188704,8.90732673 C37.2587542,7.19960396 39.0674585,6.2570297 41.1702159,6.2570297 C44.3576412,6.2570297 46.6240698,8.4609901 46.6240698,11.5881188 L46.6240698,20.8336634 C46.6240698,21.0415842 46.4548505,21.2079208 46.2495681,21.2079208 L43.1842027,21.2079208 C42.9789203,21.2079208 42.809701,21.0388119 42.809701,20.8336634 L42.809701,12.1841584 C42.809701,10.5457426 41.6473588,9.38415842 39.9773588,9.38415842 C38.0410465,9.38415842 36.6678738,10.8451485 36.6678738,12.929901 L36.6678738,20.8336634 C36.6678738,21.0415842 36.4986545,21.2079208 36.2933721,21.2079208 L33.2280066,21.2079208 C33.0199502,21.2079208 32.853505,21.0388119 32.853505,20.8336634 L32.853505,12.2756436 C32.853505,10.6732673 31.5469103,9.33980198 29.9434884,9.38693069 C28.0349169,9.43960396 26.7144518,10.8839604 26.7144518,12.929901 L26.7144518,20.8336634 C26.7144518,21.0415842 26.5452326,21.2079208 26.3399502,21.2079208 L23.2745847,21.2079208 C23.0665282,21.2079208 22.9000831,21.0388119 22.9000831,20.8336634 L22.9000831,6.98891089 C22.9000831,6.78376238 23.0693023,6.61465347 23.2745847,6.61465347" id="Path"></path>
                <path d="M55.9977076,9.2649505 C53.9726246,9.2649505 52.541196,10.7841584 52.541196,12.929901 L52.541196,14.8954455 C52.541196,17.0106931 53.9726246,18.5576238 55.9977076,18.5576238 C58.2336213,18.5576238 59.8120764,16.6225743 59.8120764,13.9112871 C59.8120764,11.1722772 58.2336213,9.2649505 55.9977076,9.2649505 M49.1595847,6.61465347 L51.5314286,6.61465347 C51.7034219,6.61465347 51.8532226,6.73108911 51.8948339,6.89742574 L52.2887542,8.44158416 C52.2943023,8.46376238 52.3192691,8.46653465 52.3303654,8.44990099 C53.4039369,7.04435644 55.0600664,6.2570297 56.9797342,6.2570297 C60.9133887,6.2570297 63.684701,9.41465347 63.684701,13.9112871 C63.684701,18.4079208 60.9133887,21.5655446 56.9797342,21.5655446 C55.2154153,21.5655446 53.6841196,20.8724752 52.6410631,19.5944554 C52.6271927,19.5750495 52.5994518,19.5861386 52.5994518,19.6083168 L52.5994518,27.0269307 C52.5994518,27.2320792 52.4302326,27.4011881 52.2249502,27.4011881 L49.1595847,27.4011881 C48.9515282,27.4011881 48.7850831,27.2320792 48.7850831,27.0269307 L48.7850831,6.98891089 C48.7850831,6.78376238 48.9515282,6.61465347 49.1595847,6.61465347" id="Shape"></path>
                <path d="M69.3771262,17.0384158 C69.3771262,17.9615842 69.9735548,18.5271287 70.8668106,18.5271287 C71.1275748,18.5271287 71.4549169,18.48 71.7961296,18.4190099 C72.004186,18.3829703 72.2039203,18.5243564 72.2344352,18.7350495 L72.5451329,20.8891089 C72.5728738,21.0859406 72.4424917,21.2744554 72.2483056,21.310495 C71.4188538,21.4740594 70.622691,21.5655446 69.9430399,21.5655446 C67.2604983,21.5655446 65.5627575,19.9576238 65.5627575,17.4265347 L65.5627575,0.618217822 C65.5627575,0.41029703 65.7319767,0.243960396 65.9372591,0.243960396 L69.0026246,0.243960396 C69.2106811,0.243960396 69.3771262,0.413069307 69.3771262,0.618217822 L69.3771262,17.0384158 L69.3771262,17.0384158 Z" id="Path"></path>
                <path d="M79.9158804,22.8463366 C78.6037375,26.1536634 76.756196,27.7615842 74.0736545,27.7615842 C73.5382558,27.7615842 72.8724751,27.6978218 72.1678571,27.5647525 C71.9681229,27.5287129 71.8377409,27.3346535 71.8710299,27.1350495 L72.2510797,24.9033663 C72.2871429,24.6954455 72.4896512,24.5568317 72.6949336,24.5984158 C73.0694352,24.6732673 73.4272924,24.7231683 73.7157973,24.7231683 C75.0279402,24.7231683 75.8019103,24.0079208 76.4871096,22.3112871 L76.9892193,21.0388119 C76.9919934,21.0332673 76.9919934,21.0249505 76.9892193,21.0194059 L71.1913787,7.13306931 C71.0887375,6.88633663 71.2690532,6.61465347 71.5381395,6.61465347 L74.7061462,6.61465347 C74.8642691,6.61465347 75.0029734,6.71445545 75.0584551,6.86138614 L78.7285714,16.8249505 C78.7368937,16.8471287 78.7674086,16.8471287 78.7757309,16.8249505 L82.3570764,6.86415842 C82.4097841,6.71445545 82.5512625,6.61465347 82.7093854,6.61465347 L85.8551993,6.61465347 C86.1215116,6.61465347 86.3018272,6.88356436 86.2047342,7.12752475 L79.9158804,22.8463366 Z" id="Path"></path>
                <path d="M87.6528073,0.241188119 L90.7181728,0.241188119 C90.9262292,0.241188119 91.0926744,0.41029703 91.0926744,0.615445545 L91.0926744,8.41663366 C91.0926744,8.44158416 91.1231894,8.44990099 91.1370598,8.43049505 C92.1856645,7.03881188 93.8917276,6.2570297 95.830814,6.2570297 C99.1680399,6.2570297 101.523239,8.54970297 101.523239,11.8265347 L101.523239,20.8336634 C101.523239,21.0415842 101.35402,21.2079208 101.148738,21.2079208 L98.0833721,21.2079208 C97.8753156,21.2079208 97.7088704,21.0388119 97.7088704,20.8336634 L97.7088704,12.4225743 C97.7088704,10.6372277 96.4272425,9.38415842 94.6684718,9.38415842 C92.6128738,9.38415842 91.0926744,10.9338614 91.0926744,13.1655446 L91.0926744,20.8308911 C91.0926744,21.0388119 90.9234551,21.2051485 90.7181728,21.2051485 L87.6528073,21.2051485 C87.4447508,21.2051485 87.2783056,21.0360396 87.2783056,20.8308911 L87.2783056,0.615445545 C87.2783056,0.41029703 87.4475249,0.241188119 87.6528073,0.241188119" id="Path"></path>
                <path d="M107.035349,12.5722772 L114.012176,12.5722772 C114.026047,12.5722772 114.039917,12.5584158 114.037143,12.5445545 C113.906761,10.4764356 112.569651,9.08752475 110.672176,9.08752475 C108.713671,9.08752475 107.26005,10.4736634 107.010382,12.5445545 C107.007608,12.5584158 107.021478,12.5722772 107.035349,12.5722772 M110.672176,6.2570297 C114.813887,6.2570297 117.704485,9.2649505 117.704485,13.6423762 C117.704485,14.049901 117.67397,14.460198 117.646229,14.84 C117.646229,14.8538614 117.635133,14.8621782 117.621262,14.8621782 L107.035349,14.8621782 C107.018704,14.8621782 107.007608,14.8760396 107.007608,14.8926733 C107.287791,17.1992079 109.132558,18.7350495 111.623688,18.7350495 C112.777708,18.7350495 114.084302,18.4079208 115.471346,17.7009901 C115.662757,17.6039604 115.898555,17.6788119 115.987326,17.8784158 L116.836196,19.7691089 C116.919419,19.9548515 116.83897,20.1794059 116.653106,20.2653465 C114.708472,21.1663366 112.780482,21.5655446 111.146545,21.5655446 C106.436146,21.5655446 103.187691,18.4079208 103.187691,13.9112871 C103.193239,9.41465347 106.261379,6.2570297 110.672176,6.2570297" id="Shape"></path>
                <path d="M124.678538,18.8847525 C126.703621,18.8847525 128.046279,17.4847525 128.046279,15.4887129 L128.046279,14.6459406 C128.046279,14.6348515 128.037957,14.6237624 128.02686,14.6209901 C127.258439,14.4158416 126.459502,14.3271287 125.660565,14.3271287 C123.485681,14.3271287 122.143023,15.250297 122.143023,16.769505 C122.145797,17.9615842 123.24711,18.8847525 124.678538,18.8847525 M125.213937,12.1231683 C126.09887,12.1231683 127.072575,12.2118812 128.015764,12.4142574 C128.032409,12.4170297 128.046279,12.4059406 128.046279,12.3893069 L128.046279,11.6463366 C128.046279,10.1576238 126.853422,9.08475248 125.036395,9.08475248 C123.652126,9.08475248 122.162442,9.39247525 120.597857,9.98851485 C120.400897,10.0633663 120.181744,9.96633663 120.109618,9.76673267 L119.413322,7.82891089 C119.34397,7.63485149 119.446611,7.41584158 119.638023,7.34653465 C121.685299,6.60356436 123.624385,6.2570297 125.485797,6.2570297 C129.18088,6.2570297 131.62485,8.4609901 131.62485,11.7073267 L131.62485,17.6344554 C131.62485,18.2582178 132.013223,18.6768317 132.637392,18.6768317 C132.762226,18.6768317 132.892608,18.6657426 133.00912,18.6518812 C133.217176,18.6269307 133.40304,18.7794059 133.422458,18.9873267 L133.616645,21.0110891 C133.636063,21.2051485 133.502907,21.3853465 133.308721,21.4158416 C132.77887,21.5045545 132.210183,21.5627723 131.622076,21.5627723 C130.146262,21.5627723 129.019983,20.8308911 128.506777,19.630495 C128.501229,19.6138614 128.481811,19.6110891 128.46794,19.6221782 C127.216827,20.8586139 125.471927,21.5627723 123.696512,21.5627723 C120.656113,21.5627723 118.481229,19.6554455 118.481229,16.9774257 C118.481229,13.9112871 120.983455,12.1231683 125.213937,12.1231683" id="Shape"></path>
                <path d="M138.438007,17.0384158 C138.438007,17.9615842 139.034435,18.5271287 139.927691,18.5271287 C140.188455,18.5271287 140.515797,18.48 140.85701,18.4190099 C141.065066,18.3829703 141.264801,18.5243564 141.295316,18.7350495 L141.606013,20.8891089 C141.633754,21.0859406 141.503372,21.2744554 141.309186,21.310495 C140.479734,21.4740594 139.683571,21.5655446 139.00392,21.5655446 C136.321379,21.5655446 134.623638,19.9576238 134.623638,17.4265347 L134.623638,0.618217822 C134.623638,0.41029703 134.792857,0.243960396 134.99814,0.243960396 L138.063505,0.243960396 C138.271561,0.243960396 138.438007,0.413069307 138.438007,0.618217822 L138.438007,17.0384158 L138.438007,17.0384158 Z" id="Path"></path>
                <path d="M146.760266,6.61465347 L150.413738,6.61465347 C150.621794,6.61465347 150.788239,6.78376238 150.788239,6.98891089 L150.788239,9.12910891 C150.788239,9.3370297 150.61902,9.50336634 150.413738,9.50336634 L146.760266,9.50336634 C146.746395,9.50336634 146.735299,9.51445545 146.735299,9.52831683 L146.735299,16.4479208 C146.735299,17.5679208 147.620233,18.5160396 148.740963,18.5271287 C149.212558,18.5326733 149.725764,18.4744554 150.280581,18.3524752 C150.491412,18.3081188 150.699468,18.4384158 150.738306,18.6518812 L151.112807,20.769901 C151.14887,20.9639604 151.024037,21.1580198 150.82985,21.2023762 C149.792342,21.4435644 148.807542,21.5655446 147.867126,21.5655446 C144.946013,21.5655446 142.918156,19.6582178 142.918156,16.8609901 L142.918156,9.53108911 C142.918156,9.51722772 142.90706,9.50613861 142.893189,9.50613861 L140.582375,9.50613861 C140.374319,9.50613861 140.207874,9.3370297 140.207874,9.13188119 L140.207874,6.99168317 C140.207874,6.78376238 140.377093,6.61742574 140.582375,6.61742574 L142.893189,6.61742574 C142.90706,6.61742574 142.918156,6.60633663 142.918156,6.59247525 L142.918156,2.7029703 C142.918156,2.4950495 143.087375,2.32871287 143.292658,2.32871287 L146.358023,2.32871287 C146.56608,2.32871287 146.732525,2.49782178 146.732525,2.7029703 L146.732525,6.59247525 C146.735299,6.60356436 146.746395,6.61465347 146.760266,6.61465347" id="Path"></path>
                <path d="M153.099053,0.241188119 L156.164419,0.241188119 C156.372475,0.241188119 156.53892,0.41029703 156.53892,0.615445545 L156.53892,8.41663366 C156.53892,8.44158416 156.569435,8.44990099 156.583306,8.43049505 C157.63191,7.03881188 159.337973,6.2570297 161.27706,6.2570297 C164.614286,6.2570297 166.969485,8.54970297 166.969485,11.8265347 L166.969485,20.8336634 C166.969485,21.0415842 166.800266,21.2079208 166.594983,21.2079208 L163.529618,21.2079208 C163.321561,21.2079208 163.155116,21.0388119 163.155116,20.8336634 L163.155116,12.4225743 C163.155116,10.6372277 161.873488,9.38415842 160.114718,9.38415842 C158.05912,9.38415842 156.53892,10.9338614 156.53892,13.1655446 L156.53892,20.8308911 C156.53892,21.0388119 156.369701,21.2051485 156.164419,21.2051485 L153.099053,21.2051485 C152.890997,21.2051485 152.724551,21.0360396 152.724551,20.8308911 L152.724551,0.615445545 C152.724551,0.41029703 152.890997,0.241188119 153.099053,0.241188119" id="Path"></path>
            </g>
        </g>
    </g>
</svg>