<?xml version="1.0" encoding="UTF-8"?>
<svg id="Page-1" viewBox="0 0 80 80" version="1.1" xmlns="http://www.w3.org/2000/svg" xmlns:xlink="http://www.w3.org/1999/xlink">
    <!-- Generator: Sketch 60 (88103) - https://sketch.com -->
    <title>Icon/Wellbeing</title>
    <desc>Created with Sketch.</desc>
    <defs>
        <polygon id="path-1" points="0 0 79.9998596 0 79.9998596 79.9998596 0 79.9998596"></polygon>
    </defs>
    <g stroke="none" stroke-width="1" fill="none" fill-rule="evenodd">
        <g id="My-Policies---Desktop" transform="translate(-710.000000, -1363.000000)">
            <g id="Group-13-Copy-11" transform="translate(682.000000, 1342.000000)">
                <g id="Icon/Wellbeing" transform="translate(28.000000, 21.000000)">
                    <g id="Group-34">
                        <g id="Group-3">
                            <mask id="mask-2" fill="white">
                                <use xlink:href="#path-1"></use>
                            </mask>
                            <g id="Clip-2"></g>
                            <path d="M79.9998596,39.9998596 C79.9998596,62.0910877 62.0910877,79.9998596 39.9998596,79.9998596 C17.9086316,79.9998596 -0.000140350877,62.0910877 -0.000140350877,39.9998596 C-0.000140350877,17.9086316 17.9086316,-0.000140350877 39.9998596,-0.000140350877 C62.0910877,-0.000140350877 79.9998596,17.9086316 79.9998596,39.9998596" id="Fill-1" fill="#BFF3E8" mask="url(#mask-2)"></path>
                        </g>
                        <g id="Group-7" transform="translate(11.228070, 41.403509)">
                            <polyline id="Fill-4" fill="#FFFFFF" points="18.6353684 0.267789474 0.43045614 0.267789474 0.43045614 3.8565614 59.0901053 3.8565614 59.0901053 0.267789474 23.4690526 0.267789474"></polyline>
                            <polyline id="Stroke-6" stroke="#231F20" stroke-width="1.8245614" stroke-linecap="round" stroke-linejoin="round" points="18.6353684 0.267789474 0.43045614 0.267789474 0.43045614 3.8565614 59.0901053 3.8565614 59.0901053 0.267789474 23.4690526 0.267789474"></polyline>
                        </g>
                        <path d="M16.3581053,50.7529825 C15.5005614,50.7529825 14.8030175,50.0561404 14.8030175,49.1985965 L14.8030175,37.7333333 C14.8030175,36.8764912 15.5005614,36.1782456 16.3581053,36.1782456 L18.310386,36.1782456 C19.1679298,36.1782456 19.8647719,36.8764912 19.8647719,37.7333333 L19.8647719,49.1985965 C19.8647719,50.0561404 19.1679298,50.7529825 18.310386,50.7529825 L16.3581053,50.7529825 Z" id="Fill-8" fill="#FFFFFF"></path>
                        <path d="M18.3105263,35.1259649 L16.3582456,35.1259649 C14.9203509,35.1259649 13.7505263,36.2957895 13.7505263,37.7336842 L13.7505263,49.1989474 C13.7505263,50.6368421 14.9203509,51.8066667 16.3582456,51.8066667 L18.3105263,51.8066667 C19.7484211,51.8066667 20.9175439,50.6368421 20.9175439,49.1989474 L20.9175439,37.7336842 C20.9175439,36.2957895 19.7484211,35.1259649 18.3105263,35.1259649 M18.3105263,37.2312281 C18.5877193,37.2312281 18.8122807,37.4564912 18.8122807,37.7336842 L18.8122807,49.1989474 C18.8122807,49.4754386 18.5877193,49.7014035 18.3105263,49.7014035 L16.3582456,49.7014035 C16.0810526,49.7014035 15.8557895,49.4754386 15.8557895,49.1989474 L15.8557895,37.7336842 C15.8557895,37.4564912 16.0810526,37.2312281 16.3582456,37.2312281 L18.3105263,37.2312281" id="Fill-10" fill="#231F20"></path>
                        <path d="M63.4071579,50.7529825 C62.549614,50.7529825 61.8520702,50.0561404 61.8520702,49.1985965 L61.8520702,37.7333333 C61.8520702,36.8764912 62.549614,36.1782456 63.4071579,36.1782456 L65.3594386,36.1782456 C66.2169825,36.1782456 66.9145263,36.8764912 66.9145263,37.7333333 L66.9145263,49.1985965 C66.9145263,50.0561404 66.2169825,50.7529825 65.3594386,50.7529825 L63.4071579,50.7529825 Z" id="Fill-12" fill="#FFFFFF"></path>
                        <path d="M65.3596491,35.1259649 L63.4080702,35.1259649 C61.9701754,35.1259649 60.7996491,36.2957895 60.7996491,37.7336842 L60.7996491,49.1989474 C60.7996491,50.6368421 61.9701754,51.8066667 63.4080702,51.8066667 L65.3596491,51.8066667 C66.7975439,51.8066667 67.9673684,50.6368421 67.9673684,49.1989474 L67.9673684,37.7336842 C67.9673684,36.2957895 66.7975439,35.1259649 65.3596491,35.1259649 M65.3596491,37.2312281 C65.6368421,37.2312281 65.8621053,37.4564912 65.8621053,37.7336842 L65.8621053,49.1989474 C65.8621053,49.4754386 65.6368421,49.7014035 65.3596491,49.7014035 L63.4080702,49.7014035 C63.1301754,49.7014035 62.9049123,49.4754386 62.9049123,49.1989474 L62.9049123,37.7336842 C62.9049123,37.4564912 63.1301754,37.2312281 63.4080702,37.2312281 L65.3596491,37.2312281" id="Fill-14" fill="#231F20"></path>
                        <path d="M58.5223158,54.3529123 C57.6647719,54.3529123 56.9672281,53.6553684 56.9672281,52.7978246 L56.9672281,34.1339649 C56.9672281,33.2771228 57.6647719,32.5795789 58.5223158,32.5795789 L60.4745965,32.5795789 C61.3321404,32.5795789 62.0289825,33.2771228 62.0289825,34.1339649 L62.0289825,52.7978246 C62.0289825,53.6553684 61.3321404,54.3529123 60.4745965,54.3529123 L58.5223158,54.3529123 Z" id="Fill-16" fill="#FFFFFF"></path>
                        <path d="M60.4747368,31.5267368 L58.5224561,31.5267368 C57.0845614,31.5267368 55.9147368,32.6965614 55.9147368,34.1344561 L55.9147368,52.7983158 C55.9147368,54.2355088 57.0845614,55.4053333 58.5224561,55.4053333 L60.4747368,55.4053333 C61.9126316,55.4053333 63.0817544,54.2355088 63.0817544,52.7983158 L63.0817544,34.1344561 C63.0817544,32.6965614 61.9126316,31.5267368 60.4747368,31.5267368 M60.4747368,33.632 C60.7519298,33.632 60.9764912,33.8572632 60.9764912,34.1344561 L60.9764912,52.7983158 C60.9764912,53.074807 60.7519298,53.3000702 60.4747368,53.3000702 L58.5224561,53.3000702 C58.2452632,53.3000702 58.02,53.074807 58.02,52.7983158 L58.02,34.1344561 C58.02,33.8572632 58.2452632,33.632 58.5224561,33.632 L60.4747368,33.632" id="Fill-18" fill="#231F20"></path>
                        <path d="M21.2429474,54.3529123 C20.3854035,54.3529123 19.6878596,53.6553684 19.6878596,52.7978246 L19.6878596,34.1339649 C19.6878596,33.2771228 20.3854035,32.5795789 21.2429474,32.5795789 L23.1952281,32.5795789 C24.0527719,32.5795789 24.749614,33.2771228 24.749614,34.1339649 L24.7503158,52.7978246 C24.7503158,53.6553684 24.0527719,54.3529123 23.1952281,54.3529123 L21.2429474,54.3529123 Z" id="Fill-20" fill="#FFFFFF"></path>
                        <path d="M23.1954386,31.5267368 L21.2431579,31.5267368 C19.8052632,31.5267368 18.6354386,32.6965614 18.6354386,34.1344561 L18.6354386,52.7983158 C18.6354386,54.2355088 19.8052632,55.4053333 21.2431579,55.4053333 L23.1954386,55.4053333 C24.6333333,55.4053333 25.8031579,54.2355088 25.8031579,52.7983158 L25.8024561,34.1344561 C25.8024561,32.6965614 24.6333333,31.5267368 23.1954386,31.5267368 M23.1954386,33.632 C23.4726316,33.632 23.697193,33.8572632 23.697193,34.1344561 L23.6978947,52.7983158 C23.6978947,53.074807 23.4726316,53.3000702 23.1954386,53.3000702 L21.2431579,53.3000702 C20.9659649,53.3000702 20.7407018,53.074807 20.7407018,52.7983158 L20.7407018,34.1344561 C20.7407018,33.8572632 20.9652632,33.632 21.2431579,33.632 L23.1954386,33.632" id="Fill-22" fill="#231F20"></path>
                        <path d="M32.6581053,16.7569825 C31.1128421,15.2117193 28.6075789,15.2117193 27.061614,16.7569825 L26.7668772,17.0524211 L26.4728421,16.7569825 C24.9268772,15.2117193 22.421614,15.2117193 20.8763509,16.7569825 C19.3310877,18.3022456 19.3310877,20.8075088 20.8763509,22.3534737 L21.1717895,22.6482105 L26.7668772,28.244 L32.3633684,22.6482105 L32.6581053,22.3534737 C34.2033684,20.8075088 34.2033684,18.3022456 32.6581053,16.7569825" id="Fill-24" fill="#00CEA4"></path>
                        <line x1="57.1557895" y1="58.2804211" x2="61.9866667" y2="58.2804211" id="Stroke-26" stroke="#231F20" stroke-width="1.8245614" stroke-linecap="round" stroke-linejoin="round"></line>
                        <line x1="19.5139649" y1="58.2804211" x2="25.0465965" y2="58.2804211" id="Stroke-28" stroke="#231F20" stroke-width="1.8245614" stroke-linecap="round" stroke-linejoin="round"></line>
                        <path d="M42.5279298,17.8048421 C42.0135439,17.8048421 41.5967018,17.388 41.5967018,16.873614 L41.5967018,10.5402807 C41.5967018,10.0265965 42.0135439,9.60905263 42.5279298,9.60905263 C43.041614,9.60905263 43.4591579,10.0265965 43.4591579,10.5402807 L43.4591579,16.873614 C43.4591579,17.388 43.041614,17.8048421 42.5279298,17.8048421" id="Fill-30" fill="#FFFFFF"></path>
                        <path d="M45.6940351,14.6387368 L39.3614035,14.6387368 C38.8470175,14.6387368 38.4294737,14.221193 38.4294737,13.7075088 C38.4294737,13.1924211 38.8470175,12.7762807 39.3614035,12.7762807 L45.6940351,12.7762807 C46.2084211,12.7762807 46.6252632,13.1924211 46.6252632,13.7075088 C46.6252632,14.221193 46.2084211,14.6387368 45.6940351,14.6387368" id="Fill-32" fill="#FFFFFF"></path>
                    </g>
                </g>
            </g>
        </g>
    </g>
</svg>
